<?xml version="1.0" encoding="UTF-8" standalone="no"?><svg xmlns="http://www.w3.org/2000/svg" xmlns:xlink="http://www.w3.org/1999/xlink" clip-rule="evenodd" stroke-miterlimit="4.00" viewBox="0 0 1024 768"><desc>SVG generated by Keynote</desc><defs></defs><g transform="matrix(1.00, 0.00, -0.00, -1.00, 0.0, 768.0)"><path d="M 0.0 768.0 L 1024.0 768.0 L 1024.0 0.0 L 0.0 0.0 Z M 0.0 768.0 " fill="#FEFFFF"></path><text xml:space="preserve" font-family="Helvetica" font-size="38.0" fill="#000000" transform="matrix(1.00, 0.00, -0.00, -1.00, 400.0, 711.0)">L</text><text xml:space="preserve" font-family="Helvetica" font-size="38.0" fill="#000000" transform="matrix(1.00, 0.00, -0.00, -1.00, 421.1, 711.0)">D</text><text xml:space="preserve" font-family="Helvetica" font-size="38.0" fill="#000000" transform="matrix(1.00, 0.00, -0.00, -1.00, 448.6, 711.0)"> </text><text xml:space="preserve" font-family="Helvetica" font-size="38.0" fill="#000000" transform="matrix(1.00, 0.00, -0.00, -1.00, 458.5, 711.0)">T</text><text xml:space="preserve" font-family="Helvetica" font-size="38.0" fill="#000000" transform="matrix(1.00, 0.00, -0.00, -1.00, 480.3, 711.0)">u</text><text xml:space="preserve" font-family="Helvetica" font-size="38.0" fill="#000000" transform="matrix(1.00, 0.00, -0.00, -1.00, 501.4, 711.0)">t</text><text xml:space="preserve" font-family="Helvetica" font-size="38.0" fill="#000000" transform="matrix(1.00, 0.00, -0.00, -1.00, 512.0, 711.0)">o</text><text xml:space="preserve" font-family="Helvetica" font-size="38.0" fill="#000000" transform="matrix(1.00, 0.00, -0.00, -1.00, 533.1, 711.0)">r</text><text xml:space="preserve" font-family="Helvetica" font-size="38.0" fill="#000000" transform="matrix(1.00, 0.00, -0.00, -1.00, 545.8, 711.0)">i</text><text xml:space="preserve" font-family="Helvetica" font-size="38.0" fill="#000000" transform="matrix(1.00, 0.00, -0.00, -1.00, 554.2, 711.0)">a</text><text xml:space="preserve" font-family="Helvetica" font-size="38.0" fill="#000000" transform="matrix(1.00, 0.00, -0.00, -1.00, 575.4, 711.0)">l</text><text xml:space="preserve" font-family="Helvetica" font-size="38.0" fill="#000000" transform="matrix(1.00, 0.00, -0.00, -1.00, 583.8, 711.0)"> </text><text xml:space="preserve" font-family="Helvetica" font-size="38.0" fill="#000000" transform="matrix(1.00, 0.00, -0.00, -1.00, 594.4, 711.0)">I</text><text xml:space="preserve" font-family="Helvetica" font-size="38.0" fill="#000000" transform="matrix(1.00, 0.00, -0.00, -1.00, 604.9, 711.0)">I</text><image xlink:href="BF2A33AD56FAC13E22D4C9C96822AF0E.jpeg" width="1009.00" height="768.00" transform="matrix(1.01, 0.00, -0.00, -1.02, 0.0, 768.0)"></image><path d="M 25.2 749.5 L 778.7 749.5 L 778.7 702.5 L 25.2 702.5 Z M 25.2 749.5 " fill="#FEFFFF"></path><g><clipPath id="clip-10"><path d="M 19.7 697.0 L 784.2 697.0 L 784.2 755.0 L 19.7 755.0 Z M 19.7 697.0 "></path></clipPath><g clip-path="url(#clip-10)"><text xml:space="preserve" font-family="Helvetica" font-size="34.0" fill="#000000" transform="matrix(1.00, 0.00, -0.00, -1.00, 28.0, 713.0)">A</text><text xml:space="preserve" font-family="Helvetica" font-size="34.0" fill="#000000" transform="matrix(1.00, 0.00, -0.00, -1.00, 50.7, 713.0)">s</text><text xml:space="preserve" font-family="Helvetica" font-size="34.0" fill="#000000" transform="matrix(1.00, 0.00, -0.00, -1.00, 67.7, 713.0)">s</text><text xml:space="preserve" font-family="Helvetica" font-size="34.0" fill="#000000" transform="matrix(1.00, 0.00, -0.00, -1.00, 84.7, 713.0)">o</text><text xml:space="preserve" font-family="Helvetica" font-size="34.0" fill="#000000" transform="matrix(1.00, 0.00, -0.00, -1.00, 103.6, 713.0)">c</text><text xml:space="preserve" font-family="Helvetica" font-size="34.0" fill="#000000" transform="matrix(1.00, 0.00, -0.00, -1.00, 120.6, 713.0)">i</text><text xml:space="preserve" font-family="Helvetica" font-size="34.0" fill="#000000" transform="matrix(1.00, 0.00, -0.00, -1.00, 128.2, 713.0)">a</text><text xml:space="preserve" font-family="Helvetica" font-size="34.0" fill="#000000" transform="matrix(1.00, 0.00, -0.00, -1.00, 147.1, 713.0)">t</text><text xml:space="preserve" font-family="Helvetica" font-size="34.0" fill="#000000" transform="matrix(1.00, 0.00, -0.00, -1.00, 156.5, 713.0)">i</text><text xml:space="preserve" font-family="Helvetica" font-size="34.0" fill="#000000" transform="matrix(1.00, 0.00, -0.00, -1.00, 164.1, 713.0)">o</text><text xml:space="preserve" font-family="Helvetica" font-size="34.0" fill="#000000" transform="matrix(1.00, 0.00, -0.00, -1.00, 183.0, 713.0)">n</text><text xml:space="preserve" font-family="Helvetica" font-size="34.0" fill="#000000" transform="matrix(1.00, 0.00, -0.00, -1.00, 201.9, 713.0)"> </text><text xml:space="preserve" font-family="Helvetica" font-size="34.0" fill="#000000" transform="matrix(1.00, 0.00, -0.00, -1.00, 211.3, 713.0)">m</text><text xml:space="preserve" font-family="Helvetica" font-size="34.0" fill="#000000" transform="matrix(1.00, 0.00, -0.00, -1.00, 239.7, 713.0)">a</text><text xml:space="preserve" font-family="Helvetica" font-size="34.0" fill="#000000" transform="matrix(1.00, 0.00, -0.00, -1.00, 258.6, 713.0)">p</text><text xml:space="preserve" font-family="Helvetica" font-size="34.0" fill="#000000" transform="matrix(1.00, 0.00, -0.00, -1.00, 277.5, 713.0)">p</text><text xml:space="preserve" font-family="Helvetica" font-size="34.0" fill="#000000" transform="matrix(1.00, 0.00, -0.00, -1.00, 296.4, 713.0)">i</text><text xml:space="preserve" font-family="Helvetica" font-size="34.0" fill="#000000" transform="matrix(1.00, 0.00, -0.00, -1.00, 304.0, 713.0)">n</text><text xml:space="preserve" font-family="Helvetica" font-size="34.0" fill="#000000" transform="matrix(1.00, 0.00, -0.00, -1.00, 322.9, 713.0)">g</text><text xml:space="preserve" font-family="Helvetica" font-size="34.0" fill="#000000" transform="matrix(1.00, 0.00, -0.00, -1.00, 341.8, 713.0)"> </text><text xml:space="preserve" font-family="Helvetica" font-size="34.0" fill="#000000" transform="matrix(1.00, 0.00, -0.00, -1.00, 351.2, 713.0)">a</text><text xml:space="preserve" font-family="Helvetica" font-size="34.0" fill="#000000" transform="matrix(1.00, 0.00, -0.00, -1.00, 370.2, 713.0)">n</text><text xml:space="preserve" font-family="Helvetica" font-size="34.0" fill="#000000" transform="matrix(1.00, 0.00, -0.00, -1.00, 389.1, 713.0)">d</text><text xml:space="preserve" font-family="Helvetica" font-size="34.0" fill="#000000" transform="matrix(1.00, 0.00, -0.00, -1.00, 408.0, 713.0)"> </text><text xml:space="preserve" font-family="Helvetica" font-size="34.0" fill="#000000" transform="matrix(1.00, 0.00, -0.00, -1.00, 417.4, 713.0)">h</text><text xml:space="preserve" font-family="Helvetica" font-size="34.0" fill="#000000" transform="matrix(1.00, 0.00, -0.00, -1.00, 436.3, 713.0)">i</text><text xml:space="preserve" font-family="Helvetica" font-size="34.0" fill="#000000" transform="matrix(1.00, 0.00, -0.00, -1.00, 443.9, 713.0)">s</text><text xml:space="preserve" font-family="Helvetica" font-size="34.0" fill="#000000" transform="matrix(1.00, 0.00, -0.00, -1.00, 460.9, 713.0)">t</text><text xml:space="preserve" font-family="Helvetica" font-size="34.0" fill="#000000" transform="matrix(1.00, 0.00, -0.00, -1.00, 470.3, 713.0)">o</text><text xml:space="preserve" font-family="Helvetica" font-size="34.0" fill="#000000" transform="matrix(1.00, 0.00, -0.00, -1.00, 489.3, 713.0)">r</text><text xml:space="preserve" font-family="Helvetica" font-size="34.0" fill="#000000" transform="matrix(1.00, 0.00, -0.00, -1.00, 500.6, 713.0)">i</text><text xml:space="preserve" font-family="Helvetica" font-size="34.0" fill="#000000" transform="matrix(1.00, 0.00, -0.00, -1.00, 508.1, 713.0)">c</text><text xml:space="preserve" font-family="Helvetica" font-size="34.0" fill="#000000" transform="matrix(1.00, 0.00, -0.00, -1.00, 525.1, 713.0)">a</text><text xml:space="preserve" font-family="Helvetica" font-size="34.0" fill="#000000" transform="matrix(1.00, 0.00, -0.00, -1.00, 544.1, 713.0)">l</text><text xml:space="preserve" font-family="Helvetica" font-size="34.0" fill="#000000" transform="matrix(1.00, 0.00, -0.00, -1.00, 551.6, 713.0)"> </text><text xml:space="preserve" font-family="Helvetica" font-size="34.0" fill="#000000" transform="matrix(1.00, 0.00, -0.00, -1.00, 561.1, 713.0)">r</text><text xml:space="preserve" font-family="Helvetica" font-size="34.0" fill="#000000" transform="matrix(1.00, 0.00, -0.00, -1.00, 572.4, 713.0)">e</text><text xml:space="preserve" font-family="Helvetica" font-size="34.0" fill="#000000" transform="matrix(1.00, 0.00, -0.00, -1.00, 591.3, 713.0)">c</text><text xml:space="preserve" font-family="Helvetica" font-size="34.0" fill="#000000" transform="matrix(1.00, 0.00, -0.00, -1.00, 608.3, 713.0)">o</text><text xml:space="preserve" font-family="Helvetica" font-size="34.0" fill="#000000" transform="matrix(1.00, 0.00, -0.00, -1.00, 627.2, 713.0)">m</text><text xml:space="preserve" font-family="Helvetica" font-size="34.0" fill="#000000" transform="matrix(1.00, 0.00, -0.00, -1.00, 655.5, 713.0)">b</text><text xml:space="preserve" font-family="Helvetica" font-size="34.0" fill="#000000" transform="matrix(1.00, 0.00, -0.00, -1.00, 674.5, 713.0)">i</text><text xml:space="preserve" font-family="Helvetica" font-size="34.0" fill="#000000" transform="matrix(1.00, 0.00, -0.00, -1.00, 682.0, 713.0)">n</text><text xml:space="preserve" font-family="Helvetica" font-size="34.0" fill="#000000" transform="matrix(1.00, 0.00, -0.00, -1.00, 700.9, 713.0)">a</text><text xml:space="preserve" font-family="Helvetica" font-size="34.0" fill="#000000" transform="matrix(1.00, 0.00, -0.00, -1.00, 719.8, 713.0)">t</text><text xml:space="preserve" font-family="Helvetica" font-size="34.0" fill="#000000" transform="matrix(1.00, 0.00, -0.00, -1.00, 729.3, 713.0)">i</text><text xml:space="preserve" font-family="Helvetica" font-size="34.0" fill="#000000" transform="matrix(1.00, 0.00, -0.00, -1.00, 736.8, 713.0)">o</text><text xml:space="preserve" font-family="Helvetica" font-size="34.0" fill="#000000" transform="matrix(1.00, 0.00, -0.00, -1.00, 755.8, 713.0)">n</text></g></g><path d="M 69.0 568.0 L 222.0 568.0 L 222.0 533.0 L 69.0 533.0 Z M 69.0 568.0 " fill="#000D67"></path><g><clipPath id="clip-11"><path d="M 66.0 530.0 L 225.0 530.0 L 225.0 571.0 L 66.0 571.0 Z M 66.0 530.0 "></path></clipPath><g clip-path="url(#clip-11)"><text xml:space="preserve" font-family="Helvetica" font-size="24.0" fill="#FEFFFF" transform="matrix(1.00, 0.00, -0.00, -1.00, 72.0, 542.0)">H</text><text xml:space="preserve" font-family="Helvetica" font-size="24.0" fill="#FEFFFF" transform="matrix(1.00, 0.00, -0.00, -1.00, 89.3, 542.0)">i</text><text xml:space="preserve" font-family="Helvetica" font-size="24.0" fill="#FEFFFF" transform="matrix(1.00, 0.00, -0.00, -1.00, 94.7, 542.0)">g</text><text xml:space="preserve" font-family="Helvetica" font-size="24.0" fill="#FEFFFF" transform="matrix(1.00, 0.00, -0.00, -1.00, 108.0, 542.0)">h</text><text xml:space="preserve" font-family="Helvetica" font-size="24.0" fill="#FEFFFF" transform="matrix(1.00, 0.00, -0.00, -1.00, 121.4, 542.0)"> </text><text xml:space="preserve" font-family="Helvetica" font-size="24.0" fill="#FEFFFF" transform="matrix(1.00, 0.00, -0.00, -1.00, 128.0, 542.0)">a</text><text xml:space="preserve" font-family="Helvetica" font-size="24.0" fill="#FEFFFF" transform="matrix(1.00, 0.00, -0.00, -1.00, 141.4, 542.0)">m</text><text xml:space="preserve" font-family="Helvetica" font-size="24.0" fill="#FEFFFF" transform="matrix(1.00, 0.00, -0.00, -1.00, 161.4, 542.0)">y</text><text xml:space="preserve" font-family="Helvetica" font-size="24.0" fill="#FEFFFF" transform="matrix(1.00, 0.00, -0.00, -1.00, 173.4, 542.0)">l</text><text xml:space="preserve" font-family="Helvetica" font-size="24.0" fill="#FEFFFF" transform="matrix(1.00, 0.00, -0.00, -1.00, 178.7, 542.0)">o</text><text xml:space="preserve" font-family="Helvetica" font-size="24.0" fill="#FEFFFF" transform="matrix(1.00, 0.00, -0.00, -1.00, 192.1, 542.0)">s</text><text xml:space="preserve" font-family="Helvetica" font-size="24.0" fill="#FEFFFF" transform="matrix(1.00, 0.00, -0.00, -1.00, 204.1, 542.0)">e</text></g></g><path d="M 69.0 249.0 L 212.0 249.0 L 212.0 214.0 L 69.0 214.0 Z M 69.0 249.0 " fill="#000D67"></path><g><clipPath id="clip-12"><path d="M 66.0 211.0 L 215.0 211.0 L 215.0 252.0 L 66.0 252.0 Z M 66.0 211.0 "></path></clipPath><g clip-path="url(#clip-12)"><text xml:space="preserve" font-family="Helvetica" font-size="24.0" fill="#E72114" transform="matrix(1.00, 0.00, -0.00, -1.00, 72.0, 223.0)">l</text><text xml:space="preserve" font-family="Helvetica" font-size="24.0" fill="#E72114" transform="matrix(1.00, 0.00, -0.00, -1.00, 77.3, 223.0)">o</text><text xml:space="preserve" font-family="Helvetica" font-size="24.0" fill="#E72114" transform="matrix(1.00, 0.00, -0.00, -1.00, 90.7, 223.0)">w</text><text xml:space="preserve" font-family="Helvetica" font-size="24.0" fill="#E72114" transform="matrix(1.00, 0.00, -0.00, -1.00, 108.0, 223.0)"> </text><text xml:space="preserve" font-family="Helvetica" font-size="24.0" fill="#E72114" transform="matrix(1.00, 0.00, -0.00, -1.00, 114.7, 223.0)">a</text><text xml:space="preserve" font-family="Helvetica" font-size="24.0" fill="#E72114" transform="matrix(1.00, 0.00, -0.00, -1.00, 128.0, 223.0)">m</text><text xml:space="preserve" font-family="Helvetica" font-size="24.0" fill="#E72114" transform="matrix(1.00, 0.00, -0.00, -1.00, 148.0, 223.0)">y</text><text xml:space="preserve" font-family="Helvetica" font-size="24.0" fill="#E72114" transform="matrix(1.00, 0.00, -0.00, -1.00, 160.0, 223.0)">l</text><text xml:space="preserve" font-family="Helvetica" font-size="24.0" fill="#E72114" transform="matrix(1.00, 0.00, -0.00, -1.00, 165.4, 223.0)">o</text><text xml:space="preserve" font-family="Helvetica" font-size="24.0" fill="#E72114" transform="matrix(1.00, 0.00, -0.00, -1.00, 178.7, 223.0)">s</text><text xml:space="preserve" font-family="Helvetica" font-size="24.0" fill="#E72114" transform="matrix(1.00, 0.00, -0.00, -1.00, 190.7, 223.0)">e</text></g></g></g></svg>