<?xml version="1.0" encoding="UTF-8" standalone="no"?><svg xmlns="http://www.w3.org/2000/svg" xmlns:xlink="http://www.w3.org/1999/xlink" clip-rule="evenodd" stroke-miterlimit="4.00" viewBox="0 0 425 48"><desc>SVG generated by Keynote</desc><defs></defs><g transform="matrix(1.00, 0.00, -0.00, -1.00, 0.0, 48.0)"><text xml:space="preserve" font-family="GillSans" font-size="41.0" fill="#000000" transform="matrix(1.00, 0.00, -0.00, -1.00, 0.0, 10.0)">•</text><text xml:space="preserve" font-family="GillSans" font-size="24.0" fill="#000000" transform="matrix(1.00, 0.00, -0.00, -1.00, 45.0, 16.0)">M</text><text xml:space="preserve" font-family="GillSans" font-size="24.0" fill="#000000" transform="matrix(1.00, 0.00, -0.00, -1.00, 63.7, 16.0)">e</text><text xml:space="preserve" font-family="GillSans" font-size="24.0" fill="#000000" transform="matrix(1.00, 0.00, -0.00, -1.00, 75.2, 16.0)">a</text><text xml:space="preserve" font-family="GillSans" font-size="24.0" fill="#000000" transform="matrix(1.00, 0.00, -0.00, -1.00, 85.5, 16.0)">s</text><text xml:space="preserve" font-family="GillSans" font-size="24.0" fill="#000000" transform="matrix(1.00, 0.00, -0.00, -1.00, 94.7, 16.0)">u</text><text xml:space="preserve" font-family="GillSans" font-size="24.0" fill="#000000" transform="matrix(1.00, 0.00, -0.00, -1.00, 106.7, 16.0)">r</text><text xml:space="preserve" font-family="GillSans" font-size="24.0" fill="#000000" transform="matrix(1.00, 0.00, -0.00, -1.00, 115.7, 16.0)">e</text><text xml:space="preserve" font-family="GillSans" font-size="24.0" fill="#000000" transform="matrix(1.00, 0.00, -0.00, -1.00, 127.2, 16.0)"> </text><text xml:space="preserve" font-family="GillSans" font-size="24.0" fill="#000000" transform="matrix(1.00, 0.00, -0.00, -1.00, 133.9, 16.0)">a</text><text xml:space="preserve" font-family="GillSans" font-size="24.0" fill="#000000" transform="matrix(1.00, 0.00, -0.00, -1.00, 144.1, 16.0)">m</text><text xml:space="preserve" font-family="GillSans" font-size="24.0" fill="#000000" transform="matrix(1.00, 0.00, -0.00, -1.00, 161.8, 16.0)">y</text><text xml:space="preserve" font-family="GillSans" font-size="24.0" fill="#000000" transform="matrix(1.00, 0.00, -0.00, -1.00, 172.3, 16.0)">l</text><text xml:space="preserve" font-family="GillSans" font-size="24.0" fill="#000000" transform="matrix(1.00, 0.00, -0.00, -1.00, 177.6, 16.0)">o</text><text xml:space="preserve" font-family="GillSans" font-size="24.0" fill="#000000" transform="matrix(1.00, 0.00, -0.00, -1.00, 190.8, 16.0)">s</text><text xml:space="preserve" font-family="GillSans" font-size="24.0" fill="#000000" transform="matrix(1.00, 0.00, -0.00, -1.00, 200.0, 16.0)">e</text><text xml:space="preserve" font-family="GillSans" font-size="24.0" fill="#000000" transform="matrix(1.00, 0.00, -0.00, -1.00, 211.5, 16.0)"> </text><text xml:space="preserve" font-family="GillSans" font-size="24.0" fill="#000000" transform="matrix(1.00, 0.00, -0.00, -1.00, 218.2, 16.0)">i</text><text xml:space="preserve" font-family="GillSans" font-size="24.0" fill="#000000" transform="matrix(1.00, 0.00, -0.00, -1.00, 223.4, 16.0)">n</text><text xml:space="preserve" font-family="GillSans" font-size="24.0" fill="#000000" transform="matrix(1.00, 0.00, -0.00, -1.00, 235.4, 16.0)"> </text><text xml:space="preserve" font-family="GillSans" font-size="24.0" fill="#000000" transform="matrix(1.00, 0.00, -0.00, -1.00, 242.1, 16.0)">m</text><text xml:space="preserve" font-family="GillSans" font-size="24.0" fill="#000000" transform="matrix(1.00, 0.00, -0.00, -1.00, 260.6, 16.0)">a</text><text xml:space="preserve" font-family="GillSans" font-size="24.0" fill="#000000" transform="matrix(1.00, 0.00, -0.00, -1.00, 270.9, 16.0)">n</text><text xml:space="preserve" font-family="GillSans" font-size="24.0" fill="#000000" transform="matrix(1.00, 0.00, -0.00, -1.00, 282.4, 16.0)">y</text><text xml:space="preserve" font-family="GillSans" font-size="24.0" fill="#000000" transform="matrix(1.00, 0.00, -0.00, -1.00, 292.9, 16.0)"> </text><text xml:space="preserve" font-family="GillSans" font-size="24.0" fill="#000000" transform="matrix(1.00, 0.00, -0.00, -1.00, 299.5, 16.0)">r</text><text xml:space="preserve" font-family="GillSans" font-size="24.0" fill="#000000" transform="matrix(1.00, 0.00, -0.00, -1.00, 309.1, 16.0)">i</text><text xml:space="preserve" font-family="GillSans" font-size="24.0" fill="#000000" transform="matrix(1.00, 0.00, -0.00, -1.00, 314.3, 16.0)">c</text><text xml:space="preserve" font-family="GillSans" font-size="24.0" fill="#000000" transform="matrix(1.00, 0.00, -0.00, -1.00, 324.8, 16.0)">e</text><text xml:space="preserve" font-family="GillSans" font-size="24.0" fill="#000000" transform="matrix(1.00, 0.00, -0.00, -1.00, 336.3, 16.0)"> </text><text xml:space="preserve" font-family="GillSans" font-size="24.0" fill="#000000" transform="matrix(1.00, 0.00, -0.00, -1.00, 343.0, 16.0)">v</text><text xml:space="preserve" font-family="GillSans" font-size="24.0" fill="#000000" transform="matrix(1.00, 0.00, -0.00, -1.00, 353.5, 16.0)">a</text><text xml:space="preserve" font-family="GillSans" font-size="24.0" fill="#000000" transform="matrix(1.00, 0.00, -0.00, -1.00, 363.7, 16.0)">r</text><text xml:space="preserve" font-family="GillSans" font-size="24.0" fill="#000000" transform="matrix(1.00, 0.00, -0.00, -1.00, 373.2, 16.0)">i</text><text xml:space="preserve" font-family="GillSans" font-size="24.0" fill="#000000" transform="matrix(1.00, 0.00, -0.00, -1.00, 378.5, 16.0)">e</text><text xml:space="preserve" font-family="GillSans" font-size="24.0" fill="#000000" transform="matrix(1.00, 0.00, -0.00, -1.00, 390.0, 16.0)">t</text><text xml:space="preserve" font-family="GillSans" font-size="24.0" fill="#000000" transform="matrix(1.00, 0.00, -0.00, -1.00, 398.0, 16.0)">i</text><text xml:space="preserve" font-family="GillSans" font-size="24.0" fill="#000000" transform="matrix(1.00, 0.00, -0.00, -1.00, 403.3, 16.0)">e</text><text xml:space="preserve" font-family="GillSans" font-size="24.0" fill="#000000" transform="matrix(1.00, 0.00, -0.00, -1.00, 414.8, 16.0)">s</text></g></svg>