<?xml version="1.0" encoding="UTF-8" standalone="no"?><svg xmlns="http://www.w3.org/2000/svg" xmlns:xlink="http://www.w3.org/1999/xlink" clip-rule="evenodd" stroke-miterlimit="4.00" viewBox="0 0 510 48"><desc>SVG generated by Keynote</desc><defs></defs><g transform="matrix(1.00, 0.00, -0.00, -1.00, 0.0, 48.0)"><text xml:space="preserve" font-family="GillSans" font-size="41.0" fill="#000000" transform="matrix(1.00, 0.00, -0.00, -1.00, 0.0, 10.0)">•</text><text xml:space="preserve" font-family="GillSans" font-size="24.0" fill="#000000" transform="matrix(1.00, 0.00, -0.00, -1.00, 45.0, 16.0)">S</text><text xml:space="preserve" font-family="GillSans" font-size="24.0" fill="#000000" transform="matrix(1.00, 0.00, -0.00, -1.00, 56.0, 16.0)">e</text><text xml:space="preserve" font-family="GillSans" font-size="24.0" fill="#000000" transform="matrix(1.00, 0.00, -0.00, -1.00, 67.5, 16.0)">p</text><text xml:space="preserve" font-family="GillSans" font-size="24.0" fill="#000000" transform="matrix(1.00, 0.00, -0.00, -1.00, 79.5, 16.0)">a</text><text xml:space="preserve" font-family="GillSans" font-size="24.0" fill="#000000" transform="matrix(1.00, 0.00, -0.00, -1.00, 89.7, 16.0)">r</text><text xml:space="preserve" font-family="GillSans" font-size="24.0" fill="#000000" transform="matrix(1.00, 0.00, -0.00, -1.00, 99.2, 16.0)">a</text><text xml:space="preserve" font-family="GillSans" font-size="24.0" fill="#000000" transform="matrix(1.00, 0.00, -0.00, -1.00, 109.5, 16.0)">t</text><text xml:space="preserve" font-family="GillSans" font-size="24.0" fill="#000000" transform="matrix(1.00, 0.00, -0.00, -1.00, 117.5, 16.0)">e</text><text xml:space="preserve" font-family="GillSans" font-size="24.0" fill="#000000" transform="matrix(1.00, 0.00, -0.00, -1.00, 129.0, 16.0)"> </text><text xml:space="preserve" font-family="GillSans" font-size="24.0" fill="#000000" transform="matrix(1.00, 0.00, -0.00, -1.00, 135.6, 16.0)">m</text><text xml:space="preserve" font-family="GillSans" font-size="24.0" fill="#000000" transform="matrix(1.00, 0.00, -0.00, -1.00, 154.1, 16.0)">e</text><text xml:space="preserve" font-family="GillSans" font-size="24.0" fill="#000000" transform="matrix(1.00, 0.00, -0.00, -1.00, 165.6, 16.0)">a</text><text xml:space="preserve" font-family="GillSans" font-size="24.0" fill="#000000" transform="matrix(1.00, 0.00, -0.00, -1.00, 175.9, 16.0)">s</text><text xml:space="preserve" font-family="GillSans" font-size="24.0" fill="#000000" transform="matrix(1.00, 0.00, -0.00, -1.00, 185.1, 16.0)">u</text><text xml:space="preserve" font-family="GillSans" font-size="24.0" fill="#000000" transform="matrix(1.00, 0.00, -0.00, -1.00, 197.1, 16.0)">r</text><text xml:space="preserve" font-family="GillSans" font-size="24.0" fill="#000000" transform="matrix(1.00, 0.00, -0.00, -1.00, 206.1, 16.0)">e</text><text xml:space="preserve" font-family="GillSans" font-size="24.0" fill="#000000" transform="matrix(1.00, 0.00, -0.00, -1.00, 217.6, 16.0)">m</text><text xml:space="preserve" font-family="GillSans" font-size="24.0" fill="#000000" transform="matrix(1.00, 0.00, -0.00, -1.00, 236.1, 16.0)">e</text><text xml:space="preserve" font-family="GillSans" font-size="24.0" fill="#000000" transform="matrix(1.00, 0.00, -0.00, -1.00, 247.6, 16.0)">n</text><text xml:space="preserve" font-family="GillSans" font-size="24.0" fill="#000000" transform="matrix(1.00, 0.00, -0.00, -1.00, 259.6, 16.0)">t</text><text xml:space="preserve" font-family="GillSans" font-size="24.0" fill="#000000" transform="matrix(1.00, 0.00, -0.00, -1.00, 267.6, 16.0)">s</text><text xml:space="preserve" font-family="GillSans" font-size="24.0" fill="#000000" transform="matrix(1.00, 0.00, -0.00, -1.00, 276.8, 16.0)"> </text><text xml:space="preserve" font-family="GillSans" font-size="24.0" fill="#000000" transform="matrix(1.00, 0.00, -0.00, -1.00, 283.5, 16.0)">a</text><text xml:space="preserve" font-family="GillSans" font-size="24.0" fill="#000000" transform="matrix(1.00, 0.00, -0.00, -1.00, 293.7, 16.0)">c</text><text xml:space="preserve" font-family="GillSans" font-size="24.0" fill="#000000" transform="matrix(1.00, 0.00, -0.00, -1.00, 304.2, 16.0)">c</text><text xml:space="preserve" font-family="GillSans" font-size="24.0" fill="#000000" transform="matrix(1.00, 0.00, -0.00, -1.00, 314.8, 16.0)">o</text><text xml:space="preserve" font-family="GillSans" font-size="24.0" fill="#000000" transform="matrix(1.00, 0.00, -0.00, -1.00, 328.0, 16.0)">r</text><text xml:space="preserve" font-family="GillSans" font-size="24.0" fill="#000000" transform="matrix(1.00, 0.00, -0.00, -1.00, 337.1, 16.0)">d</text><text xml:space="preserve" font-family="GillSans" font-size="24.0" fill="#000000" transform="matrix(1.00, 0.00, -0.00, -1.00, 349.4, 16.0)">i</text><text xml:space="preserve" font-family="GillSans" font-size="24.0" fill="#000000" transform="matrix(1.00, 0.00, -0.00, -1.00, 354.6, 16.0)">n</text><text xml:space="preserve" font-family="GillSans" font-size="24.0" fill="#000000" transform="matrix(1.00, 0.00, -0.00, -1.00, 366.6, 16.0)">g</text><text xml:space="preserve" font-family="GillSans" font-size="24.0" fill="#000000" transform="matrix(1.00, 0.00, -0.00, -1.00, 376.9, 16.0)"> </text><text xml:space="preserve" font-family="GillSans" font-size="24.0" fill="#000000" transform="matrix(1.00, 0.00, -0.00, -1.00, 383.5, 16.0)">t</text><text xml:space="preserve" font-family="GillSans" font-size="24.0" fill="#000000" transform="matrix(1.00, 0.00, -0.00, -1.00, 391.5, 16.0)">o</text><text xml:space="preserve" font-family="GillSans" font-size="24.0" fill="#000000" transform="matrix(1.00, 0.00, -0.00, -1.00, 404.8, 16.0)"> </text><text xml:space="preserve" font-family="GillSans" font-size="24.0" fill="#000000" transform="matrix(1.00, 0.00, -0.00, -1.00, 411.4, 16.0)">S</text><text xml:space="preserve" font-family="GillSans" font-size="24.0" fill="#000000" transform="matrix(1.00, 0.00, -0.00, -1.00, 422.4, 16.0)">N</text><text xml:space="preserve" font-family="GillSans" font-size="24.0" fill="#000000" transform="matrix(1.00, 0.00, -0.00, -1.00, 441.1, 16.0)">P</text><text xml:space="preserve" font-family="GillSans" font-size="24.0" fill="#000000" transform="matrix(1.00, 0.00, -0.00, -1.00, 453.4, 16.0)"> </text><text xml:space="preserve" font-family="GillSans" font-size="24.0" fill="#000000" transform="matrix(1.00, 0.00, -0.00, -1.00, 460.0, 16.0)">a</text><text xml:space="preserve" font-family="GillSans" font-size="24.0" fill="#000000" transform="matrix(1.00, 0.00, -0.00, -1.00, 470.3, 16.0)">l</text><text xml:space="preserve" font-family="GillSans" font-size="24.0" fill="#000000" transform="matrix(1.00, 0.00, -0.00, -1.00, 475.5, 16.0)">l</text><text xml:space="preserve" font-family="GillSans" font-size="24.0" fill="#000000" transform="matrix(1.00, 0.00, -0.00, -1.00, 480.8, 16.0)">e</text><text xml:space="preserve" font-family="GillSans" font-size="24.0" fill="#000000" transform="matrix(1.00, 0.00, -0.00, -1.00, 492.3, 16.0)">l</text><text xml:space="preserve" font-family="GillSans" font-size="24.0" fill="#000000" transform="matrix(1.00, 0.00, -0.00, -1.00, 497.6, 16.0)">e</text></g></svg>