<?xml version="1.0" encoding="UTF-8" standalone="no"?><svg xmlns="http://www.w3.org/2000/svg" xmlns:xlink="http://www.w3.org/1999/xlink" clip-rule="evenodd" stroke-miterlimit="4.00" viewBox="0 0 533 41"><desc>SVG generated by Keynote</desc><defs></defs><g transform="matrix(1.00, 0.00, -0.00, -1.00, 0.0, 41.0)"><text xml:space="preserve" font-family="GillSans" font-size="34.2" fill="#000000" transform="matrix(1.00, 0.00, -0.00, -1.00, 0.0, 8.9)">•</text><text xml:space="preserve" font-family="GillSans" font-size="20.0" fill="#000000" transform="matrix(1.00, 0.00, -0.00, -1.00, 22.0, 14.0)">C</text><text xml:space="preserve" font-family="GillSans" font-size="20.0" fill="#000000" transform="matrix(1.00, 0.00, -0.00, -1.00, 36.2, 14.0)">l</text><text xml:space="preserve" font-family="GillSans" font-size="20.0" fill="#000000" transform="matrix(1.00, 0.00, -0.00, -1.00, 40.5, 14.0)">i</text><text xml:space="preserve" font-family="GillSans" font-size="20.0" fill="#000000" transform="matrix(1.00, 0.00, -0.00, -1.00, 44.9, 14.0)">m</text><text xml:space="preserve" font-family="GillSans" font-size="20.0" fill="#000000" transform="matrix(1.00, 0.00, -0.00, -1.00, 60.4, 14.0)">a</text><text xml:space="preserve" font-family="GillSans" font-size="20.0" fill="#000000" transform="matrix(1.00, 0.00, -0.00, -1.00, 68.9, 14.0)">t</text><text xml:space="preserve" font-family="GillSans" font-size="20.0" fill="#000000" transform="matrix(1.00, 0.00, -0.00, -1.00, 75.5, 14.0)">e</text><text xml:space="preserve" font-family="GillSans" font-size="20.0" fill="#000000" transform="matrix(1.00, 0.00, -0.00, -1.00, 85.1, 14.0)"> </text><text xml:space="preserve" font-family="GillSans" font-size="20.0" fill="#000000" transform="matrix(1.00, 0.00, -0.00, -1.00, 90.7, 14.0)">c</text><text xml:space="preserve" font-family="GillSans" font-size="20.0" fill="#000000" transform="matrix(1.00, 0.00, -0.00, -1.00, 99.4, 14.0)">h</text><text xml:space="preserve" font-family="GillSans" font-size="20.0" fill="#000000" transform="matrix(1.00, 0.00, -0.00, -1.00, 109.4, 14.0)">a</text><text xml:space="preserve" font-family="GillSans" font-size="20.0" fill="#000000" transform="matrix(1.00, 0.00, -0.00, -1.00, 118.0, 14.0)">n</text><text xml:space="preserve" font-family="GillSans" font-size="20.0" fill="#000000" transform="matrix(1.00, 0.00, -0.00, -1.00, 128.0, 14.0)">g</text><text xml:space="preserve" font-family="GillSans" font-size="20.0" fill="#000000" transform="matrix(1.00, 0.00, -0.00, -1.00, 136.5, 14.0)">e</text><text xml:space="preserve" font-family="GillSans" font-size="20.0" fill="#000000" transform="matrix(1.00, 0.00, -0.00, -1.00, 146.1, 14.0)"> </text><text xml:space="preserve" font-family="GillSans" font-size="20.0" fill="#000000" transform="matrix(1.00, 0.00, -0.00, -1.00, 151.6, 14.0)">a</text><text xml:space="preserve" font-family="GillSans" font-size="20.0" fill="#000000" transform="matrix(1.00, 0.00, -0.00, -1.00, 160.2, 14.0)">n</text><text xml:space="preserve" font-family="GillSans" font-size="20.0" fill="#000000" transform="matrix(1.00, 0.00, -0.00, -1.00, 170.2, 14.0)">d</text><text xml:space="preserve" font-family="GillSans" font-size="20.0" fill="#000000" transform="matrix(1.00, 0.00, -0.00, -1.00, 180.4, 14.0)"> </text><text xml:space="preserve" font-family="GillSans" font-size="20.0" fill="#000000" transform="matrix(1.00, 0.00, -0.00, -1.00, 185.9, 14.0)">i</text><text xml:space="preserve" font-family="GillSans" font-size="20.0" fill="#000000" transform="matrix(1.00, 0.00, -0.00, -1.00, 190.3, 14.0)">n</text><text xml:space="preserve" font-family="GillSans" font-size="20.0" fill="#000000" transform="matrix(1.00, 0.00, -0.00, -1.00, 200.3, 14.0)">c</text><text xml:space="preserve" font-family="GillSans" font-size="20.0" fill="#000000" transform="matrix(1.00, 0.00, -0.00, -1.00, 209.1, 14.0)">r</text><text xml:space="preserve" font-family="GillSans" font-size="20.0" fill="#000000" transform="matrix(1.00, 0.00, -0.00, -1.00, 216.6, 14.0)">e</text><text xml:space="preserve" font-family="GillSans" font-size="20.0" fill="#000000" transform="matrix(1.00, 0.00, -0.00, -1.00, 226.2, 14.0)">a</text><text xml:space="preserve" font-family="GillSans" font-size="20.0" fill="#000000" transform="matrix(1.00, 0.00, -0.00, -1.00, 234.7, 14.0)">s</text><text xml:space="preserve" font-family="GillSans" font-size="20.0" fill="#000000" transform="matrix(1.00, 0.00, -0.00, -1.00, 242.4, 14.0)">i</text><text xml:space="preserve" font-family="GillSans" font-size="20.0" fill="#000000" transform="matrix(1.00, 0.00, -0.00, -1.00, 246.8, 14.0)">n</text><text xml:space="preserve" font-family="GillSans" font-size="20.0" fill="#000000" transform="matrix(1.00, 0.00, -0.00, -1.00, 256.8, 14.0)">g</text><text xml:space="preserve" font-family="GillSans" font-size="20.0" fill="#000000" transform="matrix(1.00, 0.00, -0.00, -1.00, 265.3, 14.0)"> </text><text xml:space="preserve" font-family="GillSans" font-size="20.0" fill="#000000" transform="matrix(1.00, 0.00, -0.00, -1.00, 270.9, 14.0)">u</text><text xml:space="preserve" font-family="GillSans" font-size="20.0" fill="#000000" transform="matrix(1.00, 0.00, -0.00, -1.00, 280.9, 14.0)">n</text><text xml:space="preserve" font-family="GillSans" font-size="20.0" fill="#000000" transform="matrix(1.00, 0.00, -0.00, -1.00, 290.9, 14.0)">p</text><text xml:space="preserve" font-family="GillSans" font-size="20.0" fill="#000000" transform="matrix(1.00, 0.00, -0.00, -1.00, 300.9, 14.0)">r</text><text xml:space="preserve" font-family="GillSans" font-size="20.0" fill="#000000" transform="matrix(1.00, 0.00, -0.00, -1.00, 308.4, 14.0)">e</text><text xml:space="preserve" font-family="GillSans" font-size="20.0" fill="#000000" transform="matrix(1.00, 0.00, -0.00, -1.00, 318.0, 14.0)">d</text><text xml:space="preserve" font-family="GillSans" font-size="20.0" fill="#000000" transform="matrix(1.00, 0.00, -0.00, -1.00, 328.1, 14.0)">i</text><text xml:space="preserve" font-family="GillSans" font-size="20.0" fill="#000000" transform="matrix(1.00, 0.00, -0.00, -1.00, 332.5, 14.0)">c</text><text xml:space="preserve" font-family="GillSans" font-size="20.0" fill="#000000" transform="matrix(1.00, 0.00, -0.00, -1.00, 341.3, 14.0)">t</text><text xml:space="preserve" font-family="GillSans" font-size="20.0" fill="#000000" transform="matrix(1.00, 0.00, -0.00, -1.00, 348.0, 14.0)">a</text><text xml:space="preserve" font-family="GillSans" font-size="20.0" fill="#000000" transform="matrix(1.00, 0.00, -0.00, -1.00, 356.5, 14.0)">b</text><text xml:space="preserve" font-family="GillSans" font-size="20.0" fill="#000000" transform="matrix(1.00, 0.00, -0.00, -1.00, 366.5, 14.0)">i</text><text xml:space="preserve" font-family="GillSans" font-size="20.0" fill="#000000" transform="matrix(1.00, 0.00, -0.00, -1.00, 370.9, 14.0)">l</text><text xml:space="preserve" font-family="GillSans" font-size="20.0" fill="#000000" transform="matrix(1.00, 0.00, -0.00, -1.00, 375.3, 14.0)">i</text><text xml:space="preserve" font-family="GillSans" font-size="20.0" fill="#000000" transform="matrix(1.00, 0.00, -0.00, -1.00, 379.7, 14.0)">t</text><text xml:space="preserve" font-family="GillSans" font-size="20.0" fill="#000000" transform="matrix(1.00, 0.00, -0.00, -1.00, 386.3, 14.0)">y</text><text xml:space="preserve" font-family="GillSans" font-size="20.0" fill="#000000" transform="matrix(1.00, 0.00, -0.00, -1.00, 395.1, 14.0)"> </text><text xml:space="preserve" font-family="GillSans" font-size="20.0" fill="#000000" transform="matrix(1.00, 0.00, -0.00, -1.00, 400.6, 14.0)">w</text><text xml:space="preserve" font-family="GillSans" font-size="20.0" fill="#000000" transform="matrix(1.00, 0.00, -0.00, -1.00, 415.0, 14.0)">i</text><text xml:space="preserve" font-family="GillSans" font-size="20.0" fill="#000000" transform="matrix(1.00, 0.00, -0.00, -1.00, 419.4, 14.0)">l</text><text xml:space="preserve" font-family="GillSans" font-size="20.0" fill="#000000" transform="matrix(1.00, 0.00, -0.00, -1.00, 423.8, 14.0)">l</text><text xml:space="preserve" font-family="GillSans" font-size="20.0" fill="#000000" transform="matrix(1.00, 0.00, -0.00, -1.00, 428.2, 14.0)"> </text><text xml:space="preserve" font-family="GillSans" font-size="20.0" fill="#000000" transform="matrix(1.00, 0.00, -0.00, -1.00, 433.7, 14.0)">r</text><text xml:space="preserve" font-family="GillSans" font-size="20.0" fill="#000000" transform="matrix(1.00, 0.00, -0.00, -1.00, 441.3, 14.0)">e</text><text xml:space="preserve" font-family="GillSans" font-size="20.0" fill="#000000" transform="matrix(1.00, 0.00, -0.00, -1.00, 450.8, 14.0)">d</text><text xml:space="preserve" font-family="GillSans" font-size="20.0" fill="#000000" transform="matrix(1.00, 0.00, -0.00, -1.00, 461.0, 14.0)">u</text><text xml:space="preserve" font-family="GillSans" font-size="20.0" fill="#000000" transform="matrix(1.00, 0.00, -0.00, -1.00, 471.0, 14.0)">c</text><text xml:space="preserve" font-family="GillSans" font-size="20.0" fill="#000000" transform="matrix(1.00, 0.00, -0.00, -1.00, 479.8, 14.0)">e</text><text xml:space="preserve" font-family="GillSans" font-size="20.0" fill="#000000" transform="matrix(1.00, 0.00, -0.00, -1.00, 489.4, 14.0)"> </text><text xml:space="preserve" font-family="GillSans" font-size="20.0" fill="#000000" transform="matrix(1.00, 0.00, -0.00, -1.00, 494.9, 14.0)">y</text><text xml:space="preserve" font-family="GillSans" font-size="20.0" fill="#000000" transform="matrix(1.00, 0.00, -0.00, -1.00, 503.7, 14.0)">i</text><text xml:space="preserve" font-family="GillSans" font-size="20.0" fill="#000000" transform="matrix(1.00, 0.00, -0.00, -1.00, 508.1, 14.0)">e</text><text xml:space="preserve" font-family="GillSans" font-size="20.0" fill="#000000" transform="matrix(1.00, 0.00, -0.00, -1.00, 517.6, 14.0)">l</text><text xml:space="preserve" font-family="GillSans" font-size="20.0" fill="#000000" transform="matrix(1.00, 0.00, -0.00, -1.00, 522.0, 14.0)">d</text></g></svg>