<?xml version="1.0" encoding="UTF-8" standalone="no"?><svg xmlns="http://www.w3.org/2000/svg" xmlns:xlink="http://www.w3.org/1999/xlink" clip-rule="evenodd" stroke-miterlimit="4.00" viewBox="0 0 219 37"><desc>SVG generated by Keynote</desc><defs></defs><g transform="matrix(1.00, 0.00, -0.00, -1.00, 0.0, 37.0)"><text xml:space="preserve" font-family="GillSans" font-size="30.8" fill="#000000" transform="matrix(1.00, 0.00, -0.00, -1.00, 0.0, 8.1)">•</text><text xml:space="preserve" font-family="GillSans" font-size="18.0" fill="#000000" transform="matrix(1.00, 0.00, -0.00, -1.00, 22.0, 12.0)">a</text><text xml:space="preserve" font-family="GillSans" font-size="18.0" fill="#000000" transform="matrix(1.00, 0.00, -0.00, -1.00, 29.7, 12.0)">r</text><text xml:space="preserve" font-family="GillSans" font-size="18.0" fill="#000000" transform="matrix(1.00, 0.00, -0.00, -1.00, 36.4, 12.0)">o</text><text xml:space="preserve" font-family="GillSans" font-size="18.0" fill="#000000" transform="matrix(1.00, 0.00, -0.00, -1.00, 46.3, 12.0)">m</text><text xml:space="preserve" font-family="GillSans" font-size="18.0" fill="#000000" transform="matrix(1.00, 0.00, -0.00, -1.00, 60.2, 12.0)">a</text><text xml:space="preserve" font-family="GillSans" font-size="18.0" fill="#000000" transform="matrix(1.00, 0.00, -0.00, -1.00, 67.8, 12.0)">t</text><text xml:space="preserve" font-family="GillSans" font-size="18.0" fill="#000000" transform="matrix(1.00, 0.00, -0.00, -1.00, 73.8, 12.0)">i</text><text xml:space="preserve" font-family="GillSans" font-size="18.0" fill="#000000" transform="matrix(1.00, 0.00, -0.00, -1.00, 77.8, 12.0)">c</text><text xml:space="preserve" font-family="GillSans" font-size="18.0" fill="#000000" transform="matrix(1.00, 0.00, -0.00, -1.00, 85.7, 12.0)"> </text><text xml:space="preserve" font-family="GillSans" font-size="18.0" fill="#000000" transform="matrix(1.00, 0.00, -0.00, -1.00, 90.7, 12.0)">(</text><text xml:space="preserve" font-family="GillSans" font-size="18.0" fill="#000000" transform="matrix(1.00, 0.00, -0.00, -1.00, 96.5, 12.0)">b</text><text xml:space="preserve" font-family="GillSans" font-size="18.0" fill="#000000" transform="matrix(1.00, 0.00, -0.00, -1.00, 105.5, 12.0)">a</text><text xml:space="preserve" font-family="GillSans" font-size="18.0" fill="#000000" transform="matrix(1.00, 0.00, -0.00, -1.00, 113.2, 12.0)">s</text><text xml:space="preserve" font-family="GillSans" font-size="18.0" fill="#000000" transform="matrix(1.00, 0.00, -0.00, -1.00, 120.1, 12.0)">m</text><text xml:space="preserve" font-family="GillSans" font-size="18.0" fill="#000000" transform="matrix(1.00, 0.00, -0.00, -1.00, 134.0, 12.0)">a</text><text xml:space="preserve" font-family="GillSans" font-size="18.0" fill="#000000" transform="matrix(1.00, 0.00, -0.00, -1.00, 141.6, 12.0)">t</text><text xml:space="preserve" font-family="GillSans" font-size="18.0" fill="#000000" transform="matrix(1.00, 0.00, -0.00, -1.00, 147.6, 12.0)">i</text><text xml:space="preserve" font-family="GillSans" font-size="18.0" fill="#000000" transform="matrix(1.00, 0.00, -0.00, -1.00, 151.6, 12.0)">,</text><text xml:space="preserve" font-family="GillSans" font-size="18.0" fill="#000000" transform="matrix(1.00, 0.00, -0.00, -1.00, 153.7, 12.0)"> </text><text xml:space="preserve" font-family="GillSans" font-size="18.0" fill="#000000" transform="matrix(1.00, 0.00, -0.00, -1.00, 158.7, 12.0)">j</text><text xml:space="preserve" font-family="GillSans" font-size="18.0" fill="#000000" transform="matrix(1.00, 0.00, -0.00, -1.00, 162.7, 12.0)">a</text><text xml:space="preserve" font-family="GillSans" font-size="18.0" fill="#000000" transform="matrix(1.00, 0.00, -0.00, -1.00, 170.4, 12.0)">s</text><text xml:space="preserve" font-family="GillSans" font-size="18.0" fill="#000000" transform="matrix(1.00, 0.00, -0.00, -1.00, 177.3, 12.0)">m</text><text xml:space="preserve" font-family="GillSans" font-size="18.0" fill="#000000" transform="matrix(1.00, 0.00, -0.00, -1.00, 191.2, 12.0)">i</text><text xml:space="preserve" font-family="GillSans" font-size="18.0" fill="#000000" transform="matrix(1.00, 0.00, -0.00, -1.00, 195.1, 12.0)">n</text><text xml:space="preserve" font-family="GillSans" font-size="18.0" fill="#000000" transform="matrix(1.00, 0.00, -0.00, -1.00, 204.1, 12.0)">e</text><text xml:space="preserve" font-family="GillSans" font-size="18.0" fill="#000000" transform="matrix(1.00, 0.00, -0.00, -1.00, 212.7, 12.0)">)</text></g></svg>