<?xml version="1.0" encoding="UTF-8" standalone="no"?><svg xmlns="http://www.w3.org/2000/svg" xmlns:xlink="http://www.w3.org/1999/xlink" clip-rule="evenodd" stroke-miterlimit="4.00" viewBox="0 0 331 39"><desc>SVG generated by Keynote</desc><defs></defs><g transform="matrix(1.00, 0.00, -0.00, -1.00, 0.0, 39.0)"><path d="M 1.6 37.5 L 329.6 37.5 L 329.6 1.5 L 1.6 1.5 Z M 1.6 37.5 " fill="#FFFFFF"></path><g><clipPath id="clip-5"><path d="M 1.6 1.5 L 329.6 1.5 L 329.6 37.5 L 1.6 37.5 Z M 1.6 1.5 "></path></clipPath><g clip-path="url(#clip-5)"><text xml:space="preserve" font-family="GillSans" font-size="12.0" fill="#000000" transform="matrix(1.00, 0.00, -0.00, -1.00, 111.0, 22.0)">S</text><text xml:space="preserve" font-family="GillSans" font-size="12.0" fill="#000000" transform="matrix(1.00, 0.00, -0.00, -1.00, 116.5, 22.0)">c</text><text xml:space="preserve" font-family="GillSans" font-size="12.0" fill="#000000" transform="matrix(1.00, 0.00, -0.00, -1.00, 121.8, 22.0)">i</text><text xml:space="preserve" font-family="GillSans" font-size="12.0" fill="#000000" transform="matrix(1.00, 0.00, -0.00, -1.00, 124.4, 22.0)">e</text><text xml:space="preserve" font-family="GillSans" font-size="12.0" fill="#000000" transform="matrix(1.00, 0.00, -0.00, -1.00, 130.1, 22.0)">n</text><text xml:space="preserve" font-family="GillSans" font-size="12.0" fill="#000000" transform="matrix(1.00, 0.00, -0.00, -1.00, 136.1, 22.0)">c</text><text xml:space="preserve" font-family="GillSans" font-size="12.0" fill="#000000" transform="matrix(1.00, 0.00, -0.00, -1.00, 141.4, 22.0)">e</text><text xml:space="preserve" font-family="GillSans" font-size="12.0" fill="#000000" transform="matrix(1.00, 0.00, -0.00, -1.00, 147.1, 22.0)"> </text><text xml:space="preserve" font-family="GillSans" font-size="12.0" fill="#000000" transform="matrix(1.00, 0.00, -0.00, -1.00, 150.5, 22.0)">D</text><text xml:space="preserve" font-family="GillSans" font-size="12.0" fill="#000000" transform="matrix(1.00, 0.00, -0.00, -1.00, 159.5, 22.0)">a</text><text xml:space="preserve" font-family="GillSans" font-size="12.0" fill="#000000" transform="matrix(1.00, 0.00, -0.00, -1.00, 164.6, 22.0)">i</text><text xml:space="preserve" font-family="GillSans" font-size="12.0" fill="#000000" transform="matrix(1.00, 0.00, -0.00, -1.00, 167.2, 22.0)">l</text><text xml:space="preserve" font-family="GillSans" font-size="12.0" fill="#000000" transform="matrix(1.00, 0.00, -0.00, -1.00, 169.7, 22.0)">y</text><text xml:space="preserve" font-family="GillSans" font-size="12.0" fill="#000000" transform="matrix(1.00, 0.00, -0.00, -1.00, 175.0, 22.0)"> </text><text xml:space="preserve" font-family="GillSans" font-size="12.0" fill="#000000" transform="matrix(1.00, 0.00, -0.00, -1.00, 178.3, 22.0)">a</text><text xml:space="preserve" font-family="GillSans" font-size="12.0" fill="#000000" transform="matrix(1.00, 0.00, -0.00, -1.00, 183.4, 22.0)">n</text><text xml:space="preserve" font-family="GillSans" font-size="12.0" fill="#000000" transform="matrix(1.00, 0.00, -0.00, -1.00, 189.4, 22.0)">d</text><text xml:space="preserve" font-family="GillSans" font-size="12.0" fill="#000000" transform="matrix(1.00, 0.00, -0.00, -1.00, 195.6, 22.0)"> </text><text xml:space="preserve" font-family="GillSans" font-size="12.0" fill="#000000" transform="matrix(1.00, 0.00, -0.00, -1.00, 198.9, 22.0)">I</text><text xml:space="preserve" font-family="GillSans" font-size="12.0" fill="#000000" transform="matrix(1.00, 0.00, -0.00, -1.00, 201.9, 22.0)">R</text><text xml:space="preserve" font-family="GillSans" font-size="12.0" fill="#000000" transform="matrix(1.00, 0.00, -0.00, -1.00, 209.1, 22.0)">R</text><text xml:space="preserve" font-family="GillSans" font-size="12.0" fill="#000000" transform="matrix(1.00, 0.00, -0.00, -1.00, 216.4, 22.0)">I</text><text xml:space="preserve" font-family="GillSans" font-size="12.0" fill="#000000" transform="matrix(1.00, 0.00, -0.00, -1.00, 6.0, 8.0)">h</text><text xml:space="preserve" font-family="GillSans" font-size="12.0" fill="#000000" transform="matrix(1.00, 0.00, -0.00, -1.00, 12.0, 8.0)">t</text><text xml:space="preserve" font-family="GillSans" font-size="12.0" fill="#000000" transform="matrix(1.00, 0.00, -0.00, -1.00, 16.0, 8.0)">t</text><text xml:space="preserve" font-family="GillSans" font-size="12.0" fill="#000000" transform="matrix(1.00, 0.00, -0.00, -1.00, 20.0, 8.0)">p</text><text xml:space="preserve" font-family="GillSans" font-size="12.0" fill="#000000" transform="matrix(1.00, 0.00, -0.00, -1.00, 26.0, 8.0)">:</text><text xml:space="preserve" font-family="GillSans" font-size="12.0" fill="#000000" transform="matrix(1.00, 0.00, -0.00, -1.00, 28.6, 8.0)">/</text><text xml:space="preserve" font-family="GillSans" font-size="12.0" fill="#000000" transform="matrix(1.00, 0.00, -0.00, -1.00, 32.0, 8.0)">/</text><text xml:space="preserve" font-family="GillSans" font-size="12.0" fill="#000000" transform="matrix(1.00, 0.00, -0.00, -1.00, 35.4, 8.0)">w</text><text xml:space="preserve" font-family="GillSans" font-size="12.0" fill="#000000" transform="matrix(1.00, 0.00, -0.00, -1.00, 44.0, 8.0)">w</text><text xml:space="preserve" font-family="GillSans" font-size="12.0" fill="#000000" transform="matrix(1.00, 0.00, -0.00, -1.00, 52.6, 8.0)">w</text><text xml:space="preserve" font-family="GillSans" font-size="12.0" fill="#000000" transform="matrix(1.00, 0.00, -0.00, -1.00, 60.5, 8.0)">.</text><text xml:space="preserve" font-family="GillSans" font-size="12.0" fill="#000000" transform="matrix(1.00, 0.00, -0.00, -1.00, 63.2, 8.0)">s</text><text xml:space="preserve" font-family="GillSans" font-size="12.0" fill="#000000" transform="matrix(1.00, 0.00, -0.00, -1.00, 67.8, 8.0)">c</text><text xml:space="preserve" font-family="GillSans" font-size="12.0" fill="#000000" transform="matrix(1.00, 0.00, -0.00, -1.00, 73.0, 8.0)">i</text><text xml:space="preserve" font-family="GillSans" font-size="12.0" fill="#000000" transform="matrix(1.00, 0.00, -0.00, -1.00, 75.7, 8.0)">e</text><text xml:space="preserve" font-family="GillSans" font-size="12.0" fill="#000000" transform="matrix(1.00, 0.00, -0.00, -1.00, 81.4, 8.0)">n</text><text xml:space="preserve" font-family="GillSans" font-size="12.0" fill="#000000" transform="matrix(1.00, 0.00, -0.00, -1.00, 87.4, 8.0)">c</text><text xml:space="preserve" font-family="GillSans" font-size="12.0" fill="#000000" transform="matrix(1.00, 0.00, -0.00, -1.00, 92.7, 8.0)">e</text><text xml:space="preserve" font-family="GillSans" font-size="12.0" fill="#000000" transform="matrix(1.00, 0.00, -0.00, -1.00, 98.4, 8.0)">d</text><text xml:space="preserve" font-family="GillSans" font-size="12.0" fill="#000000" transform="matrix(1.00, 0.00, -0.00, -1.00, 104.5, 8.0)">a</text><text xml:space="preserve" font-family="GillSans" font-size="12.0" fill="#000000" transform="matrix(1.00, 0.00, -0.00, -1.00, 109.7, 8.0)">i</text><text xml:space="preserve" font-family="GillSans" font-size="12.0" fill="#000000" transform="matrix(1.00, 0.00, -0.00, -1.00, 112.3, 8.0)">l</text><text xml:space="preserve" font-family="GillSans" font-size="12.0" fill="#000000" transform="matrix(1.00, 0.00, -0.00, -1.00, 114.8, 8.0)">y</text><text xml:space="preserve" font-family="GillSans" font-size="12.0" fill="#000000" transform="matrix(1.00, 0.00, -0.00, -1.00, 119.1, 8.0)">.</text><text xml:space="preserve" font-family="GillSans" font-size="12.0" fill="#000000" transform="matrix(1.00, 0.00, -0.00, -1.00, 121.7, 8.0)">c</text><text xml:space="preserve" font-family="GillSans" font-size="12.0" fill="#000000" transform="matrix(1.00, 0.00, -0.00, -1.00, 127.0, 8.0)">o</text><text xml:space="preserve" font-family="GillSans" font-size="12.0" fill="#000000" transform="matrix(1.00, 0.00, -0.00, -1.00, 133.6, 8.0)">m</text><text xml:space="preserve" font-family="GillSans" font-size="12.0" fill="#000000" transform="matrix(1.00, 0.00, -0.00, -1.00, 142.9, 8.0)">/</text><text xml:space="preserve" font-family="GillSans" font-size="12.0" fill="#000000" transform="matrix(1.00, 0.00, -0.00, -1.00, 146.2, 8.0)">r</text><text xml:space="preserve" font-family="GillSans" font-size="12.0" fill="#000000" transform="matrix(1.00, 0.00, -0.00, -1.00, 150.7, 8.0)">e</text><text xml:space="preserve" font-family="GillSans" font-size="12.0" fill="#000000" transform="matrix(1.00, 0.00, -0.00, -1.00, 156.5, 8.0)">l</text><text xml:space="preserve" font-family="GillSans" font-size="12.0" fill="#000000" transform="matrix(1.00, 0.00, -0.00, -1.00, 159.1, 8.0)">e</text><text xml:space="preserve" font-family="GillSans" font-size="12.0" fill="#000000" transform="matrix(1.00, 0.00, -0.00, -1.00, 164.9, 8.0)">a</text><text xml:space="preserve" font-family="GillSans" font-size="12.0" fill="#000000" transform="matrix(1.00, 0.00, -0.00, -1.00, 170.0, 8.0)">s</text><text xml:space="preserve" font-family="GillSans" font-size="12.0" fill="#000000" transform="matrix(1.00, 0.00, -0.00, -1.00, 174.6, 8.0)">e</text><text xml:space="preserve" font-family="GillSans" font-size="12.0" fill="#000000" transform="matrix(1.00, 0.00, -0.00, -1.00, 180.4, 8.0)">s</text><text xml:space="preserve" font-family="GillSans" font-size="12.0" fill="#000000" transform="matrix(1.00, 0.00, -0.00, -1.00, 185.0, 8.0)">/</text><text xml:space="preserve" font-family="GillSans" font-size="12.0" fill="#000000" transform="matrix(1.00, 0.00, -0.00, -1.00, 188.3, 8.0)">2</text><text xml:space="preserve" font-family="GillSans" font-size="12.0" fill="#000000" transform="matrix(1.00, 0.00, -0.00, -1.00, 194.3, 8.0)">0</text><text xml:space="preserve" font-family="GillSans" font-size="12.0" fill="#000000" transform="matrix(1.00, 0.00, -0.00, -1.00, 200.3, 8.0)">0</text><text xml:space="preserve" font-family="GillSans" font-size="12.0" fill="#000000" transform="matrix(1.00, 0.00, -0.00, -1.00, 206.3, 8.0)">9</text><text xml:space="preserve" font-family="GillSans" font-size="12.0" fill="#000000" transform="matrix(1.00, 0.00, -0.00, -1.00, 212.3, 8.0)">/</text><text xml:space="preserve" font-family="GillSans" font-size="12.0" fill="#000000" transform="matrix(1.00, 0.00, -0.00, -1.00, 215.7, 8.0)">0</text><text xml:space="preserve" font-family="GillSans" font-size="12.0" fill="#000000" transform="matrix(1.00, 0.00, -0.00, -1.00, 221.7, 8.0)">7</text><text xml:space="preserve" font-family="GillSans" font-size="12.0" fill="#000000" transform="matrix(1.00, 0.00, -0.00, -1.00, 227.7, 8.0)">/</text><text xml:space="preserve" font-family="GillSans" font-size="12.0" fill="#000000" transform="matrix(1.00, 0.00, -0.00, -1.00, 231.1, 8.0)">0</text><text xml:space="preserve" font-family="GillSans" font-size="12.0" fill="#000000" transform="matrix(1.00, 0.00, -0.00, -1.00, 237.1, 8.0)">9</text><text xml:space="preserve" font-family="GillSans" font-size="12.0" fill="#000000" transform="matrix(1.00, 0.00, -0.00, -1.00, 243.1, 8.0)">0</text><text xml:space="preserve" font-family="GillSans" font-size="12.0" fill="#000000" transform="matrix(1.00, 0.00, -0.00, -1.00, 249.1, 8.0)">7</text><text xml:space="preserve" font-family="GillSans" font-size="12.0" fill="#000000" transform="matrix(1.00, 0.00, -0.00, -1.00, 255.1, 8.0)">2</text><text xml:space="preserve" font-family="GillSans" font-size="12.0" fill="#000000" transform="matrix(1.00, 0.00, -0.00, -1.00, 261.1, 8.0)">3</text><text xml:space="preserve" font-family="GillSans" font-size="12.0" fill="#000000" transform="matrix(1.00, 0.00, -0.00, -1.00, 267.1, 8.0)">1</text><text xml:space="preserve" font-family="GillSans" font-size="12.0" fill="#000000" transform="matrix(1.00, 0.00, -0.00, -1.00, 273.1, 8.0)">1</text><text xml:space="preserve" font-family="GillSans" font-size="12.0" fill="#000000" transform="matrix(1.00, 0.00, -0.00, -1.00, 279.1, 8.0)">3</text><text xml:space="preserve" font-family="GillSans" font-size="12.0" fill="#000000" transform="matrix(1.00, 0.00, -0.00, -1.00, 285.1, 8.0)">5</text><text xml:space="preserve" font-family="GillSans" font-size="12.0" fill="#000000" transform="matrix(1.00, 0.00, -0.00, -1.00, 291.1, 8.0)">1</text><text xml:space="preserve" font-family="GillSans" font-size="12.0" fill="#000000" transform="matrix(1.00, 0.00, -0.00, -1.00, 297.1, 8.0)">2</text><text xml:space="preserve" font-family="GillSans" font-size="12.0" fill="#000000" transform="matrix(1.00, 0.00, -0.00, -1.00, 303.1, 8.0)">.</text><text xml:space="preserve" font-family="GillSans" font-size="12.0" fill="#000000" transform="matrix(1.00, 0.00, -0.00, -1.00, 305.7, 8.0)">h</text><text xml:space="preserve" font-family="GillSans" font-size="12.0" fill="#000000" transform="matrix(1.00, 0.00, -0.00, -1.00, 311.7, 8.0)">t</text><text xml:space="preserve" font-family="GillSans" font-size="12.0" fill="#000000" transform="matrix(1.00, 0.00, -0.00, -1.00, 315.7, 8.0)">m</text><path d="M 4.5 30.2 L 323.5 30.2 " fill="none" stroke="#000000" stroke-width="0.60" stroke-miterlimit="0.00" transform="matrix(1.00, 0.00, 0.00, -1.00, 1.6, 37.5)"></path></g></g></g></svg>