<?xml version="1.0" encoding="UTF-8" standalone="no"?><svg xmlns="http://www.w3.org/2000/svg" xmlns:xlink="http://www.w3.org/1999/xlink" clip-rule="evenodd" stroke-miterlimit="4.00" viewBox="0 0 1024 768"><desc>SVG generated by Keynote</desc><defs></defs><g transform="matrix(1.00, 0.00, -0.00, -1.00, 0.0, 768.0)"><path d="M 0.0 768.0 L 1024.0 768.0 L 1024.0 0.0 L 0.0 0.0 Z M 0.0 768.0 " fill="#FFFFFF"></path><text xml:space="preserve" font-family="GillSans" font-size="24.0" fill="#000000" transform="matrix(1.00, 0.00, -0.00, -1.00, 244.0, 729.0)">P</text><text xml:space="preserve" font-family="GillSans" font-size="24.0" fill="#000000" transform="matrix(1.00, 0.00, -0.00, -1.00, 255.6, 729.0)">o</text><text xml:space="preserve" font-family="GillSans" font-size="24.0" fill="#000000" transform="matrix(1.00, 0.00, -0.00, -1.00, 268.9, 729.0)">p</text><text xml:space="preserve" font-family="GillSans" font-size="24.0" fill="#000000" transform="matrix(1.00, 0.00, -0.00, -1.00, 280.9, 729.0)">u</text><text xml:space="preserve" font-family="GillSans" font-size="24.0" fill="#000000" transform="matrix(1.00, 0.00, -0.00, -1.00, 292.9, 729.0)">l</text><text xml:space="preserve" font-family="GillSans" font-size="24.0" fill="#000000" transform="matrix(1.00, 0.00, -0.00, -1.00, 298.1, 729.0)">a</text><text xml:space="preserve" font-family="GillSans" font-size="24.0" fill="#000000" transform="matrix(1.00, 0.00, -0.00, -1.00, 308.4, 729.0)">t</text><text xml:space="preserve" font-family="GillSans" font-size="24.0" fill="#000000" transform="matrix(1.00, 0.00, -0.00, -1.00, 316.4, 729.0)">i</text><text xml:space="preserve" font-family="GillSans" font-size="24.0" fill="#000000" transform="matrix(1.00, 0.00, -0.00, -1.00, 321.6, 729.0)">o</text><text xml:space="preserve" font-family="GillSans" font-size="24.0" fill="#000000" transform="matrix(1.00, 0.00, -0.00, -1.00, 334.9, 729.0)">n</text><text xml:space="preserve" font-family="GillSans" font-size="24.0" fill="#000000" transform="matrix(1.00, 0.00, -0.00, -1.00, 346.9, 729.0)"> </text><text xml:space="preserve" font-family="GillSans" font-size="24.0" fill="#000000" transform="matrix(1.00, 0.00, -0.00, -1.00, 353.5, 729.0)">S</text><text xml:space="preserve" font-family="GillSans" font-size="24.0" fill="#000000" transform="matrix(1.00, 0.00, -0.00, -1.00, 364.5, 729.0)">t</text><text xml:space="preserve" font-family="GillSans" font-size="24.0" fill="#000000" transform="matrix(1.00, 0.00, -0.00, -1.00, 372.5, 729.0)">r</text><text xml:space="preserve" font-family="GillSans" font-size="24.0" fill="#000000" transform="matrix(1.00, 0.00, -0.00, -1.00, 382.0, 729.0)">u</text><text xml:space="preserve" font-family="GillSans" font-size="24.0" fill="#000000" transform="matrix(1.00, 0.00, -0.00, -1.00, 394.0, 729.0)">c</text><text xml:space="preserve" font-family="GillSans" font-size="24.0" fill="#000000" transform="matrix(1.00, 0.00, -0.00, -1.00, 404.5, 729.0)">t</text><text xml:space="preserve" font-family="GillSans" font-size="24.0" fill="#000000" transform="matrix(1.00, 0.00, -0.00, -1.00, 412.5, 729.0)">u</text><text xml:space="preserve" font-family="GillSans" font-size="24.0" fill="#000000" transform="matrix(1.00, 0.00, -0.00, -1.00, 424.5, 729.0)">r</text><text xml:space="preserve" font-family="GillSans" font-size="24.0" fill="#000000" transform="matrix(1.00, 0.00, -0.00, -1.00, 433.5, 729.0)">e</text><text xml:space="preserve" font-family="GillSans" font-size="24.0" fill="#000000" transform="matrix(1.00, 0.00, -0.00, -1.00, 445.0, 729.0)"> </text><text xml:space="preserve" font-family="GillSans" font-size="24.0" fill="#000000" transform="matrix(1.00, 0.00, -0.00, -1.00, 451.7, 729.0)">c</text><text xml:space="preserve" font-family="GillSans" font-size="24.0" fill="#000000" transform="matrix(1.00, 0.00, -0.00, -1.00, 462.2, 729.0)">a</text><text xml:space="preserve" font-family="GillSans" font-size="24.0" fill="#000000" transform="matrix(1.00, 0.00, -0.00, -1.00, 472.5, 729.0)">n</text><text xml:space="preserve" font-family="GillSans" font-size="24.0" fill="#000000" transform="matrix(1.00, 0.00, -0.00, -1.00, 484.5, 729.0)"> </text><text xml:space="preserve" font-family="GillSans" font-size="24.0" fill="#000000" transform="matrix(1.00, 0.00, -0.00, -1.00, 491.1, 729.0)">p</text><text xml:space="preserve" font-family="GillSans" font-size="24.0" fill="#000000" transform="matrix(1.00, 0.00, -0.00, -1.00, 503.1, 729.0)">r</text><text xml:space="preserve" font-family="GillSans" font-size="24.0" fill="#000000" transform="matrix(1.00, 0.00, -0.00, -1.00, 512.1, 729.0)">e</text><text xml:space="preserve" font-family="GillSans" font-size="24.0" fill="#000000" transform="matrix(1.00, 0.00, -0.00, -1.00, 523.6, 729.0)">s</text><text xml:space="preserve" font-family="GillSans" font-size="24.0" fill="#000000" transform="matrix(1.00, 0.00, -0.00, -1.00, 532.9, 729.0)">e</text><text xml:space="preserve" font-family="GillSans" font-size="24.0" fill="#000000" transform="matrix(1.00, 0.00, -0.00, -1.00, 544.4, 729.0)">n</text><text xml:space="preserve" font-family="GillSans" font-size="24.0" fill="#000000" transform="matrix(1.00, 0.00, -0.00, -1.00, 556.4, 729.0)">t</text><text xml:space="preserve" font-family="GillSans" font-size="24.0" fill="#000000" transform="matrix(1.00, 0.00, -0.00, -1.00, 564.4, 729.0)"> </text><text xml:space="preserve" font-family="GillSans" font-size="24.0" fill="#000000" transform="matrix(1.00, 0.00, -0.00, -1.00, 571.0, 729.0)">a</text><text xml:space="preserve" font-family="GillSans" font-size="24.0" fill="#000000" transform="matrix(1.00, 0.00, -0.00, -1.00, 581.3, 729.0)"> </text><text xml:space="preserve" font-family="GillSans" font-size="24.0" fill="#000000" transform="matrix(1.00, 0.00, -0.00, -1.00, 587.9, 729.0)">p</text><text xml:space="preserve" font-family="GillSans" font-size="24.0" fill="#000000" transform="matrix(1.00, 0.00, -0.00, -1.00, 599.9, 729.0)">r</text><text xml:space="preserve" font-family="GillSans" font-size="24.0" fill="#000000" transform="matrix(1.00, 0.00, -0.00, -1.00, 608.8, 729.0)">o</text><text xml:space="preserve" font-family="GillSans" font-size="24.0" fill="#000000" transform="matrix(1.00, 0.00, -0.00, -1.00, 622.1, 729.0)">b</text><text xml:space="preserve" font-family="GillSans" font-size="24.0" fill="#000000" transform="matrix(1.00, 0.00, -0.00, -1.00, 634.1, 729.0)">l</text><text xml:space="preserve" font-family="GillSans" font-size="24.0" fill="#000000" transform="matrix(1.00, 0.00, -0.00, -1.00, 639.3, 729.0)">e</text><text xml:space="preserve" font-family="GillSans" font-size="24.0" fill="#000000" transform="matrix(1.00, 0.00, -0.00, -1.00, 650.8, 729.0)">m</text><text xml:space="preserve" font-family="GillSans" font-size="24.0" fill="#000000" transform="matrix(1.00, 0.00, -0.00, -1.00, 669.3, 729.0)"> </text><text xml:space="preserve" font-family="GillSans" font-size="24.0" fill="#000000" transform="matrix(1.00, 0.00, -0.00, -1.00, 676.0, 729.0)">f</text><text xml:space="preserve" font-family="GillSans" font-size="24.0" fill="#000000" transform="matrix(1.00, 0.00, -0.00, -1.00, 681.8, 729.0)">o</text><text xml:space="preserve" font-family="GillSans" font-size="24.0" fill="#000000" transform="matrix(1.00, 0.00, -0.00, -1.00, 695.0, 729.0)">r</text><text xml:space="preserve" font-family="GillSans" font-size="24.0" fill="#000000" transform="matrix(1.00, 0.00, -0.00, -1.00, 704.5, 729.0)"> </text><text xml:space="preserve" font-family="GillSans" font-size="24.0" fill="#000000" transform="matrix(1.00, 0.00, -0.00, -1.00, 711.2, 729.0)">G</text><text xml:space="preserve" font-family="GillSans" font-size="24.0" fill="#000000" transform="matrix(1.00, 0.00, -0.00, -1.00, 728.9, 729.0)">W</text><text xml:space="preserve" font-family="GillSans" font-size="24.0" fill="#000000" transform="matrix(1.00, 0.00, -0.00, -1.00, 752.0, 729.0)">A</text><text xml:space="preserve" font-family="GillSans" font-size="24.0" fill="#000000" transform="matrix(1.00, 0.00, -0.00, -1.00, 768.0, 729.0)">S</text><text xml:space="preserve" font-family="GillSans" font-size="41.0" fill="#000000" transform="matrix(1.00, 0.00, -0.00, -1.00, 49.0, 666.0)">•</text><text xml:space="preserve" font-family="GillSans" font-size="24.0" fill="#000000" transform="matrix(1.00, 0.00, -0.00, -1.00, 94.0, 672.0)">W</text><text xml:space="preserve" font-family="GillSans" font-size="24.0" fill="#000000" transform="matrix(1.00, 0.00, -0.00, -1.00, 119.0, 672.0)">h</text><text xml:space="preserve" font-family="GillSans" font-size="24.0" fill="#000000" transform="matrix(1.00, 0.00, -0.00, -1.00, 131.0, 672.0)">a</text><text xml:space="preserve" font-family="GillSans" font-size="24.0" fill="#000000" transform="matrix(1.00, 0.00, -0.00, -1.00, 141.2, 672.0)">t</text><text xml:space="preserve" font-family="GillSans" font-size="24.0" fill="#000000" transform="matrix(1.00, 0.00, -0.00, -1.00, 149.2, 672.0)"> </text><text xml:space="preserve" font-family="GillSans" font-size="24.0" fill="#000000" transform="matrix(1.00, 0.00, -0.00, -1.00, 155.9, 672.0)">i</text><text xml:space="preserve" font-family="GillSans" font-size="24.0" fill="#000000" transform="matrix(1.00, 0.00, -0.00, -1.00, 161.2, 672.0)">s</text><text xml:space="preserve" font-family="GillSans" font-size="24.0" fill="#000000" transform="matrix(1.00, 0.00, -0.00, -1.00, 170.4, 672.0)"> </text><text xml:space="preserve" font-family="GillSans" font-size="24.0" fill="#000000" transform="matrix(1.00, 0.00, -0.00, -1.00, 177.1, 672.0)">t</text><text xml:space="preserve" font-family="GillSans" font-size="24.0" fill="#000000" transform="matrix(1.00, 0.00, -0.00, -1.00, 185.1, 672.0)">h</text><text xml:space="preserve" font-family="GillSans" font-size="24.0" fill="#000000" transform="matrix(1.00, 0.00, -0.00, -1.00, 197.1, 672.0)">e</text><text xml:space="preserve" font-family="GillSans" font-size="24.0" fill="#000000" transform="matrix(1.00, 0.00, -0.00, -1.00, 208.5, 672.0)"> </text><text xml:space="preserve" font-family="GillSans" font-size="24.0" fill="#000000" transform="matrix(1.00, 0.00, -0.00, -1.00, 215.2, 672.0)">p</text><text xml:space="preserve" font-family="GillSans" font-size="24.0" fill="#000000" transform="matrix(1.00, 0.00, -0.00, -1.00, 227.2, 672.0)">o</text><text xml:space="preserve" font-family="GillSans" font-size="24.0" fill="#000000" transform="matrix(1.00, 0.00, -0.00, -1.00, 240.4, 672.0)">t</text><text xml:space="preserve" font-family="GillSans" font-size="24.0" fill="#000000" transform="matrix(1.00, 0.00, -0.00, -1.00, 248.4, 672.0)">e</text><text xml:space="preserve" font-family="GillSans" font-size="24.0" fill="#000000" transform="matrix(1.00, 0.00, -0.00, -1.00, 259.9, 672.0)">n</text><text xml:space="preserve" font-family="GillSans" font-size="24.0" fill="#000000" transform="matrix(1.00, 0.00, -0.00, -1.00, 271.9, 672.0)">t</text><text xml:space="preserve" font-family="GillSans" font-size="24.0" fill="#000000" transform="matrix(1.00, 0.00, -0.00, -1.00, 279.9, 672.0)">i</text><text xml:space="preserve" font-family="GillSans" font-size="24.0" fill="#000000" transform="matrix(1.00, 0.00, -0.00, -1.00, 285.2, 672.0)">a</text><text xml:space="preserve" font-family="GillSans" font-size="24.0" fill="#000000" transform="matrix(1.00, 0.00, -0.00, -1.00, 295.4, 672.0)">l</text><text xml:space="preserve" font-family="GillSans" font-size="24.0" fill="#000000" transform="matrix(1.00, 0.00, -0.00, -1.00, 300.7, 672.0)"> </text><text xml:space="preserve" font-family="GillSans" font-size="24.0" fill="#000000" transform="matrix(1.00, 0.00, -0.00, -1.00, 307.4, 672.0)">p</text><text xml:space="preserve" font-family="GillSans" font-size="24.0" fill="#000000" transform="matrix(1.00, 0.00, -0.00, -1.00, 319.4, 672.0)">r</text><text xml:space="preserve" font-family="GillSans" font-size="24.0" fill="#000000" transform="matrix(1.00, 0.00, -0.00, -1.00, 328.3, 672.0)">o</text><text xml:space="preserve" font-family="GillSans" font-size="24.0" fill="#000000" transform="matrix(1.00, 0.00, -0.00, -1.00, 341.5, 672.0)">b</text><text xml:space="preserve" font-family="GillSans" font-size="24.0" fill="#000000" transform="matrix(1.00, 0.00, -0.00, -1.00, 353.5, 672.0)">l</text><text xml:space="preserve" font-family="GillSans" font-size="24.0" fill="#000000" transform="matrix(1.00, 0.00, -0.00, -1.00, 358.8, 672.0)">e</text><text xml:space="preserve" font-family="GillSans" font-size="24.0" fill="#000000" transform="matrix(1.00, 0.00, -0.00, -1.00, 370.3, 672.0)">m</text><text xml:space="preserve" font-family="GillSans" font-size="24.0" fill="#000000" transform="matrix(1.00, 0.00, -0.00, -1.00, 388.8, 672.0)"> </text><text xml:space="preserve" font-family="GillSans" font-size="24.0" fill="#000000" transform="matrix(1.00, 0.00, -0.00, -1.00, 395.4, 672.0)">w</text><text xml:space="preserve" font-family="GillSans" font-size="24.0" fill="#000000" transform="matrix(1.00, 0.00, -0.00, -1.00, 412.7, 672.0)">i</text><text xml:space="preserve" font-family="GillSans" font-size="24.0" fill="#000000" transform="matrix(1.00, 0.00, -0.00, -1.00, 418.0, 672.0)">t</text><text xml:space="preserve" font-family="GillSans" font-size="24.0" fill="#000000" transform="matrix(1.00, 0.00, -0.00, -1.00, 426.0, 672.0)">h</text><text xml:space="preserve" font-family="GillSans" font-size="24.0" fill="#000000" transform="matrix(1.00, 0.00, -0.00, -1.00, 438.0, 672.0)"> </text><text xml:space="preserve" font-family="GillSans" font-size="24.0" fill="#000000" transform="matrix(1.00, 0.00, -0.00, -1.00, 444.6, 672.0)">a</text><text xml:space="preserve" font-family="GillSans" font-size="24.0" fill="#000000" transform="matrix(1.00, 0.00, -0.00, -1.00, 454.9, 672.0)"> </text><text xml:space="preserve" font-family="GillSans" font-size="24.0" fill="#000000" transform="matrix(1.00, 0.00, -0.00, -1.00, 461.5, 672.0)">G</text><text xml:space="preserve" font-family="GillSans" font-size="24.0" fill="#000000" transform="matrix(1.00, 0.00, -0.00, -1.00, 479.3, 672.0)">W</text><text xml:space="preserve" font-family="GillSans" font-size="24.0" fill="#000000" transform="matrix(1.00, 0.00, -0.00, -1.00, 502.4, 672.0)">A</text><text xml:space="preserve" font-family="GillSans" font-size="24.0" fill="#000000" transform="matrix(1.00, 0.00, -0.00, -1.00, 518.4, 672.0)">S</text><text xml:space="preserve" font-family="GillSans" font-size="24.0" fill="#000000" transform="matrix(1.00, 0.00, -0.00, -1.00, 529.4, 672.0)"> </text><text xml:space="preserve" font-family="GillSans" font-size="24.0" fill="#000000" transform="matrix(1.00, 0.00, -0.00, -1.00, 536.0, 672.0)">f</text><text xml:space="preserve" font-family="GillSans" font-size="24.0" fill="#000000" transform="matrix(1.00, 0.00, -0.00, -1.00, 541.8, 672.0)">o</text><text xml:space="preserve" font-family="GillSans" font-size="24.0" fill="#000000" transform="matrix(1.00, 0.00, -0.00, -1.00, 555.0, 672.0)">r</text><text xml:space="preserve" font-family="GillSans" font-size="24.0" fill="#000000" transform="matrix(1.00, 0.00, -0.00, -1.00, 564.6, 672.0)"> </text><text xml:space="preserve" font-family="GillSans" font-size="24.0" fill="#000000" transform="matrix(1.00, 0.00, -0.00, -1.00, 571.2, 672.0)">a</text><text xml:space="preserve" font-family="GillSans" font-size="24.0" fill="#000000" transform="matrix(1.00, 0.00, -0.00, -1.00, 581.5, 672.0)">m</text><text xml:space="preserve" font-family="GillSans" font-size="24.0" fill="#000000" transform="matrix(1.00, 0.00, -0.00, -1.00, 599.1, 672.0)">y</text><text xml:space="preserve" font-family="GillSans" font-size="24.0" fill="#000000" transform="matrix(1.00, 0.00, -0.00, -1.00, 609.6, 672.0)">l</text><text xml:space="preserve" font-family="GillSans" font-size="24.0" fill="#000000" transform="matrix(1.00, 0.00, -0.00, -1.00, 614.9, 672.0)">o</text><text xml:space="preserve" font-family="GillSans" font-size="24.0" fill="#000000" transform="matrix(1.00, 0.00, -0.00, -1.00, 628.1, 672.0)">s</text><text xml:space="preserve" font-family="GillSans" font-size="24.0" fill="#000000" transform="matrix(1.00, 0.00, -0.00, -1.00, 637.4, 672.0)">e</text><text xml:space="preserve" font-family="GillSans" font-size="24.0" fill="#000000" transform="matrix(1.00, 0.00, -0.00, -1.00, 648.9, 672.0)"> </text><text xml:space="preserve" font-family="GillSans" font-size="24.0" fill="#000000" transform="matrix(1.00, 0.00, -0.00, -1.00, 655.5, 672.0)">c</text><text xml:space="preserve" font-family="GillSans" font-size="24.0" fill="#000000" transform="matrix(1.00, 0.00, -0.00, -1.00, 666.0, 672.0)">o</text><text xml:space="preserve" font-family="GillSans" font-size="24.0" fill="#000000" transform="matrix(1.00, 0.00, -0.00, -1.00, 679.3, 672.0)">n</text><text xml:space="preserve" font-family="GillSans" font-size="24.0" fill="#000000" transform="matrix(1.00, 0.00, -0.00, -1.00, 691.3, 672.0)">t</text><text xml:space="preserve" font-family="GillSans" font-size="24.0" fill="#000000" transform="matrix(1.00, 0.00, -0.00, -1.00, 699.3, 672.0)">e</text><text xml:space="preserve" font-family="GillSans" font-size="24.0" fill="#000000" transform="matrix(1.00, 0.00, -0.00, -1.00, 710.8, 672.0)">n</text><text xml:space="preserve" font-family="GillSans" font-size="24.0" fill="#000000" transform="matrix(1.00, 0.00, -0.00, -1.00, 722.8, 672.0)">t</text><text xml:space="preserve" font-family="GillSans" font-size="24.0" fill="#000000" transform="matrix(1.00, 0.00, -0.00, -1.00, 730.7, 672.0)">?</text><image xlink:href="../../8A3D45D9-6429-4DEC-8166-4FE876A461D8/assets/D0C452B85552C8A53FB7DA2B72CF636B.png" width="732.00" height="540.00" transform="matrix(1.02, 0.00, -0.00, -1.02, 148.0, 633.0)"></image></g></svg>