<?xml version="1.0" encoding="UTF-8" standalone="no"?><svg xmlns="http://www.w3.org/2000/svg" xmlns:xlink="http://www.w3.org/1999/xlink" clip-rule="evenodd" stroke-miterlimit="4.00" viewBox="0 0 1024 768"><desc>SVG generated by Keynote</desc><defs></defs><g transform="matrix(1.00, 0.00, -0.00, -1.00, 0.0, 768.0)"><path d="M 0.0 768.0 L 1024.0 768.0 L 1024.0 0.0 L 0.0 0.0 Z M 0.0 768.0 " fill="#FFFFFF"></path><text xml:space="preserve" font-family="GillSans" font-size="24.0" fill="#000000" transform="matrix(1.00, 0.00, -0.00, -1.00, 290.0, 729.0)">A</text><text xml:space="preserve" font-family="GillSans" font-size="24.0" fill="#000000" transform="matrix(1.00, 0.00, -0.00, -1.00, 306.0, 729.0)">s</text><text xml:space="preserve" font-family="GillSans" font-size="24.0" fill="#000000" transform="matrix(1.00, 0.00, -0.00, -1.00, 315.2, 729.0)">s</text><text xml:space="preserve" font-family="GillSans" font-size="24.0" fill="#000000" transform="matrix(1.00, 0.00, -0.00, -1.00, 324.5, 729.0)">o</text><text xml:space="preserve" font-family="GillSans" font-size="24.0" fill="#000000" transform="matrix(1.00, 0.00, -0.00, -1.00, 337.7, 729.0)">c</text><text xml:space="preserve" font-family="GillSans" font-size="24.0" fill="#000000" transform="matrix(1.00, 0.00, -0.00, -1.00, 348.2, 729.0)">i</text><text xml:space="preserve" font-family="GillSans" font-size="24.0" fill="#000000" transform="matrix(1.00, 0.00, -0.00, -1.00, 353.5, 729.0)">a</text><text xml:space="preserve" font-family="GillSans" font-size="24.0" fill="#000000" transform="matrix(1.00, 0.00, -0.00, -1.00, 363.7, 729.0)">t</text><text xml:space="preserve" font-family="GillSans" font-size="24.0" fill="#000000" transform="matrix(1.00, 0.00, -0.00, -1.00, 371.7, 729.0)">i</text><text xml:space="preserve" font-family="GillSans" font-size="24.0" fill="#000000" transform="matrix(1.00, 0.00, -0.00, -1.00, 377.0, 729.0)">o</text><text xml:space="preserve" font-family="GillSans" font-size="24.0" fill="#000000" transform="matrix(1.00, 0.00, -0.00, -1.00, 390.2, 729.0)">n</text><text xml:space="preserve" font-family="GillSans" font-size="24.0" fill="#000000" transform="matrix(1.00, 0.00, -0.00, -1.00, 402.2, 729.0)"> </text><text xml:space="preserve" font-family="GillSans" font-size="24.0" fill="#000000" transform="matrix(1.00, 0.00, -0.00, -1.00, 408.9, 729.0)">M</text><text xml:space="preserve" font-family="GillSans" font-size="24.0" fill="#000000" transform="matrix(1.00, 0.00, -0.00, -1.00, 427.6, 729.0)">a</text><text xml:space="preserve" font-family="GillSans" font-size="24.0" fill="#000000" transform="matrix(1.00, 0.00, -0.00, -1.00, 437.6, 729.0)">p</text><text xml:space="preserve" font-family="GillSans" font-size="24.0" fill="#000000" transform="matrix(1.00, 0.00, -0.00, -1.00, 449.6, 729.0)">p</text><text xml:space="preserve" font-family="GillSans" font-size="24.0" fill="#000000" transform="matrix(1.00, 0.00, -0.00, -1.00, 461.6, 729.0)">i</text><text xml:space="preserve" font-family="GillSans" font-size="24.0" fill="#000000" transform="matrix(1.00, 0.00, -0.00, -1.00, 466.9, 729.0)">n</text><text xml:space="preserve" font-family="GillSans" font-size="24.0" fill="#000000" transform="matrix(1.00, 0.00, -0.00, -1.00, 478.9, 729.0)">g</text><text xml:space="preserve" font-family="GillSans" font-size="24.0" fill="#000000" transform="matrix(1.00, 0.00, -0.00, -1.00, 489.1, 729.0)">:</text><text xml:space="preserve" font-family="GillSans" font-size="24.0" fill="#000000" transform="matrix(1.00, 0.00, -0.00, -1.00, 492.0, 729.0)"> </text><text xml:space="preserve" font-family="GillSans" font-size="24.0" fill="#000000" transform="matrix(1.00, 0.00, -0.00, -1.00, 498.6, 729.0)">h</text><text xml:space="preserve" font-family="GillSans" font-size="24.0" fill="#000000" transform="matrix(1.00, 0.00, -0.00, -1.00, 510.6, 729.0)">i</text><text xml:space="preserve" font-family="GillSans" font-size="24.0" fill="#000000" transform="matrix(1.00, 0.00, -0.00, -1.00, 515.9, 729.0)">s</text><text xml:space="preserve" font-family="GillSans" font-size="24.0" fill="#000000" transform="matrix(1.00, 0.00, -0.00, -1.00, 525.1, 729.0)">t</text><text xml:space="preserve" font-family="GillSans" font-size="24.0" fill="#000000" transform="matrix(1.00, 0.00, -0.00, -1.00, 533.1, 729.0)">o</text><text xml:space="preserve" font-family="GillSans" font-size="24.0" fill="#000000" transform="matrix(1.00, 0.00, -0.00, -1.00, 546.4, 729.0)">r</text><text xml:space="preserve" font-family="GillSans" font-size="24.0" fill="#000000" transform="matrix(1.00, 0.00, -0.00, -1.00, 555.9, 729.0)">i</text><text xml:space="preserve" font-family="GillSans" font-size="24.0" fill="#000000" transform="matrix(1.00, 0.00, -0.00, -1.00, 561.1, 729.0)">c</text><text xml:space="preserve" font-family="GillSans" font-size="24.0" fill="#000000" transform="matrix(1.00, 0.00, -0.00, -1.00, 571.7, 729.0)">a</text><text xml:space="preserve" font-family="GillSans" font-size="24.0" fill="#000000" transform="matrix(1.00, 0.00, -0.00, -1.00, 581.9, 729.0)">l</text><text xml:space="preserve" font-family="GillSans" font-size="24.0" fill="#000000" transform="matrix(1.00, 0.00, -0.00, -1.00, 587.2, 729.0)"> </text><text xml:space="preserve" font-family="GillSans" font-size="24.0" fill="#000000" transform="matrix(1.00, 0.00, -0.00, -1.00, 593.8, 729.0)">r</text><text xml:space="preserve" font-family="GillSans" font-size="24.0" fill="#000000" transform="matrix(1.00, 0.00, -0.00, -1.00, 602.8, 729.0)">e</text><text xml:space="preserve" font-family="GillSans" font-size="24.0" fill="#000000" transform="matrix(1.00, 0.00, -0.00, -1.00, 614.3, 729.0)">c</text><text xml:space="preserve" font-family="GillSans" font-size="24.0" fill="#000000" transform="matrix(1.00, 0.00, -0.00, -1.00, 624.9, 729.0)">o</text><text xml:space="preserve" font-family="GillSans" font-size="24.0" fill="#000000" transform="matrix(1.00, 0.00, -0.00, -1.00, 638.1, 729.0)">m</text><text xml:space="preserve" font-family="GillSans" font-size="24.0" fill="#000000" transform="matrix(1.00, 0.00, -0.00, -1.00, 656.6, 729.0)">b</text><text xml:space="preserve" font-family="GillSans" font-size="24.0" fill="#000000" transform="matrix(1.00, 0.00, -0.00, -1.00, 668.6, 729.0)">i</text><text xml:space="preserve" font-family="GillSans" font-size="24.0" fill="#000000" transform="matrix(1.00, 0.00, -0.00, -1.00, 673.9, 729.0)">n</text><text xml:space="preserve" font-family="GillSans" font-size="24.0" fill="#000000" transform="matrix(1.00, 0.00, -0.00, -1.00, 685.9, 729.0)">a</text><text xml:space="preserve" font-family="GillSans" font-size="24.0" fill="#000000" transform="matrix(1.00, 0.00, -0.00, -1.00, 696.1, 729.0)">t</text><text xml:space="preserve" font-family="GillSans" font-size="24.0" fill="#000000" transform="matrix(1.00, 0.00, -0.00, -1.00, 704.1, 729.0)">i</text><text xml:space="preserve" font-family="GillSans" font-size="24.0" fill="#000000" transform="matrix(1.00, 0.00, -0.00, -1.00, 709.4, 729.0)">o</text><text xml:space="preserve" font-family="GillSans" font-size="24.0" fill="#000000" transform="matrix(1.00, 0.00, -0.00, -1.00, 722.6, 729.0)">n</text><text xml:space="preserve" font-family="GillSans" font-size="41.0" fill="#000000" transform="matrix(1.00, 0.00, -0.00, -1.00, 49.0, 666.0)">•</text><text xml:space="preserve" font-family="GillSans" font-size="24.0" fill="#000000" transform="matrix(1.00, 0.00, -0.00, -1.00, 94.0, 672.0)">W</text><text xml:space="preserve" font-family="GillSans" font-size="24.0" fill="#000000" transform="matrix(1.00, 0.00, -0.00, -1.00, 119.0, 672.0)">h</text><text xml:space="preserve" font-family="GillSans" font-size="24.0" fill="#000000" transform="matrix(1.00, 0.00, -0.00, -1.00, 130.2, 672.0)">y</text><text xml:space="preserve" font-family="GillSans" font-size="24.0" fill="#000000" transform="matrix(1.00, 0.00, -0.00, -1.00, 140.7, 672.0)"> </text><text xml:space="preserve" font-family="GillSans" font-size="24.0" fill="#000000" transform="matrix(1.00, 0.00, -0.00, -1.00, 147.3, 672.0)">m</text><text xml:space="preserve" font-family="GillSans" font-size="24.0" fill="#000000" transform="matrix(1.00, 0.00, -0.00, -1.00, 165.8, 672.0)">i</text><text xml:space="preserve" font-family="GillSans" font-size="24.0" fill="#000000" transform="matrix(1.00, 0.00, -0.00, -1.00, 171.1, 672.0)">g</text><text xml:space="preserve" font-family="GillSans" font-size="24.0" fill="#000000" transform="matrix(1.00, 0.00, -0.00, -1.00, 181.3, 672.0)">h</text><text xml:space="preserve" font-family="GillSans" font-size="24.0" fill="#000000" transform="matrix(1.00, 0.00, -0.00, -1.00, 193.3, 672.0)">t</text><text xml:space="preserve" font-family="GillSans" font-size="24.0" fill="#000000" transform="matrix(1.00, 0.00, -0.00, -1.00, 201.3, 672.0)"> </text><text xml:space="preserve" font-family="GillSans" font-size="24.0" fill="#000000" transform="matrix(1.00, 0.00, -0.00, -1.00, 208.0, 672.0)">s</text><text xml:space="preserve" font-family="GillSans" font-size="24.0" fill="#000000" transform="matrix(1.00, 0.00, -0.00, -1.00, 217.2, 672.0)">o</text><text xml:space="preserve" font-family="GillSans" font-size="24.0" fill="#000000" transform="matrix(1.00, 0.00, -0.00, -1.00, 230.5, 672.0)">m</text><text xml:space="preserve" font-family="GillSans" font-size="24.0" fill="#000000" transform="matrix(1.00, 0.00, -0.00, -1.00, 249.0, 672.0)">e</text><text xml:space="preserve" font-family="GillSans" font-size="24.0" fill="#000000" transform="matrix(1.00, 0.00, -0.00, -1.00, 260.5, 672.0)"> </text><text xml:space="preserve" font-family="GillSans" font-size="24.0" fill="#000000" transform="matrix(1.00, 0.00, -0.00, -1.00, 267.1, 672.0)">S</text><text xml:space="preserve" font-family="GillSans" font-size="24.0" fill="#000000" transform="matrix(1.00, 0.00, -0.00, -1.00, 278.1, 672.0)">N</text><text xml:space="preserve" font-family="GillSans" font-size="24.0" fill="#000000" transform="matrix(1.00, 0.00, -0.00, -1.00, 296.9, 672.0)">P</text><text xml:space="preserve" font-family="GillSans" font-size="24.0" fill="#000000" transform="matrix(1.00, 0.00, -0.00, -1.00, 309.1, 672.0)">s</text><text xml:space="preserve" font-family="GillSans" font-size="24.0" fill="#000000" transform="matrix(1.00, 0.00, -0.00, -1.00, 318.3, 672.0)"> </text><text xml:space="preserve" font-family="GillSans" font-size="24.0" fill="#000000" transform="matrix(1.00, 0.00, -0.00, -1.00, 325.0, 672.0)">b</text><text xml:space="preserve" font-family="GillSans" font-size="24.0" fill="#000000" transform="matrix(1.00, 0.00, -0.00, -1.00, 337.0, 672.0)">e</text><text xml:space="preserve" font-family="GillSans" font-size="24.0" fill="#000000" transform="matrix(1.00, 0.00, -0.00, -1.00, 348.5, 672.0)"> </text><text xml:space="preserve" font-family="GillSans" font-size="24.0" fill="#000000" transform="matrix(1.00, 0.00, -0.00, -1.00, 355.1, 672.0)">a</text><text xml:space="preserve" font-family="GillSans" font-size="24.0" fill="#000000" transform="matrix(1.00, 0.00, -0.00, -1.00, 365.4, 672.0)">s</text><text xml:space="preserve" font-family="GillSans" font-size="24.0" fill="#000000" transform="matrix(1.00, 0.00, -0.00, -1.00, 374.6, 672.0)">s</text><text xml:space="preserve" font-family="GillSans" font-size="24.0" fill="#000000" transform="matrix(1.00, 0.00, -0.00, -1.00, 383.8, 672.0)">o</text><text xml:space="preserve" font-family="GillSans" font-size="24.0" fill="#000000" transform="matrix(1.00, 0.00, -0.00, -1.00, 397.1, 672.0)">c</text><text xml:space="preserve" font-family="GillSans" font-size="24.0" fill="#000000" transform="matrix(1.00, 0.00, -0.00, -1.00, 407.6, 672.0)">i</text><text xml:space="preserve" font-family="GillSans" font-size="24.0" fill="#000000" transform="matrix(1.00, 0.00, -0.00, -1.00, 412.9, 672.0)">a</text><text xml:space="preserve" font-family="GillSans" font-size="24.0" fill="#000000" transform="matrix(1.00, 0.00, -0.00, -1.00, 423.1, 672.0)">t</text><text xml:space="preserve" font-family="GillSans" font-size="24.0" fill="#000000" transform="matrix(1.00, 0.00, -0.00, -1.00, 431.1, 672.0)">e</text><text xml:space="preserve" font-family="GillSans" font-size="24.0" fill="#000000" transform="matrix(1.00, 0.00, -0.00, -1.00, 442.6, 672.0)">d</text><text xml:space="preserve" font-family="GillSans" font-size="24.0" fill="#000000" transform="matrix(1.00, 0.00, -0.00, -1.00, 454.8, 672.0)"> </text><text xml:space="preserve" font-family="GillSans" font-size="24.0" fill="#000000" transform="matrix(1.00, 0.00, -0.00, -1.00, 461.5, 672.0)">w</text><text xml:space="preserve" font-family="GillSans" font-size="24.0" fill="#000000" transform="matrix(1.00, 0.00, -0.00, -1.00, 478.7, 672.0)">i</text><text xml:space="preserve" font-family="GillSans" font-size="24.0" fill="#000000" transform="matrix(1.00, 0.00, -0.00, -1.00, 484.0, 672.0)">t</text><text xml:space="preserve" font-family="GillSans" font-size="24.0" fill="#000000" transform="matrix(1.00, 0.00, -0.00, -1.00, 492.0, 672.0)">h</text><text xml:space="preserve" font-family="GillSans" font-size="24.0" fill="#000000" transform="matrix(1.00, 0.00, -0.00, -1.00, 504.0, 672.0)"> </text><text xml:space="preserve" font-family="GillSans" font-size="24.0" fill="#000000" transform="matrix(1.00, 0.00, -0.00, -1.00, 510.7, 672.0)">a</text><text xml:space="preserve" font-family="GillSans" font-size="24.0" fill="#000000" transform="matrix(1.00, 0.00, -0.00, -1.00, 520.9, 672.0)"> </text><text xml:space="preserve" font-family="GillSans" font-size="24.0" fill="#000000" transform="matrix(1.00, 0.00, -0.00, -1.00, 527.6, 672.0)">t</text><text xml:space="preserve" font-family="GillSans" font-size="24.0" fill="#000000" transform="matrix(1.00, 0.00, -0.00, -1.00, 535.6, 672.0)">r</text><text xml:space="preserve" font-family="GillSans" font-size="24.0" fill="#000000" transform="matrix(1.00, 0.00, -0.00, -1.00, 545.1, 672.0)">a</text><text xml:space="preserve" font-family="GillSans" font-size="24.0" fill="#000000" transform="matrix(1.00, 0.00, -0.00, -1.00, 555.3, 672.0)">i</text><text xml:space="preserve" font-family="GillSans" font-size="24.0" fill="#000000" transform="matrix(1.00, 0.00, -0.00, -1.00, 560.6, 672.0)">t</text><text xml:space="preserve" font-family="GillSans" font-size="24.0" fill="#000000" transform="matrix(1.00, 0.00, -0.00, -1.00, 568.6, 672.0)"> </text><text xml:space="preserve" font-family="GillSans" font-size="24.0" fill="#000000" transform="matrix(1.00, 0.00, -0.00, -1.00, 575.2, 672.0)">a</text><text xml:space="preserve" font-family="GillSans" font-size="24.0" fill="#000000" transform="matrix(1.00, 0.00, -0.00, -1.00, 585.5, 672.0)">n</text><text xml:space="preserve" font-family="GillSans" font-size="24.0" fill="#000000" transform="matrix(1.00, 0.00, -0.00, -1.00, 597.5, 672.0)">d</text><text xml:space="preserve" font-family="GillSans" font-size="24.0" fill="#000000" transform="matrix(1.00, 0.00, -0.00, -1.00, 609.7, 672.0)"> </text><text xml:space="preserve" font-family="GillSans" font-size="24.0" fill="#000000" transform="matrix(1.00, 0.00, -0.00, -1.00, 616.3, 672.0)">n</text><text xml:space="preserve" font-family="GillSans" font-size="24.0" fill="#000000" transform="matrix(1.00, 0.00, -0.00, -1.00, 628.3, 672.0)">o</text><text xml:space="preserve" font-family="GillSans" font-size="24.0" fill="#000000" transform="matrix(1.00, 0.00, -0.00, -1.00, 641.6, 672.0)">t</text><text xml:space="preserve" font-family="GillSans" font-size="24.0" fill="#000000" transform="matrix(1.00, 0.00, -0.00, -1.00, 649.6, 672.0)"> </text><text xml:space="preserve" font-family="GillSans" font-size="24.0" fill="#000000" transform="matrix(1.00, 0.00, -0.00, -1.00, 656.2, 672.0)">o</text><text xml:space="preserve" font-family="GillSans" font-size="24.0" fill="#000000" transform="matrix(1.00, 0.00, -0.00, -1.00, 669.5, 672.0)">t</text><text xml:space="preserve" font-family="GillSans" font-size="24.0" fill="#000000" transform="matrix(1.00, 0.00, -0.00, -1.00, 677.5, 672.0)">h</text><text xml:space="preserve" font-family="GillSans" font-size="24.0" fill="#000000" transform="matrix(1.00, 0.00, -0.00, -1.00, 689.5, 672.0)">e</text><text xml:space="preserve" font-family="GillSans" font-size="24.0" fill="#000000" transform="matrix(1.00, 0.00, -0.00, -1.00, 701.0, 672.0)">r</text><text xml:space="preserve" font-family="GillSans" font-size="24.0" fill="#000000" transform="matrix(1.00, 0.00, -0.00, -1.00, 710.5, 672.0)">s</text><text xml:space="preserve" font-family="GillSans" font-size="24.0" fill="#000000" transform="matrix(1.00, 0.00, -0.00, -1.00, 719.7, 672.0)">?</text><text xml:space="preserve" font-family="GillSans" font-size="41.0" fill="#000000" transform="matrix(1.00, 0.00, -0.00, -1.00, 49.0, 614.0)">•</text><text xml:space="preserve" font-family="GillSans" font-size="24.0" fill="#000000" transform="matrix(1.00, 0.00, -0.00, -1.00, 94.0, 620.0)">H</text><text xml:space="preserve" font-family="GillSans" font-size="24.0" fill="#000000" transform="matrix(1.00, 0.00, -0.00, -1.00, 111.5, 620.0)">i</text><text xml:space="preserve" font-family="GillSans" font-size="24.0" fill="#000000" transform="matrix(1.00, 0.00, -0.00, -1.00, 116.8, 620.0)">s</text><text xml:space="preserve" font-family="GillSans" font-size="24.0" fill="#000000" transform="matrix(1.00, 0.00, -0.00, -1.00, 126.0, 620.0)">t</text><text xml:space="preserve" font-family="GillSans" font-size="24.0" fill="#000000" transform="matrix(1.00, 0.00, -0.00, -1.00, 134.0, 620.0)">o</text><text xml:space="preserve" font-family="GillSans" font-size="24.0" fill="#000000" transform="matrix(1.00, 0.00, -0.00, -1.00, 147.2, 620.0)">r</text><text xml:space="preserve" font-family="GillSans" font-size="24.0" fill="#000000" transform="matrix(1.00, 0.00, -0.00, -1.00, 156.7, 620.0)">i</text><text xml:space="preserve" font-family="GillSans" font-size="24.0" fill="#000000" transform="matrix(1.00, 0.00, -0.00, -1.00, 162.0, 620.0)">c</text><text xml:space="preserve" font-family="GillSans" font-size="24.0" fill="#000000" transform="matrix(1.00, 0.00, -0.00, -1.00, 172.5, 620.0)">a</text><text xml:space="preserve" font-family="GillSans" font-size="24.0" fill="#000000" transform="matrix(1.00, 0.00, -0.00, -1.00, 182.7, 620.0)">l</text><text xml:space="preserve" font-family="GillSans" font-size="24.0" fill="#000000" transform="matrix(1.00, 0.00, -0.00, -1.00, 188.0, 620.0)"> </text><text xml:space="preserve" font-family="GillSans" font-size="24.0" fill="#000000" transform="matrix(1.00, 0.00, -0.00, -1.00, 194.7, 620.0)">R</text><text xml:space="preserve" font-family="GillSans" font-size="24.0" fill="#000000" transform="matrix(1.00, 0.00, -0.00, -1.00, 209.2, 620.0)">e</text><text xml:space="preserve" font-family="GillSans" font-size="24.0" fill="#000000" transform="matrix(1.00, 0.00, -0.00, -1.00, 220.7, 620.0)">c</text><text xml:space="preserve" font-family="GillSans" font-size="24.0" fill="#000000" transform="matrix(1.00, 0.00, -0.00, -1.00, 231.2, 620.0)">o</text><text xml:space="preserve" font-family="GillSans" font-size="24.0" fill="#000000" transform="matrix(1.00, 0.00, -0.00, -1.00, 244.4, 620.0)">m</text><text xml:space="preserve" font-family="GillSans" font-size="24.0" fill="#000000" transform="matrix(1.00, 0.00, -0.00, -1.00, 262.9, 620.0)">b</text><text xml:space="preserve" font-family="GillSans" font-size="24.0" fill="#000000" transform="matrix(1.00, 0.00, -0.00, -1.00, 274.9, 620.0)">i</text><text xml:space="preserve" font-family="GillSans" font-size="24.0" fill="#000000" transform="matrix(1.00, 0.00, -0.00, -1.00, 280.2, 620.0)">n</text><text xml:space="preserve" font-family="GillSans" font-size="24.0" fill="#000000" transform="matrix(1.00, 0.00, -0.00, -1.00, 292.2, 620.0)">a</text><text xml:space="preserve" font-family="GillSans" font-size="24.0" fill="#000000" transform="matrix(1.00, 0.00, -0.00, -1.00, 302.4, 620.0)">t</text><text xml:space="preserve" font-family="GillSans" font-size="24.0" fill="#000000" transform="matrix(1.00, 0.00, -0.00, -1.00, 310.4, 620.0)">i</text><text xml:space="preserve" font-family="GillSans" font-size="24.0" fill="#000000" transform="matrix(1.00, 0.00, -0.00, -1.00, 315.7, 620.0)">o</text><text xml:space="preserve" font-family="GillSans" font-size="24.0" fill="#000000" transform="matrix(1.00, 0.00, -0.00, -1.00, 328.9, 620.0)">n</text><text xml:space="preserve" font-family="GillSans" font-size="24.0" fill="#000000" transform="matrix(1.00, 0.00, -0.00, -1.00, 340.9, 620.0)">!</text></g></svg>