<?xml version="1.0" encoding="UTF-8" standalone="no"?><svg xmlns="http://www.w3.org/2000/svg" xmlns:xlink="http://www.w3.org/1999/xlink" clip-rule="evenodd" stroke-miterlimit="4.00" viewBox="0 0 1024 768"><desc>SVG generated by Keynote</desc><defs></defs><g transform="matrix(1.00, 0.00, -0.00, -1.00, 0.0, 768.0)"><path d="M 0.0 768.0 L 1024.0 768.0 L 1024.0 0.0 L 0.0 0.0 Z M 0.0 768.0 " fill="#FEFFFF"></path><text xml:space="preserve" font-family="Helvetica" font-size="38.0" fill="#000000" transform="matrix(1.00, 0.00, -0.00, -1.00, 274.0, 711.0)">T</text><text xml:space="preserve" font-family="Helvetica" font-size="38.0" fill="#000000" transform="matrix(1.00, 0.00, -0.00, -1.00, 297.2, 711.0)">h</text><text xml:space="preserve" font-family="Helvetica" font-size="38.0" fill="#000000" transform="matrix(1.00, 0.00, -0.00, -1.00, 318.3, 711.0)">e</text><text xml:space="preserve" font-family="Helvetica" font-size="38.0" fill="#000000" transform="matrix(1.00, 0.00, -0.00, -1.00, 339.5, 711.0)"> </text><text xml:space="preserve" font-family="Helvetica" font-size="38.0" fill="#000000" transform="matrix(1.00, 0.00, -0.00, -1.00, 350.0, 711.0)">i</text><text xml:space="preserve" font-family="Helvetica" font-size="38.0" fill="#000000" transform="matrix(1.00, 0.00, -0.00, -1.00, 358.5, 711.0)">m</text><text xml:space="preserve" font-family="Helvetica" font-size="38.0" fill="#000000" transform="matrix(1.00, 0.00, -0.00, -1.00, 390.1, 711.0)">p</text><text xml:space="preserve" font-family="Helvetica" font-size="38.0" fill="#000000" transform="matrix(1.00, 0.00, -0.00, -1.00, 411.3, 711.0)">o</text><text xml:space="preserve" font-family="Helvetica" font-size="38.0" fill="#000000" transform="matrix(1.00, 0.00, -0.00, -1.00, 432.4, 711.0)">r</text><text xml:space="preserve" font-family="Helvetica" font-size="38.0" fill="#000000" transform="matrix(1.00, 0.00, -0.00, -1.00, 445.1, 711.0)">t</text><text xml:space="preserve" font-family="Helvetica" font-size="38.0" fill="#000000" transform="matrix(1.00, 0.00, -0.00, -1.00, 455.6, 711.0)">a</text><text xml:space="preserve" font-family="Helvetica" font-size="38.0" fill="#000000" transform="matrix(1.00, 0.00, -0.00, -1.00, 476.8, 711.0)">n</text><text xml:space="preserve" font-family="Helvetica" font-size="38.0" fill="#000000" transform="matrix(1.00, 0.00, -0.00, -1.00, 497.9, 711.0)">c</text><text xml:space="preserve" font-family="Helvetica" font-size="38.0" fill="#000000" transform="matrix(1.00, 0.00, -0.00, -1.00, 516.9, 711.0)">e</text><text xml:space="preserve" font-family="Helvetica" font-size="38.0" fill="#000000" transform="matrix(1.00, 0.00, -0.00, -1.00, 538.1, 711.0)"> </text><text xml:space="preserve" font-family="Helvetica" font-size="38.0" fill="#000000" transform="matrix(1.00, 0.00, -0.00, -1.00, 548.6, 711.0)">o</text><text xml:space="preserve" font-family="Helvetica" font-size="38.0" fill="#000000" transform="matrix(1.00, 0.00, -0.00, -1.00, 569.7, 711.0)">f</text><text xml:space="preserve" font-family="Helvetica" font-size="38.0" fill="#000000" transform="matrix(1.00, 0.00, -0.00, -1.00, 580.3, 711.0)"> </text><text xml:space="preserve" font-family="Helvetica" font-size="38.0" fill="#000000" transform="matrix(1.00, 0.00, -0.00, -1.00, 590.8, 711.0)">t</text><text xml:space="preserve" font-family="Helvetica" font-size="38.0" fill="#000000" transform="matrix(1.00, 0.00, -0.00, -1.00, 601.4, 711.0)">a</text><text xml:space="preserve" font-family="Helvetica" font-size="38.0" fill="#000000" transform="matrix(1.00, 0.00, -0.00, -1.00, 622.5, 711.0)">g</text><text xml:space="preserve" font-family="Helvetica" font-size="38.0" fill="#000000" transform="matrix(1.00, 0.00, -0.00, -1.00, 643.7, 711.0)">S</text><text xml:space="preserve" font-family="Helvetica" font-size="38.0" fill="#000000" transform="matrix(1.00, 0.00, -0.00, -1.00, 669.0, 711.0)">N</text><text xml:space="preserve" font-family="Helvetica" font-size="38.0" fill="#000000" transform="matrix(1.00, 0.00, -0.00, -1.00, 696.5, 711.0)">P</text><text xml:space="preserve" font-family="Helvetica" font-size="38.0" fill="#000000" transform="matrix(1.00, 0.00, -0.00, -1.00, 721.8, 711.0)">s</text></g></svg>