<?xml version="1.0" encoding="UTF-8" standalone="no"?><svg xmlns="http://www.w3.org/2000/svg" xmlns:xlink="http://www.w3.org/1999/xlink" clip-rule="evenodd" stroke-miterlimit="4.00" viewBox="0 0 839 152"><desc>SVG generated by Keynote</desc><defs></defs><g transform="matrix(1.00, 0.00, -0.00, -1.00, 0.0, 152.0)"><text xml:space="preserve" font-family="GillSans" font-size="41.0" fill="#000000" transform="matrix(1.00, 0.00, -0.00, -1.00, 0.0, 113.9)">•</text><text xml:space="preserve" font-family="GillSans-Italic" font-style="italic" font-size="24.0" fill="#000000" transform="matrix(1.00, 0.00, -0.00, -1.00, 22.0, 119.0)">J</text><text xml:space="preserve" font-family="GillSans-Italic" font-style="italic" font-size="24.0" fill="#000000" transform="matrix(1.00, 0.00, -0.00, -1.00, 27.8, 119.0)">a</text><text xml:space="preserve" font-family="GillSans-Italic" font-style="italic" font-size="24.0" fill="#000000" transform="matrix(1.00, 0.00, -0.00, -1.00, 39.0, 119.0)">p</text><text xml:space="preserve" font-family="GillSans-Italic" font-style="italic" font-size="24.0" fill="#000000" transform="matrix(1.00, 0.00, -0.00, -1.00, 50.8, 119.0)">o</text><text xml:space="preserve" font-family="GillSans-Italic" font-style="italic" font-size="24.0" fill="#000000" transform="matrix(1.00, 0.00, -0.00, -1.00, 61.6, 119.0)">n</text><text xml:space="preserve" font-family="GillSans-Italic" font-style="italic" font-size="24.0" fill="#000000" transform="matrix(1.00, 0.00, -0.00, -1.00, 72.8, 119.0)">i</text><text xml:space="preserve" font-family="GillSans-Italic" font-style="italic" font-size="24.0" fill="#000000" transform="matrix(1.00, 0.00, -0.00, -1.00, 77.3, 119.0)">c</text><text xml:space="preserve" font-family="GillSans-Italic" font-style="italic" font-size="24.0" fill="#000000" transform="matrix(1.00, 0.00, -0.00, -1.00, 86.6, 119.0)">a</text><text xml:space="preserve" font-family="GillSans" font-size="34.2" fill="#000000" transform="matrix(1.00, 0.00, -0.00, -1.00, 35.0, 78.9)">•</text><text xml:space="preserve" font-family="GillSans" font-size="20.0" fill="#000000" transform="matrix(1.00, 0.00, -0.00, -1.00, 57.0, 84.0)">G</text><text xml:space="preserve" font-family="GillSans" font-size="20.0" fill="#000000" transform="matrix(1.00, 0.00, -0.00, -1.00, 71.8, 84.0)">r</text><text xml:space="preserve" font-family="GillSans" font-size="20.0" fill="#000000" transform="matrix(1.00, 0.00, -0.00, -1.00, 79.2, 84.0)">o</text><text xml:space="preserve" font-family="GillSans" font-size="20.0" fill="#000000" transform="matrix(1.00, 0.00, -0.00, -1.00, 90.1, 84.0)">w</text><text xml:space="preserve" font-family="GillSans" font-size="20.0" fill="#000000" transform="matrix(1.00, 0.00, -0.00, -1.00, 104.5, 84.0)">n</text><text xml:space="preserve" font-family="GillSans" font-size="20.0" fill="#000000" transform="matrix(1.00, 0.00, -0.00, -1.00, 114.5, 84.0)"> </text><text xml:space="preserve" font-family="GillSans" font-size="20.0" fill="#000000" transform="matrix(1.00, 0.00, -0.00, -1.00, 120.0, 84.0)">i</text><text xml:space="preserve" font-family="GillSans" font-size="20.0" fill="#000000" transform="matrix(1.00, 0.00, -0.00, -1.00, 124.4, 84.0)">n</text><text xml:space="preserve" font-family="GillSans" font-size="20.0" fill="#000000" transform="matrix(1.00, 0.00, -0.00, -1.00, 134.4, 84.0)"> </text><text xml:space="preserve" font-family="GillSans" font-size="20.0" fill="#000000" transform="matrix(1.00, 0.00, -0.00, -1.00, 139.9, 84.0)">l</text><text xml:space="preserve" font-family="GillSans" font-size="20.0" fill="#000000" transform="matrix(1.00, 0.00, -0.00, -1.00, 144.3, 84.0)">o</text><text xml:space="preserve" font-family="GillSans" font-size="20.0" fill="#000000" transform="matrix(1.00, 0.00, -0.00, -1.00, 155.2, 84.0)">w</text><text xml:space="preserve" font-family="GillSans" font-size="20.0" fill="#000000" transform="matrix(1.00, 0.00, -0.00, -1.00, 169.6, 84.0)">l</text><text xml:space="preserve" font-family="GillSans" font-size="20.0" fill="#000000" transform="matrix(1.00, 0.00, -0.00, -1.00, 174.0, 84.0)">a</text><text xml:space="preserve" font-family="GillSans" font-size="20.0" fill="#000000" transform="matrix(1.00, 0.00, -0.00, -1.00, 182.5, 84.0)">n</text><text xml:space="preserve" font-family="GillSans" font-size="20.0" fill="#000000" transform="matrix(1.00, 0.00, -0.00, -1.00, 192.5, 84.0)">d</text><text xml:space="preserve" font-family="GillSans" font-size="20.0" fill="#000000" transform="matrix(1.00, 0.00, -0.00, -1.00, 202.7, 84.0)"> </text><text xml:space="preserve" font-family="GillSans" font-size="20.0" fill="#000000" transform="matrix(1.00, 0.00, -0.00, -1.00, 208.2, 84.0)">a</text><text xml:space="preserve" font-family="GillSans" font-size="20.0" fill="#000000" transform="matrix(1.00, 0.00, -0.00, -1.00, 216.8, 84.0)">n</text><text xml:space="preserve" font-family="GillSans" font-size="20.0" fill="#000000" transform="matrix(1.00, 0.00, -0.00, -1.00, 226.8, 84.0)">d</text><text xml:space="preserve" font-family="GillSans" font-size="20.0" fill="#000000" transform="matrix(1.00, 0.00, -0.00, -1.00, 236.9, 84.0)"> </text><text xml:space="preserve" font-family="GillSans" font-size="20.0" fill="#000000" transform="matrix(1.00, 0.00, -0.00, -1.00, 242.5, 84.0)">h</text><text xml:space="preserve" font-family="GillSans" font-size="20.0" fill="#000000" transform="matrix(1.00, 0.00, -0.00, -1.00, 252.5, 84.0)">i</text><text xml:space="preserve" font-family="GillSans" font-size="20.0" fill="#000000" transform="matrix(1.00, 0.00, -0.00, -1.00, 256.9, 84.0)">g</text><text xml:space="preserve" font-family="GillSans" font-size="20.0" fill="#000000" transform="matrix(1.00, 0.00, -0.00, -1.00, 265.4, 84.0)">h</text><text xml:space="preserve" font-family="GillSans" font-size="20.0" fill="#000000" transform="matrix(1.00, 0.00, -0.00, -1.00, 275.4, 84.0)">-</text><text xml:space="preserve" font-family="GillSans" font-size="20.0" fill="#000000" transform="matrix(1.00, 0.00, -0.00, -1.00, 281.9, 84.0)">e</text><text xml:space="preserve" font-family="GillSans" font-size="20.0" fill="#000000" transform="matrix(1.00, 0.00, -0.00, -1.00, 291.5, 84.0)">l</text><text xml:space="preserve" font-family="GillSans" font-size="20.0" fill="#000000" transform="matrix(1.00, 0.00, -0.00, -1.00, 295.9, 84.0)">e</text><text xml:space="preserve" font-family="GillSans" font-size="20.0" fill="#000000" transform="matrix(1.00, 0.00, -0.00, -1.00, 305.1, 84.0)">v</text><text xml:space="preserve" font-family="GillSans" font-size="20.0" fill="#000000" transform="matrix(1.00, 0.00, -0.00, -1.00, 313.9, 84.0)">a</text><text xml:space="preserve" font-family="GillSans" font-size="20.0" fill="#000000" transform="matrix(1.00, 0.00, -0.00, -1.00, 322.4, 84.0)">t</text><text xml:space="preserve" font-family="GillSans" font-size="20.0" fill="#000000" transform="matrix(1.00, 0.00, -0.00, -1.00, 329.1, 84.0)">i</text><text xml:space="preserve" font-family="GillSans" font-size="20.0" fill="#000000" transform="matrix(1.00, 0.00, -0.00, -1.00, 333.5, 84.0)">o</text><text xml:space="preserve" font-family="GillSans" font-size="20.0" fill="#000000" transform="matrix(1.00, 0.00, -0.00, -1.00, 344.5, 84.0)">n</text><text xml:space="preserve" font-family="GillSans" font-size="20.0" fill="#000000" transform="matrix(1.00, 0.00, -0.00, -1.00, 354.5, 84.0)"> </text><text xml:space="preserve" font-family="GillSans" font-size="20.0" fill="#000000" transform="matrix(1.00, 0.00, -0.00, -1.00, 360.1, 84.0)">u</text><text xml:space="preserve" font-family="GillSans" font-size="20.0" fill="#000000" transform="matrix(1.00, 0.00, -0.00, -1.00, 370.1, 84.0)">p</text><text xml:space="preserve" font-family="GillSans" font-size="20.0" fill="#000000" transform="matrix(1.00, 0.00, -0.00, -1.00, 380.1, 84.0)">l</text><text xml:space="preserve" font-family="GillSans" font-size="20.0" fill="#000000" transform="matrix(1.00, 0.00, -0.00, -1.00, 384.4, 84.0)">a</text><text xml:space="preserve" font-family="GillSans" font-size="20.0" fill="#000000" transform="matrix(1.00, 0.00, -0.00, -1.00, 393.0, 84.0)">n</text><text xml:space="preserve" font-family="GillSans" font-size="20.0" fill="#000000" transform="matrix(1.00, 0.00, -0.00, -1.00, 403.0, 84.0)">d</text><text xml:space="preserve" font-family="GillSans" font-size="20.0" fill="#000000" transform="matrix(1.00, 0.00, -0.00, -1.00, 413.2, 84.0)"> </text><text xml:space="preserve" font-family="GillSans" font-size="20.0" fill="#000000" transform="matrix(1.00, 0.00, -0.00, -1.00, 418.7, 84.0)">a</text><text xml:space="preserve" font-family="GillSans" font-size="20.0" fill="#000000" transform="matrix(1.00, 0.00, -0.00, -1.00, 427.3, 84.0)">r</text><text xml:space="preserve" font-family="GillSans" font-size="20.0" fill="#000000" transform="matrix(1.00, 0.00, -0.00, -1.00, 434.8, 84.0)">e</text><text xml:space="preserve" font-family="GillSans" font-size="20.0" fill="#000000" transform="matrix(1.00, 0.00, -0.00, -1.00, 444.4, 84.0)">a</text><text xml:space="preserve" font-family="GillSans" font-size="20.0" fill="#000000" transform="matrix(1.00, 0.00, -0.00, -1.00, 452.9, 84.0)">s</text><text xml:space="preserve" font-family="GillSans" font-size="20.0" fill="#000000" transform="matrix(1.00, 0.00, -0.00, -1.00, 460.6, 84.0)"> </text><text xml:space="preserve" font-family="GillSans" font-size="20.0" fill="#000000" transform="matrix(1.00, 0.00, -0.00, -1.00, 466.1, 84.0)">o</text><text xml:space="preserve" font-family="GillSans" font-size="20.0" fill="#000000" transform="matrix(1.00, 0.00, -0.00, -1.00, 477.2, 84.0)">f</text><text xml:space="preserve" font-family="GillSans" font-size="20.0" fill="#000000" transform="matrix(1.00, 0.00, -0.00, -1.00, 482.2, 84.0)"> </text><text xml:space="preserve" font-family="GillSans" font-size="20.0" fill="#000000" transform="matrix(1.00, 0.00, -0.00, -1.00, 487.7, 84.0)">t</text><text xml:space="preserve" font-family="GillSans" font-size="20.0" fill="#000000" transform="matrix(1.00, 0.00, -0.00, -1.00, 494.4, 84.0)">r</text><text xml:space="preserve" font-family="GillSans" font-size="20.0" fill="#000000" transform="matrix(1.00, 0.00, -0.00, -1.00, 501.8, 84.0)">o</text><text xml:space="preserve" font-family="GillSans" font-size="20.0" fill="#000000" transform="matrix(1.00, 0.00, -0.00, -1.00, 512.8, 84.0)">p</text><text xml:space="preserve" font-family="GillSans" font-size="20.0" fill="#000000" transform="matrix(1.00, 0.00, -0.00, -1.00, 522.8, 84.0)">i</text><text xml:space="preserve" font-family="GillSans" font-size="20.0" fill="#000000" transform="matrix(1.00, 0.00, -0.00, -1.00, 527.2, 84.0)">c</text><text xml:space="preserve" font-family="GillSans" font-size="20.0" fill="#000000" transform="matrix(1.00, 0.00, -0.00, -1.00, 536.0, 84.0)">a</text><text xml:space="preserve" font-family="GillSans" font-size="20.0" fill="#000000" transform="matrix(1.00, 0.00, -0.00, -1.00, 544.5, 84.0)">l</text><text xml:space="preserve" font-family="GillSans" font-size="20.0" fill="#000000" transform="matrix(1.00, 0.00, -0.00, -1.00, 548.9, 84.0)"> </text><text xml:space="preserve" font-family="GillSans" font-size="20.0" fill="#000000" transform="matrix(1.00, 0.00, -0.00, -1.00, 554.4, 84.0)">S</text><text xml:space="preserve" font-family="GillSans" font-size="20.0" fill="#000000" transform="matrix(1.00, 0.00, -0.00, -1.00, 563.6, 84.0)">E</text><text xml:space="preserve" font-family="GillSans" font-size="20.0" fill="#000000" transform="matrix(1.00, 0.00, -0.00, -1.00, 573.6, 84.0)"> </text><text xml:space="preserve" font-family="GillSans" font-size="20.0" fill="#000000" transform="matrix(1.00, 0.00, -0.00, -1.00, 577.2, 84.0)">A</text><text xml:space="preserve" font-family="GillSans" font-size="20.0" fill="#000000" transform="matrix(1.00, 0.00, -0.00, -1.00, 590.5, 84.0)">s</text><text xml:space="preserve" font-family="GillSans" font-size="20.0" fill="#000000" transform="matrix(1.00, 0.00, -0.00, -1.00, 598.2, 84.0)">i</text><text xml:space="preserve" font-family="GillSans" font-size="20.0" fill="#000000" transform="matrix(1.00, 0.00, -0.00, -1.00, 602.6, 84.0)">a</text><text xml:space="preserve" font-family="GillSans" font-size="34.2" fill="#000000" transform="matrix(1.00, 0.00, -0.00, -1.00, 35.0, 43.9)">•</text><text xml:space="preserve" font-family="GillSans" font-size="20.0" fill="#000000" transform="matrix(1.00, 0.00, -0.00, -1.00, 57.0, 49.0)">A</text><text xml:space="preserve" font-family="GillSans" font-size="20.0" fill="#000000" transform="matrix(1.00, 0.00, -0.00, -1.00, 70.3, 49.0)">l</text><text xml:space="preserve" font-family="GillSans" font-size="20.0" fill="#000000" transform="matrix(1.00, 0.00, -0.00, -1.00, 74.7, 49.0)">s</text><text xml:space="preserve" font-family="GillSans" font-size="20.0" fill="#000000" transform="matrix(1.00, 0.00, -0.00, -1.00, 82.4, 49.0)">o</text><text xml:space="preserve" font-family="GillSans" font-size="20.0" fill="#000000" transform="matrix(1.00, 0.00, -0.00, -1.00, 93.5, 49.0)"> </text><text xml:space="preserve" font-family="GillSans" font-size="20.0" fill="#000000" transform="matrix(1.00, 0.00, -0.00, -1.00, 99.0, 49.0)">g</text><text xml:space="preserve" font-family="GillSans" font-size="20.0" fill="#000000" transform="matrix(1.00, 0.00, -0.00, -1.00, 107.5, 49.0)">r</text><text xml:space="preserve" font-family="GillSans" font-size="20.0" fill="#000000" transform="matrix(1.00, 0.00, -0.00, -1.00, 115.0, 49.0)">o</text><text xml:space="preserve" font-family="GillSans" font-size="20.0" fill="#000000" transform="matrix(1.00, 0.00, -0.00, -1.00, 125.8, 49.0)">w</text><text xml:space="preserve" font-family="GillSans" font-size="20.0" fill="#000000" transform="matrix(1.00, 0.00, -0.00, -1.00, 140.2, 49.0)">n</text><text xml:space="preserve" font-family="GillSans" font-size="20.0" fill="#000000" transform="matrix(1.00, 0.00, -0.00, -1.00, 150.2, 49.0)"> </text><text xml:space="preserve" font-family="GillSans" font-size="20.0" fill="#000000" transform="matrix(1.00, 0.00, -0.00, -1.00, 155.7, 49.0)">i</text><text xml:space="preserve" font-family="GillSans" font-size="20.0" fill="#000000" transform="matrix(1.00, 0.00, -0.00, -1.00, 160.1, 49.0)">n</text><text xml:space="preserve" font-family="GillSans" font-size="20.0" fill="#000000" transform="matrix(1.00, 0.00, -0.00, -1.00, 170.1, 49.0)"> </text><text xml:space="preserve" font-family="GillSans" font-size="20.0" fill="#000000" transform="matrix(1.00, 0.00, -0.00, -1.00, 175.7, 49.0)">c</text><text xml:space="preserve" font-family="GillSans" font-size="20.0" fill="#000000" transform="matrix(1.00, 0.00, -0.00, -1.00, 184.4, 49.0)">o</text><text xml:space="preserve" font-family="GillSans" font-size="20.0" fill="#000000" transform="matrix(1.00, 0.00, -0.00, -1.00, 195.5, 49.0)">l</text><text xml:space="preserve" font-family="GillSans" font-size="20.0" fill="#000000" transform="matrix(1.00, 0.00, -0.00, -1.00, 199.9, 49.0)">d</text><text xml:space="preserve" font-family="GillSans" font-size="20.0" fill="#000000" transform="matrix(1.00, 0.00, -0.00, -1.00, 210.0, 49.0)">e</text><text xml:space="preserve" font-family="GillSans" font-size="20.0" fill="#000000" transform="matrix(1.00, 0.00, -0.00, -1.00, 219.6, 49.0)">r</text><text xml:space="preserve" font-family="GillSans" font-size="20.0" fill="#000000" transform="matrix(1.00, 0.00, -0.00, -1.00, 227.5, 49.0)"> </text><text xml:space="preserve" font-family="GillSans" font-size="20.0" fill="#000000" transform="matrix(1.00, 0.00, -0.00, -1.00, 233.1, 49.0)">t</text><text xml:space="preserve" font-family="GillSans" font-size="20.0" fill="#000000" transform="matrix(1.00, 0.00, -0.00, -1.00, 239.8, 49.0)">e</text><text xml:space="preserve" font-family="GillSans" font-size="20.0" fill="#000000" transform="matrix(1.00, 0.00, -0.00, -1.00, 249.3, 49.0)">m</text><text xml:space="preserve" font-family="GillSans" font-size="20.0" fill="#000000" transform="matrix(1.00, 0.00, -0.00, -1.00, 264.8, 49.0)">p</text><text xml:space="preserve" font-family="GillSans" font-size="20.0" fill="#000000" transform="matrix(1.00, 0.00, -0.00, -1.00, 274.8, 49.0)">e</text><text xml:space="preserve" font-family="GillSans" font-size="20.0" fill="#000000" transform="matrix(1.00, 0.00, -0.00, -1.00, 284.3, 49.0)">r</text><text xml:space="preserve" font-family="GillSans" font-size="20.0" fill="#000000" transform="matrix(1.00, 0.00, -0.00, -1.00, 292.3, 49.0)">a</text><text xml:space="preserve" font-family="GillSans" font-size="20.0" fill="#000000" transform="matrix(1.00, 0.00, -0.00, -1.00, 300.8, 49.0)">t</text><text xml:space="preserve" font-family="GillSans" font-size="20.0" fill="#000000" transform="matrix(1.00, 0.00, -0.00, -1.00, 307.4, 49.0)">e</text><text xml:space="preserve" font-family="GillSans" font-size="20.0" fill="#000000" transform="matrix(1.00, 0.00, -0.00, -1.00, 317.0, 49.0)"> </text><text xml:space="preserve" font-family="GillSans" font-size="20.0" fill="#000000" transform="matrix(1.00, 0.00, -0.00, -1.00, 322.6, 49.0)">c</text><text xml:space="preserve" font-family="GillSans" font-size="20.0" fill="#000000" transform="matrix(1.00, 0.00, -0.00, -1.00, 331.3, 49.0)">l</text><text xml:space="preserve" font-family="GillSans" font-size="20.0" fill="#000000" transform="matrix(1.00, 0.00, -0.00, -1.00, 335.7, 49.0)">i</text><text xml:space="preserve" font-family="GillSans" font-size="20.0" fill="#000000" transform="matrix(1.00, 0.00, -0.00, -1.00, 340.1, 49.0)">m</text><text xml:space="preserve" font-family="GillSans" font-size="20.0" fill="#000000" transform="matrix(1.00, 0.00, -0.00, -1.00, 355.5, 49.0)">a</text><text xml:space="preserve" font-family="GillSans" font-size="20.0" fill="#000000" transform="matrix(1.00, 0.00, -0.00, -1.00, 364.1, 49.0)">t</text><text xml:space="preserve" font-family="GillSans" font-size="20.0" fill="#000000" transform="matrix(1.00, 0.00, -0.00, -1.00, 370.7, 49.0)">e</text><text xml:space="preserve" font-family="GillSans" font-size="20.0" fill="#000000" transform="matrix(1.00, 0.00, -0.00, -1.00, 380.3, 49.0)">s</text><text xml:space="preserve" font-family="GillSans" font-size="20.0" fill="#000000" transform="matrix(1.00, 0.00, -0.00, -1.00, 388.0, 49.0)"> </text><text xml:space="preserve" font-family="GillSans" font-size="20.0" fill="#000000" transform="matrix(1.00, 0.00, -0.00, -1.00, 393.6, 49.0)">i</text><text xml:space="preserve" font-family="GillSans" font-size="20.0" fill="#000000" transform="matrix(1.00, 0.00, -0.00, -1.00, 397.9, 49.0)">n</text><text xml:space="preserve" font-family="GillSans" font-size="20.0" fill="#000000" transform="matrix(1.00, 0.00, -0.00, -1.00, 407.9, 49.0)">c</text><text xml:space="preserve" font-family="GillSans" font-size="20.0" fill="#000000" transform="matrix(1.00, 0.00, -0.00, -1.00, 416.7, 49.0)">l</text><text xml:space="preserve" font-family="GillSans" font-size="20.0" fill="#000000" transform="matrix(1.00, 0.00, -0.00, -1.00, 421.1, 49.0)">u</text><text xml:space="preserve" font-family="GillSans" font-size="20.0" fill="#000000" transform="matrix(1.00, 0.00, -0.00, -1.00, 431.1, 49.0)">d</text><text xml:space="preserve" font-family="GillSans" font-size="20.0" fill="#000000" transform="matrix(1.00, 0.00, -0.00, -1.00, 441.3, 49.0)">i</text><text xml:space="preserve" font-family="GillSans" font-size="20.0" fill="#000000" transform="matrix(1.00, 0.00, -0.00, -1.00, 445.7, 49.0)">n</text><text xml:space="preserve" font-family="GillSans" font-size="20.0" fill="#000000" transform="matrix(1.00, 0.00, -0.00, -1.00, 455.7, 49.0)">g</text><text xml:space="preserve" font-family="GillSans" font-size="20.0" fill="#000000" transform="matrix(1.00, 0.00, -0.00, -1.00, 464.2, 49.0)"> </text><text xml:space="preserve" font-family="GillSans" font-size="20.0" fill="#000000" transform="matrix(1.00, 0.00, -0.00, -1.00, 469.8, 49.0)">N</text><text xml:space="preserve" font-family="GillSans" font-size="20.0" fill="#000000" transform="matrix(1.00, 0.00, -0.00, -1.00, 485.4, 49.0)">E</text><text xml:space="preserve" font-family="GillSans" font-size="20.0" fill="#000000" transform="matrix(1.00, 0.00, -0.00, -1.00, 495.4, 49.0)"> </text><text xml:space="preserve" font-family="GillSans" font-size="20.0" fill="#000000" transform="matrix(1.00, 0.00, -0.00, -1.00, 498.9, 49.0)">A</text><text xml:space="preserve" font-family="GillSans" font-size="20.0" fill="#000000" transform="matrix(1.00, 0.00, -0.00, -1.00, 512.3, 49.0)">s</text><text xml:space="preserve" font-family="GillSans" font-size="20.0" fill="#000000" transform="matrix(1.00, 0.00, -0.00, -1.00, 519.9, 49.0)">i</text><text xml:space="preserve" font-family="GillSans" font-size="20.0" fill="#000000" transform="matrix(1.00, 0.00, -0.00, -1.00, 524.3, 49.0)">a</text><text xml:space="preserve" font-family="GillSans" font-size="20.0" fill="#000000" transform="matrix(1.00, 0.00, -0.00, -1.00, 532.9, 49.0)">,</text><text xml:space="preserve" font-family="GillSans" font-size="20.0" fill="#000000" transform="matrix(1.00, 0.00, -0.00, -1.00, 535.3, 49.0)"> </text><text xml:space="preserve" font-family="GillSans" font-size="20.0" fill="#000000" transform="matrix(1.00, 0.00, -0.00, -1.00, 540.8, 49.0)">E</text><text xml:space="preserve" font-family="GillSans" font-size="20.0" fill="#000000" transform="matrix(1.00, 0.00, -0.00, -1.00, 550.8, 49.0)">u</text><text xml:space="preserve" font-family="GillSans" font-size="20.0" fill="#000000" transform="matrix(1.00, 0.00, -0.00, -1.00, 560.8, 49.0)">r</text><text xml:space="preserve" font-family="GillSans" font-size="20.0" fill="#000000" transform="matrix(1.00, 0.00, -0.00, -1.00, 568.2, 49.0)">o</text><text xml:space="preserve" font-family="GillSans" font-size="20.0" fill="#000000" transform="matrix(1.00, 0.00, -0.00, -1.00, 579.3, 49.0)">p</text><text xml:space="preserve" font-family="GillSans" font-size="20.0" fill="#000000" transform="matrix(1.00, 0.00, -0.00, -1.00, 589.3, 49.0)">e</text><text xml:space="preserve" font-family="GillSans" font-size="20.0" fill="#000000" transform="matrix(1.00, 0.00, -0.00, -1.00, 599.2, 49.0)">,</text><text xml:space="preserve" font-family="GillSans" font-size="20.0" fill="#000000" transform="matrix(1.00, 0.00, -0.00, -1.00, 601.6, 49.0)"> </text><text xml:space="preserve" font-family="GillSans" font-size="20.0" fill="#000000" transform="matrix(1.00, 0.00, -0.00, -1.00, 604.7, 49.0)">W</text><text xml:space="preserve" font-family="GillSans" font-size="20.0" fill="#000000" transform="matrix(1.00, 0.00, -0.00, -1.00, 623.7, 49.0)">e</text><text xml:space="preserve" font-family="GillSans" font-size="20.0" fill="#000000" transform="matrix(1.00, 0.00, -0.00, -1.00, 633.3, 49.0)">s</text><text xml:space="preserve" font-family="GillSans" font-size="20.0" fill="#000000" transform="matrix(1.00, 0.00, -0.00, -1.00, 641.0, 49.0)">t</text><text xml:space="preserve" font-family="GillSans" font-size="20.0" fill="#000000" transform="matrix(1.00, 0.00, -0.00, -1.00, 647.7, 49.0)">e</text><text xml:space="preserve" font-family="GillSans" font-size="20.0" fill="#000000" transform="matrix(1.00, 0.00, -0.00, -1.00, 657.2, 49.0)">r</text><text xml:space="preserve" font-family="GillSans" font-size="20.0" fill="#000000" transform="matrix(1.00, 0.00, -0.00, -1.00, 665.2, 49.0)">n</text><text xml:space="preserve" font-family="GillSans" font-size="20.0" fill="#000000" transform="matrix(1.00, 0.00, -0.00, -1.00, 675.2, 49.0)"> </text><text xml:space="preserve" font-family="GillSans" font-size="20.0" fill="#000000" transform="matrix(1.00, 0.00, -0.00, -1.00, 680.7, 49.0)">U</text><text xml:space="preserve" font-family="GillSans" font-size="20.0" fill="#000000" transform="matrix(1.00, 0.00, -0.00, -1.00, 694.9, 49.0)">S</text><text xml:space="preserve" font-family="GillSans" font-size="20.0" fill="#000000" transform="matrix(1.00, 0.00, -0.00, -1.00, 704.0, 49.0)">.</text><text xml:space="preserve" font-family="GillSans" font-size="20.0" fill="#000000" transform="matrix(1.00, 0.00, -0.00, -1.00, 706.4, 49.0)"> </text><text xml:space="preserve" font-family="GillSans" font-size="20.0" fill="#000000" transform="matrix(1.00, 0.00, -0.00, -1.00, 712.0, 49.0)">C</text><text xml:space="preserve" font-family="GillSans" font-size="20.0" fill="#000000" transform="matrix(1.00, 0.00, -0.00, -1.00, 726.1, 49.0)">h</text><text xml:space="preserve" font-family="GillSans" font-size="20.0" fill="#000000" transform="matrix(1.00, 0.00, -0.00, -1.00, 736.1, 49.0)">i</text><text xml:space="preserve" font-family="GillSans" font-size="20.0" fill="#000000" transform="matrix(1.00, 0.00, -0.00, -1.00, 740.5, 49.0)">l</text><text xml:space="preserve" font-family="GillSans" font-size="20.0" fill="#000000" transform="matrix(1.00, 0.00, -0.00, -1.00, 744.9, 49.0)">e</text><text xml:space="preserve" font-family="GillSans" font-size="20.0" fill="#000000" transform="matrix(1.00, 0.00, -0.00, -1.00, 754.9, 49.0)">,</text><text xml:space="preserve" font-family="GillSans" font-size="20.0" fill="#000000" transform="matrix(1.00, 0.00, -0.00, -1.00, 757.3, 49.0)"> </text><text xml:space="preserve" font-family="GillSans" font-size="20.0" fill="#000000" transform="matrix(1.00, 0.00, -0.00, -1.00, 762.8, 49.0)"> </text><text xml:space="preserve" font-family="GillSans" font-size="20.0" fill="#000000" transform="matrix(1.00, 0.00, -0.00, -1.00, 766.4, 49.0)">A</text><text xml:space="preserve" font-family="GillSans" font-size="20.0" fill="#000000" transform="matrix(1.00, 0.00, -0.00, -1.00, 779.7, 49.0)">u</text><text xml:space="preserve" font-family="GillSans" font-size="20.0" fill="#000000" transform="matrix(1.00, 0.00, -0.00, -1.00, 789.7, 49.0)">s</text><text xml:space="preserve" font-family="GillSans" font-size="20.0" fill="#000000" transform="matrix(1.00, 0.00, -0.00, -1.00, 797.4, 49.0)">t</text><text xml:space="preserve" font-family="GillSans" font-size="20.0" fill="#000000" transform="matrix(1.00, 0.00, -0.00, -1.00, 804.1, 49.0)">r</text><text xml:space="preserve" font-family="GillSans" font-size="20.0" fill="#000000" transform="matrix(1.00, 0.00, -0.00, -1.00, 812.0, 49.0)">a</text><text xml:space="preserve" font-family="GillSans" font-size="20.0" fill="#000000" transform="matrix(1.00, 0.00, -0.00, -1.00, 820.5, 49.0)">l</text><text xml:space="preserve" font-family="GillSans" font-size="20.0" fill="#000000" transform="matrix(1.00, 0.00, -0.00, -1.00, 824.9, 49.0)">i</text><text xml:space="preserve" font-family="GillSans" font-size="20.0" fill="#000000" transform="matrix(1.00, 0.00, -0.00, -1.00, 829.3, 49.0)">a</text><text xml:space="preserve" font-family="GillSans" font-size="34.2" fill="#000000" transform="matrix(1.00, 0.00, -0.00, -1.00, 35.0, 8.8)">•</text><text xml:space="preserve" font-family="GillSans" font-size="20.0" fill="#000000" transform="matrix(1.00, 0.00, -0.00, -1.00, 57.0, 14.0)">S</text><text xml:space="preserve" font-family="GillSans" font-size="20.0" fill="#000000" transform="matrix(1.00, 0.00, -0.00, -1.00, 66.2, 14.0)">u</text><text xml:space="preserve" font-family="GillSans" font-size="20.0" fill="#000000" transform="matrix(1.00, 0.00, -0.00, -1.00, 76.2, 14.0)">b</text><text xml:space="preserve" font-family="GillSans" font-size="20.0" fill="#000000" transform="matrix(1.00, 0.00, -0.00, -1.00, 86.2, 14.0)">d</text><text xml:space="preserve" font-family="GillSans" font-size="20.0" fill="#000000" transform="matrix(1.00, 0.00, -0.00, -1.00, 96.4, 14.0)">i</text><text xml:space="preserve" font-family="GillSans" font-size="20.0" fill="#000000" transform="matrix(1.00, 0.00, -0.00, -1.00, 100.7, 14.0)">v</text><text xml:space="preserve" font-family="GillSans" font-size="20.0" fill="#000000" transform="matrix(1.00, 0.00, -0.00, -1.00, 109.5, 14.0)">i</text><text xml:space="preserve" font-family="GillSans" font-size="20.0" fill="#000000" transform="matrix(1.00, 0.00, -0.00, -1.00, 113.9, 14.0)">d</text><text xml:space="preserve" font-family="GillSans" font-size="20.0" fill="#000000" transform="matrix(1.00, 0.00, -0.00, -1.00, 124.1, 14.0)">e</text><text xml:space="preserve" font-family="GillSans" font-size="20.0" fill="#000000" transform="matrix(1.00, 0.00, -0.00, -1.00, 133.7, 14.0)">d</text><text xml:space="preserve" font-family="GillSans" font-size="20.0" fill="#000000" transform="matrix(1.00, 0.00, -0.00, -1.00, 143.9, 14.0)"> </text><text xml:space="preserve" font-family="GillSans" font-size="20.0" fill="#000000" transform="matrix(1.00, 0.00, -0.00, -1.00, 149.4, 14.0)">i</text><text xml:space="preserve" font-family="GillSans" font-size="20.0" fill="#000000" transform="matrix(1.00, 0.00, -0.00, -1.00, 153.8, 14.0)">n</text><text xml:space="preserve" font-family="GillSans" font-size="20.0" fill="#000000" transform="matrix(1.00, 0.00, -0.00, -1.00, 163.8, 14.0)">t</text><text xml:space="preserve" font-family="GillSans" font-size="20.0" fill="#000000" transform="matrix(1.00, 0.00, -0.00, -1.00, 170.5, 14.0)">o</text><text xml:space="preserve" font-family="GillSans" font-size="20.0" fill="#000000" transform="matrix(1.00, 0.00, -0.00, -1.00, 181.5, 14.0)"> </text><text xml:space="preserve" font-family="GillSans-Italic" font-style="italic" font-size="20.0" fill="#000000" transform="matrix(1.00, 0.00, -0.00, -1.00, 187.0, 14.0)">t</text><text xml:space="preserve" font-family="GillSans-Italic" font-style="italic" font-size="20.0" fill="#000000" transform="matrix(1.00, 0.00, -0.00, -1.00, 192.7, 14.0)">r</text><text xml:space="preserve" font-family="GillSans-Italic" font-style="italic" font-size="20.0" fill="#000000" transform="matrix(1.00, 0.00, -0.00, -1.00, 198.5, 14.0)">o</text><text xml:space="preserve" font-family="GillSans-Italic" font-style="italic" font-size="20.0" fill="#000000" transform="matrix(1.00, 0.00, -0.00, -1.00, 207.5, 14.0)">p</text><text xml:space="preserve" font-family="GillSans-Italic" font-style="italic" font-size="20.0" fill="#000000" transform="matrix(1.00, 0.00, -0.00, -1.00, 217.3, 14.0)">i</text><text xml:space="preserve" font-family="GillSans-Italic" font-style="italic" font-size="20.0" fill="#000000" transform="matrix(1.00, 0.00, -0.00, -1.00, 221.1, 14.0)">c</text><text xml:space="preserve" font-family="GillSans-Italic" font-style="italic" font-size="20.0" fill="#000000" transform="matrix(1.00, 0.00, -0.00, -1.00, 228.7, 14.0)">a</text><text xml:space="preserve" font-family="GillSans-Italic" font-style="italic" font-size="20.0" fill="#000000" transform="matrix(1.00, 0.00, -0.00, -1.00, 238.1, 14.0)">l</text><text xml:space="preserve" font-family="GillSans-Italic" font-style="italic" font-size="20.0" fill="#000000" transform="matrix(1.00, 0.00, -0.00, -1.00, 241.9, 14.0)"> </text><text xml:space="preserve" font-family="GillSans-Italic" font-style="italic" font-size="20.0" fill="#000000" transform="matrix(1.00, 0.00, -0.00, -1.00, 247.4, 14.0)">j</text><text xml:space="preserve" font-family="GillSans-Italic" font-style="italic" font-size="20.0" fill="#000000" transform="matrix(1.00, 0.00, -0.00, -1.00, 251.2, 14.0)">a</text><text xml:space="preserve" font-family="GillSans-Italic" font-style="italic" font-size="20.0" fill="#000000" transform="matrix(1.00, 0.00, -0.00, -1.00, 260.6, 14.0)">p</text><text xml:space="preserve" font-family="GillSans-Italic" font-style="italic" font-size="20.0" fill="#000000" transform="matrix(1.00, 0.00, -0.00, -1.00, 270.4, 14.0)">o</text><text xml:space="preserve" font-family="GillSans-Italic" font-style="italic" font-size="20.0" fill="#000000" transform="matrix(1.00, 0.00, -0.00, -1.00, 279.4, 14.0)">n</text><text xml:space="preserve" font-family="GillSans-Italic" font-style="italic" font-size="20.0" fill="#000000" transform="matrix(1.00, 0.00, -0.00, -1.00, 288.8, 14.0)">i</text><text xml:space="preserve" font-family="GillSans-Italic" font-style="italic" font-size="20.0" fill="#000000" transform="matrix(1.00, 0.00, -0.00, -1.00, 292.5, 14.0)">c</text><text xml:space="preserve" font-family="GillSans-Italic" font-style="italic" font-size="20.0" fill="#000000" transform="matrix(1.00, 0.00, -0.00, -1.00, 300.2, 14.0)">a</text><text xml:space="preserve" font-family="GillSans" font-size="20.0" fill="#000000" transform="matrix(1.00, 0.00, -0.00, -1.00, 309.6, 14.0)">,</text><text xml:space="preserve" font-family="GillSans" font-size="20.0" fill="#000000" transform="matrix(1.00, 0.00, -0.00, -1.00, 312.0, 14.0)"> </text><text xml:space="preserve" font-family="GillSans-Italic" font-style="italic" font-size="20.0" fill="#000000" transform="matrix(1.00, 0.00, -0.00, -1.00, 317.5, 14.0)">t</text><text xml:space="preserve" font-family="GillSans-Italic" font-style="italic" font-size="20.0" fill="#000000" transform="matrix(1.00, 0.00, -0.00, -1.00, 323.1, 14.0)">e</text><text xml:space="preserve" font-family="GillSans-Italic" font-style="italic" font-size="20.0" fill="#000000" transform="matrix(1.00, 0.00, -0.00, -1.00, 331.9, 14.0)">m</text><text xml:space="preserve" font-family="GillSans-Italic" font-style="italic" font-size="20.0" fill="#000000" transform="matrix(1.00, 0.00, -0.00, -1.00, 346.7, 14.0)">p</text><text xml:space="preserve" font-family="GillSans-Italic" font-style="italic" font-size="20.0" fill="#000000" transform="matrix(1.00, 0.00, -0.00, -1.00, 356.5, 14.0)">e</text><text xml:space="preserve" font-family="GillSans-Italic" font-style="italic" font-size="20.0" fill="#000000" transform="matrix(1.00, 0.00, -0.00, -1.00, 365.3, 14.0)">r</text><text xml:space="preserve" font-family="GillSans-Italic" font-style="italic" font-size="20.0" fill="#000000" transform="matrix(1.00, 0.00, -0.00, -1.00, 371.1, 14.0)">a</text><text xml:space="preserve" font-family="GillSans-Italic" font-style="italic" font-size="20.0" fill="#000000" transform="matrix(1.00, 0.00, -0.00, -1.00, 380.5, 14.0)">t</text><text xml:space="preserve" font-family="GillSans-Italic" font-style="italic" font-size="20.0" fill="#000000" transform="matrix(1.00, 0.00, -0.00, -1.00, 386.1, 14.0)">e</text><text xml:space="preserve" font-family="GillSans-Italic" font-style="italic" font-size="20.0" fill="#000000" transform="matrix(1.00, 0.00, -0.00, -1.00, 394.9, 14.0)"> </text><text xml:space="preserve" font-family="GillSans-Italic" font-style="italic" font-size="20.0" fill="#000000" transform="matrix(1.00, 0.00, -0.00, -1.00, 400.4, 14.0)">j</text><text xml:space="preserve" font-family="GillSans-Italic" font-style="italic" font-size="20.0" fill="#000000" transform="matrix(1.00, 0.00, -0.00, -1.00, 404.2, 14.0)">a</text><text xml:space="preserve" font-family="GillSans-Italic" font-style="italic" font-size="20.0" fill="#000000" transform="matrix(1.00, 0.00, -0.00, -1.00, 413.6, 14.0)">p</text><text xml:space="preserve" font-family="GillSans-Italic" font-style="italic" font-size="20.0" fill="#000000" transform="matrix(1.00, 0.00, -0.00, -1.00, 423.4, 14.0)">o</text><text xml:space="preserve" font-family="GillSans-Italic" font-style="italic" font-size="20.0" fill="#000000" transform="matrix(1.00, 0.00, -0.00, -1.00, 432.4, 14.0)">n</text><text xml:space="preserve" font-family="GillSans-Italic" font-style="italic" font-size="20.0" fill="#000000" transform="matrix(1.00, 0.00, -0.00, -1.00, 441.8, 14.0)">i</text><text xml:space="preserve" font-family="GillSans-Italic" font-style="italic" font-size="20.0" fill="#000000" transform="matrix(1.00, 0.00, -0.00, -1.00, 445.5, 14.0)">c</text><text xml:space="preserve" font-family="GillSans-Italic" font-style="italic" font-size="20.0" fill="#000000" transform="matrix(1.00, 0.00, -0.00, -1.00, 453.2, 14.0)">a</text><text xml:space="preserve" font-family="GillSans-Italic" font-style="italic" font-size="20.0" fill="#000000" transform="matrix(1.00, 0.00, -0.00, -1.00, 462.6, 14.0)">,</text><text xml:space="preserve" font-family="GillSans" font-size="20.0" fill="#000000" transform="matrix(1.00, 0.00, -0.00, -1.00, 466.6, 14.0)"> </text><text xml:space="preserve" font-family="GillSans" font-size="20.0" fill="#000000" transform="matrix(1.00, 0.00, -0.00, -1.00, 472.1, 14.0)">a</text><text xml:space="preserve" font-family="GillSans" font-size="20.0" fill="#000000" transform="matrix(1.00, 0.00, -0.00, -1.00, 480.6, 14.0)">n</text><text xml:space="preserve" font-family="GillSans" font-size="20.0" fill="#000000" transform="matrix(1.00, 0.00, -0.00, -1.00, 490.6, 14.0)">d</text><text xml:space="preserve" font-family="GillSans" font-size="20.0" fill="#000000" transform="matrix(1.00, 0.00, -0.00, -1.00, 500.8, 14.0)"> </text><text xml:space="preserve" font-family="GillSans-Italic" font-style="italic" font-size="20.0" fill="#000000" transform="matrix(1.00, 0.00, -0.00, -1.00, 506.4, 14.0)">a</text><text xml:space="preserve" font-family="GillSans-Italic" font-style="italic" font-size="20.0" fill="#000000" transform="matrix(1.00, 0.00, -0.00, -1.00, 515.8, 14.0)">r</text><text xml:space="preserve" font-family="GillSans-Italic" font-style="italic" font-size="20.0" fill="#000000" transform="matrix(1.00, 0.00, -0.00, -1.00, 521.6, 14.0)">o</text><text xml:space="preserve" font-family="GillSans-Italic" font-style="italic" font-size="20.0" fill="#000000" transform="matrix(1.00, 0.00, -0.00, -1.00, 530.6, 14.0)">m</text><text xml:space="preserve" font-family="GillSans-Italic" font-style="italic" font-size="20.0" fill="#000000" transform="matrix(1.00, 0.00, -0.00, -1.00, 545.4, 14.0)">a</text><text xml:space="preserve" font-family="GillSans-Italic" font-style="italic" font-size="20.0" fill="#000000" transform="matrix(1.00, 0.00, -0.00, -1.00, 554.8, 14.0)">t</text><text xml:space="preserve" font-family="GillSans-Italic" font-style="italic" font-size="20.0" fill="#000000" transform="matrix(1.00, 0.00, -0.00, -1.00, 560.4, 14.0)">i</text><text xml:space="preserve" font-family="GillSans-Italic" font-style="italic" font-size="20.0" fill="#000000" transform="matrix(1.00, 0.00, -0.00, -1.00, 564.2, 14.0)">c</text></g></svg>