<?xml version="1.0" encoding="UTF-8" standalone="no"?><svg xmlns="http://www.w3.org/2000/svg" xmlns:xlink="http://www.w3.org/1999/xlink" clip-rule="evenodd" stroke-miterlimit="4.00" viewBox="0 0 849 111"><desc>SVG generated by Keynote</desc><defs></defs><g transform="matrix(1.00, 0.00, -0.00, -1.00, 0.0, 111.0)"><text xml:space="preserve" font-family="Helvetica" font-size="34.0" fill="#000000" transform="matrix(1.00, 0.00, -0.00, -1.00, 0.0, 84.1)">•</text><text xml:space="preserve" font-family="Helvetica" font-size="34.0" fill="#000000" transform="matrix(1.00, 0.00, -0.00, -1.00, 27.0, 84.0)">I</text><text xml:space="preserve" font-family="Helvetica" font-size="34.0" fill="#000000" transform="matrix(1.00, 0.00, -0.00, -1.00, 36.4, 84.0)">s</text><text xml:space="preserve" font-family="Helvetica" font-size="34.0" fill="#000000" transform="matrix(1.00, 0.00, -0.00, -1.00, 53.4, 84.0)"> </text><text xml:space="preserve" font-family="Helvetica" font-size="34.0" fill="#000000" transform="matrix(1.00, 0.00, -0.00, -1.00, 62.9, 84.0)">i</text><text xml:space="preserve" font-family="Helvetica" font-size="34.0" fill="#000000" transform="matrix(1.00, 0.00, -0.00, -1.00, 70.4, 84.0)">t</text><text xml:space="preserve" font-family="Helvetica" font-size="34.0" fill="#000000" transform="matrix(1.00, 0.00, -0.00, -1.00, 79.9, 84.0)"> </text><text xml:space="preserve" font-family="Helvetica" font-size="34.0" fill="#000000" transform="matrix(1.00, 0.00, -0.00, -1.00, 89.3, 84.0)">h</text><text xml:space="preserve" font-family="Helvetica" font-size="34.0" fill="#000000" transform="matrix(1.00, 0.00, -0.00, -1.00, 108.2, 84.0)">o</text><text xml:space="preserve" font-family="Helvetica" font-size="34.0" fill="#000000" transform="matrix(1.00, 0.00, -0.00, -1.00, 127.2, 84.0)">p</text><text xml:space="preserve" font-family="Helvetica" font-size="34.0" fill="#000000" transform="matrix(1.00, 0.00, -0.00, -1.00, 146.1, 84.0)">e</text><text xml:space="preserve" font-family="Helvetica" font-size="34.0" fill="#000000" transform="matrix(1.00, 0.00, -0.00, -1.00, 165.0, 84.0)">l</text><text xml:space="preserve" font-family="Helvetica" font-size="34.0" fill="#000000" transform="matrix(1.00, 0.00, -0.00, -1.00, 172.5, 84.0)">e</text><text xml:space="preserve" font-family="Helvetica" font-size="34.0" fill="#000000" transform="matrix(1.00, 0.00, -0.00, -1.00, 191.5, 84.0)">s</text><text xml:space="preserve" font-family="Helvetica" font-size="34.0" fill="#000000" transform="matrix(1.00, 0.00, -0.00, -1.00, 208.5, 84.0)">s</text><text xml:space="preserve" font-family="Helvetica" font-size="34.0" fill="#000000" transform="matrix(1.00, 0.00, -0.00, -1.00, 225.5, 84.0)">?</text><text xml:space="preserve" font-family="Helvetica" font-size="28.0" fill="#000000" transform="matrix(1.00, 0.00, -0.00, -1.00, 36.0, 41.8)">–</text><text xml:space="preserve" font-family="Helvetica" font-size="28.0" fill="#000000" transform="matrix(1.00, 0.00, -0.00, -1.00, 58.0, 42.0)">D</text><text xml:space="preserve" font-family="Helvetica" font-size="28.0" fill="#000000" transform="matrix(1.00, 0.00, -0.00, -1.00, 78.2, 42.0)">o</text><text xml:space="preserve" font-family="Helvetica" font-size="28.0" fill="#000000" transform="matrix(1.00, 0.00, -0.00, -1.00, 93.8, 42.0)"> </text><text xml:space="preserve" font-family="Helvetica" font-size="28.0" fill="#000000" transform="matrix(1.00, 0.00, -0.00, -1.00, 101.6, 42.0)">w</text><text xml:space="preserve" font-family="Helvetica" font-size="28.0" fill="#000000" transform="matrix(1.00, 0.00, -0.00, -1.00, 121.8, 42.0)">e</text><text xml:space="preserve" font-family="Helvetica" font-size="28.0" fill="#000000" transform="matrix(1.00, 0.00, -0.00, -1.00, 137.4, 42.0)"> </text><text xml:space="preserve" font-family="Helvetica" font-size="28.0" fill="#000000" transform="matrix(1.00, 0.00, -0.00, -1.00, 145.2, 42.0)">h</text><text xml:space="preserve" font-family="Helvetica" font-size="28.0" fill="#000000" transform="matrix(1.00, 0.00, -0.00, -1.00, 160.7, 42.0)">a</text><text xml:space="preserve" font-family="Helvetica" font-size="28.0" fill="#000000" transform="matrix(1.00, 0.00, -0.00, -1.00, 176.3, 42.0)">v</text><text xml:space="preserve" font-family="Helvetica" font-size="28.0" fill="#000000" transform="matrix(1.00, 0.00, -0.00, -1.00, 190.3, 42.0)">e</text><text xml:space="preserve" font-family="Helvetica" font-size="28.0" fill="#000000" transform="matrix(1.00, 0.00, -0.00, -1.00, 205.9, 42.0)"> </text><text xml:space="preserve" font-family="Helvetica" font-size="28.0" fill="#000000" transform="matrix(1.00, 0.00, -0.00, -1.00, 213.7, 42.0)">l</text><text xml:space="preserve" font-family="Helvetica" font-size="28.0" fill="#000000" transform="matrix(1.00, 0.00, -0.00, -1.00, 219.9, 42.0)">e</text><text xml:space="preserve" font-family="Helvetica" font-size="28.0" fill="#000000" transform="matrix(1.00, 0.00, -0.00, -1.00, 235.5, 42.0)">s</text><text xml:space="preserve" font-family="Helvetica" font-size="28.0" fill="#000000" transform="matrix(1.00, 0.00, -0.00, -1.00, 249.5, 42.0)">s</text><text xml:space="preserve" font-family="Helvetica" font-size="28.0" fill="#000000" transform="matrix(1.00, 0.00, -0.00, -1.00, 263.5, 42.0)"> </text><text xml:space="preserve" font-family="Helvetica" font-size="28.0" fill="#000000" transform="matrix(1.00, 0.00, -0.00, -1.00, 271.2, 42.0)">t</text><text xml:space="preserve" font-family="Helvetica" font-size="28.0" fill="#000000" transform="matrix(1.00, 0.00, -0.00, -1.00, 279.0, 42.0)">h</text><text xml:space="preserve" font-family="Helvetica" font-size="28.0" fill="#000000" transform="matrix(1.00, 0.00, -0.00, -1.00, 294.6, 42.0)">a</text><text xml:space="preserve" font-family="Helvetica" font-size="28.0" fill="#000000" transform="matrix(1.00, 0.00, -0.00, -1.00, 310.2, 42.0)">n</text><text xml:space="preserve" font-family="Helvetica" font-size="28.0" fill="#000000" transform="matrix(1.00, 0.00, -0.00, -1.00, 325.7, 42.0)"> </text><text xml:space="preserve" font-family="Helvetica" font-size="28.0" fill="#000000" transform="matrix(1.00, 0.00, -0.00, -1.00, 333.5, 42.0)">a</text><text xml:space="preserve" font-family="Helvetica" font-size="28.0" fill="#000000" transform="matrix(1.00, 0.00, -0.00, -1.00, 349.1, 42.0)"> </text><text xml:space="preserve" font-family="Helvetica" font-size="28.0" fill="#000000" transform="matrix(1.00, 0.00, -0.00, -1.00, 356.9, 42.0)">1</text><text xml:space="preserve" font-family="Helvetica" font-size="28.0" fill="#000000" transform="matrix(1.00, 0.00, -0.00, -1.00, 372.5, 42.0)"> </text><text xml:space="preserve" font-family="Helvetica" font-size="28.0" fill="#000000" transform="matrix(1.00, 0.00, -0.00, -1.00, 380.2, 42.0)">i</text><text xml:space="preserve" font-family="Helvetica" font-size="28.0" fill="#000000" transform="matrix(1.00, 0.00, -0.00, -1.00, 386.5, 42.0)">n</text><text xml:space="preserve" font-family="Helvetica" font-size="28.0" fill="#000000" transform="matrix(1.00, 0.00, -0.00, -1.00, 402.0, 42.0)"> </text><text xml:space="preserve" font-family="Helvetica" font-size="28.0" fill="#000000" transform="matrix(1.00, 0.00, -0.00, -1.00, 409.8, 42.0)">1</text><text xml:space="preserve" font-family="Helvetica" font-size="28.0" fill="#000000" transform="matrix(1.00, 0.00, -0.00, -1.00, 425.4, 42.0)">0</text><text xml:space="preserve" font-family="Helvetica" font-size="28.0" fill="#000000" transform="matrix(1.00, 0.00, -0.00, -1.00, 441.0, 42.0)"> </text><text xml:space="preserve" font-family="Helvetica" font-size="28.0" fill="#000000" transform="matrix(1.00, 0.00, -0.00, -1.00, 448.7, 42.0)">c</text><text xml:space="preserve" font-family="Helvetica" font-size="28.0" fill="#000000" transform="matrix(1.00, 0.00, -0.00, -1.00, 462.7, 42.0)">h</text><text xml:space="preserve" font-family="Helvetica" font-size="28.0" fill="#000000" transform="matrix(1.00, 0.00, -0.00, -1.00, 478.3, 42.0)">a</text><text xml:space="preserve" font-family="Helvetica" font-size="28.0" fill="#000000" transform="matrix(1.00, 0.00, -0.00, -1.00, 493.9, 42.0)">n</text><text xml:space="preserve" font-family="Helvetica" font-size="28.0" fill="#000000" transform="matrix(1.00, 0.00, -0.00, -1.00, 509.5, 42.0)">c</text><text xml:space="preserve" font-family="Helvetica" font-size="28.0" fill="#000000" transform="matrix(1.00, 0.00, -0.00, -1.00, 523.5, 42.0)">e</text><text xml:space="preserve" font-family="Helvetica" font-size="28.0" fill="#000000" transform="matrix(1.00, 0.00, -0.00, -1.00, 539.0, 42.0)"> </text><text xml:space="preserve" font-family="Helvetica" font-size="28.0" fill="#000000" transform="matrix(1.00, 0.00, -0.00, -1.00, 546.8, 42.0)">o</text><text xml:space="preserve" font-family="Helvetica" font-size="28.0" fill="#000000" transform="matrix(1.00, 0.00, -0.00, -1.00, 562.4, 42.0)">f</text><text xml:space="preserve" font-family="Helvetica" font-size="28.0" fill="#000000" transform="matrix(1.00, 0.00, -0.00, -1.00, 570.2, 42.0)"> </text><text xml:space="preserve" font-family="Helvetica" font-size="28.0" fill="#000000" transform="matrix(1.00, 0.00, -0.00, -1.00, 577.9, 42.0)">ﬁ</text><text xml:space="preserve" font-family="Helvetica" font-size="28.0" fill="#000000" transform="matrix(1.00, 0.00, -0.00, -1.00, 591.9, 42.0)">n</text><text xml:space="preserve" font-family="Helvetica" font-size="28.0" fill="#000000" transform="matrix(1.00, 0.00, -0.00, -1.00, 607.5, 42.0)">d</text><text xml:space="preserve" font-family="Helvetica" font-size="28.0" fill="#000000" transform="matrix(1.00, 0.00, -0.00, -1.00, 623.1, 42.0)">i</text><text xml:space="preserve" font-family="Helvetica" font-size="28.0" fill="#000000" transform="matrix(1.00, 0.00, -0.00, -1.00, 629.3, 42.0)">n</text><text xml:space="preserve" font-family="Helvetica" font-size="28.0" fill="#000000" transform="matrix(1.00, 0.00, -0.00, -1.00, 644.9, 42.0)">g</text><text xml:space="preserve" font-family="Helvetica" font-size="28.0" fill="#000000" transform="matrix(1.00, 0.00, -0.00, -1.00, 660.5, 42.0)"> </text><text xml:space="preserve" font-family="Helvetica" font-size="28.0" fill="#000000" transform="matrix(1.00, 0.00, -0.00, -1.00, 668.3, 42.0)">a</text><text xml:space="preserve" font-family="Helvetica" font-size="28.0" fill="#000000" transform="matrix(1.00, 0.00, -0.00, -1.00, 683.8, 42.0)">n</text><text xml:space="preserve" font-family="Helvetica" font-size="28.0" fill="#000000" transform="matrix(1.00, 0.00, -0.00, -1.00, 699.4, 42.0)"> </text><text xml:space="preserve" font-family="Helvetica" font-size="28.0" fill="#000000" transform="matrix(1.00, 0.00, -0.00, -1.00, 707.2, 42.0)">a</text><text xml:space="preserve" font-family="Helvetica" font-size="28.0" fill="#000000" transform="matrix(1.00, 0.00, -0.00, -1.00, 722.8, 42.0)">s</text><text xml:space="preserve" font-family="Helvetica" font-size="28.0" fill="#000000" transform="matrix(1.00, 0.00, -0.00, -1.00, 736.8, 42.0)">s</text><text xml:space="preserve" font-family="Helvetica" font-size="28.0" fill="#000000" transform="matrix(1.00, 0.00, -0.00, -1.00, 750.8, 42.0)">o</text><text xml:space="preserve" font-family="Helvetica" font-size="28.0" fill="#000000" transform="matrix(1.00, 0.00, -0.00, -1.00, 766.3, 42.0)">c</text><text xml:space="preserve" font-family="Helvetica" font-size="28.0" fill="#000000" transform="matrix(1.00, 0.00, -0.00, -1.00, 780.3, 42.0)">i</text><text xml:space="preserve" font-family="Helvetica" font-size="28.0" fill="#000000" transform="matrix(1.00, 0.00, -0.00, -1.00, 786.6, 42.0)">a</text><text xml:space="preserve" font-family="Helvetica" font-size="28.0" fill="#000000" transform="matrix(1.00, 0.00, -0.00, -1.00, 802.1, 42.0)">t</text><text xml:space="preserve" font-family="Helvetica" font-size="28.0" fill="#000000" transform="matrix(1.00, 0.00, -0.00, -1.00, 809.9, 42.0)">i</text><text xml:space="preserve" font-family="Helvetica" font-size="28.0" fill="#000000" transform="matrix(1.00, 0.00, -0.00, -1.00, 816.1, 42.0)">o</text><text xml:space="preserve" font-family="Helvetica" font-size="28.0" fill="#000000" transform="matrix(1.00, 0.00, -0.00, -1.00, 831.7, 42.0)">n</text><text xml:space="preserve" font-family="Helvetica" font-size="28.0" fill="#000000" transform="matrix(1.00, 0.00, -0.00, -1.00, 847.3, 42.0)"> </text><text xml:space="preserve" font-family="Helvetica" font-size="28.0" fill="#000000" transform="matrix(1.00, 0.00, -0.00, -1.00, 58.0, 8.0)">b</text><text xml:space="preserve" font-family="Helvetica" font-size="28.0" fill="#000000" transform="matrix(1.00, 0.00, -0.00, -1.00, 73.6, 8.0)">e</text><text xml:space="preserve" font-family="Helvetica" font-size="28.0" fill="#000000" transform="matrix(1.00, 0.00, -0.00, -1.00, 89.2, 8.0)">c</text><text xml:space="preserve" font-family="Helvetica" font-size="28.0" fill="#000000" transform="matrix(1.00, 0.00, -0.00, -1.00, 103.2, 8.0)">a</text><text xml:space="preserve" font-family="Helvetica" font-size="28.0" fill="#000000" transform="matrix(1.00, 0.00, -0.00, -1.00, 118.7, 8.0)">u</text><text xml:space="preserve" font-family="Helvetica" font-size="28.0" fill="#000000" transform="matrix(1.00, 0.00, -0.00, -1.00, 134.3, 8.0)">s</text><text xml:space="preserve" font-family="Helvetica" font-size="28.0" fill="#000000" transform="matrix(1.00, 0.00, -0.00, -1.00, 148.3, 8.0)">e</text><text xml:space="preserve" font-family="Helvetica" font-size="28.0" fill="#000000" transform="matrix(1.00, 0.00, -0.00, -1.00, 163.9, 8.0)"> </text><text xml:space="preserve" font-family="Helvetica" font-size="28.0" fill="#000000" transform="matrix(1.00, 0.00, -0.00, -1.00, 171.7, 8.0)">w</text><text xml:space="preserve" font-family="Helvetica" font-size="28.0" fill="#000000" transform="matrix(1.00, 0.00, -0.00, -1.00, 191.9, 8.0)">e</text><text xml:space="preserve" font-family="Helvetica" font-size="28.0" fill="#000000" transform="matrix(1.00, 0.00, -0.00, -1.00, 207.5, 8.0)"> </text><text xml:space="preserve" font-family="Helvetica" font-size="28.0" fill="#000000" transform="matrix(1.00, 0.00, -0.00, -1.00, 215.2, 8.0)">a</text><text xml:space="preserve" font-family="Helvetica" font-size="28.0" fill="#000000" transform="matrix(1.00, 0.00, -0.00, -1.00, 230.8, 8.0)">r</text><text xml:space="preserve" font-family="Helvetica" font-size="28.0" fill="#000000" transform="matrix(1.00, 0.00, -0.00, -1.00, 240.1, 8.0)">e</text><text xml:space="preserve" font-family="Helvetica" font-size="28.0" fill="#000000" transform="matrix(1.00, 0.00, -0.00, -1.00, 255.7, 8.0)"> </text><text xml:space="preserve" font-family="Helvetica" font-size="28.0" fill="#000000" transform="matrix(1.00, 0.00, -0.00, -1.00, 263.5, 8.0)">a</text><text xml:space="preserve" font-family="Helvetica" font-size="28.0" fill="#000000" transform="matrix(1.00, 0.00, -0.00, -1.00, 279.1, 8.0)">s</text><text xml:space="preserve" font-family="Helvetica" font-size="28.0" fill="#000000" transform="matrix(1.00, 0.00, -0.00, -1.00, 293.1, 8.0)">s</text><text xml:space="preserve" font-family="Helvetica" font-size="28.0" fill="#000000" transform="matrix(1.00, 0.00, -0.00, -1.00, 307.1, 8.0)">a</text><text xml:space="preserve" font-family="Helvetica" font-size="28.0" fill="#000000" transform="matrix(1.00, 0.00, -0.00, -1.00, 322.7, 8.0)">y</text><text xml:space="preserve" font-family="Helvetica" font-size="28.0" fill="#000000" transform="matrix(1.00, 0.00, -0.00, -1.00, 336.7, 8.0)">i</text><text xml:space="preserve" font-family="Helvetica" font-size="28.0" fill="#000000" transform="matrix(1.00, 0.00, -0.00, -1.00, 342.9, 8.0)">n</text><text xml:space="preserve" font-family="Helvetica" font-size="28.0" fill="#000000" transform="matrix(1.00, 0.00, -0.00, -1.00, 358.5, 8.0)">g</text><text xml:space="preserve" font-family="Helvetica" font-size="28.0" fill="#000000" transform="matrix(1.00, 0.00, -0.00, -1.00, 374.0, 8.0)"> </text><text xml:space="preserve" font-family="Helvetica" font-size="28.0" fill="#000000" transform="matrix(1.00, 0.00, -0.00, -1.00, 381.8, 8.0)">l</text><text xml:space="preserve" font-family="Helvetica" font-size="28.0" fill="#000000" transform="matrix(1.00, 0.00, -0.00, -1.00, 388.0, 8.0)">e</text><text xml:space="preserve" font-family="Helvetica" font-size="28.0" fill="#000000" transform="matrix(1.00, 0.00, -0.00, -1.00, 403.6, 8.0)">s</text><text xml:space="preserve" font-family="Helvetica" font-size="28.0" fill="#000000" transform="matrix(1.00, 0.00, -0.00, -1.00, 417.6, 8.0)">s</text><text xml:space="preserve" font-family="Helvetica" font-size="28.0" fill="#000000" transform="matrix(1.00, 0.00, -0.00, -1.00, 431.6, 8.0)"> </text><text xml:space="preserve" font-family="Helvetica" font-size="28.0" fill="#000000" transform="matrix(1.00, 0.00, -0.00, -1.00, 439.4, 8.0)">t</text><text xml:space="preserve" font-family="Helvetica" font-size="28.0" fill="#000000" transform="matrix(1.00, 0.00, -0.00, -1.00, 447.2, 8.0)">h</text><text xml:space="preserve" font-family="Helvetica" font-size="28.0" fill="#000000" transform="matrix(1.00, 0.00, -0.00, -1.00, 462.7, 8.0)">a</text><text xml:space="preserve" font-family="Helvetica" font-size="28.0" fill="#000000" transform="matrix(1.00, 0.00, -0.00, -1.00, 478.3, 8.0)">n</text><text xml:space="preserve" font-family="Helvetica" font-size="28.0" fill="#000000" transform="matrix(1.00, 0.00, -0.00, -1.00, 493.9, 8.0)"> </text><text xml:space="preserve" font-family="Helvetica" font-size="28.0" fill="#000000" transform="matrix(1.00, 0.00, -0.00, -1.00, 501.7, 8.0)">1</text><text xml:space="preserve" font-family="Helvetica" font-size="28.0" fill="#000000" transform="matrix(1.00, 0.00, -0.00, -1.00, 517.2, 8.0)">0</text><text xml:space="preserve" font-family="Helvetica" font-size="28.0" fill="#000000" transform="matrix(1.00, 0.00, -0.00, -1.00, 532.8, 8.0)">%</text><text xml:space="preserve" font-family="Helvetica" font-size="28.0" fill="#000000" transform="matrix(1.00, 0.00, -0.00, -1.00, 557.7, 8.0)"> </text><text xml:space="preserve" font-family="Helvetica" font-size="28.0" fill="#000000" transform="matrix(1.00, 0.00, -0.00, -1.00, 565.5, 8.0)">o</text><text xml:space="preserve" font-family="Helvetica" font-size="28.0" fill="#000000" transform="matrix(1.00, 0.00, -0.00, -1.00, 581.1, 8.0)">f</text><text xml:space="preserve" font-family="Helvetica" font-size="28.0" fill="#000000" transform="matrix(1.00, 0.00, -0.00, -1.00, 588.8, 8.0)"> </text><text xml:space="preserve" font-family="Helvetica" font-size="28.0" fill="#000000" transform="matrix(1.00, 0.00, -0.00, -1.00, 596.6, 8.0)">t</text><text xml:space="preserve" font-family="Helvetica" font-size="28.0" fill="#000000" transform="matrix(1.00, 0.00, -0.00, -1.00, 604.4, 8.0)">h</text><text xml:space="preserve" font-family="Helvetica" font-size="28.0" fill="#000000" transform="matrix(1.00, 0.00, -0.00, -1.00, 620.0, 8.0)">e</text><text xml:space="preserve" font-family="Helvetica" font-size="28.0" fill="#000000" transform="matrix(1.00, 0.00, -0.00, -1.00, 635.6, 8.0)"> </text><text xml:space="preserve" font-family="Helvetica" font-size="28.0" fill="#000000" transform="matrix(1.00, 0.00, -0.00, -1.00, 643.3, 8.0)">S</text><text xml:space="preserve" font-family="Helvetica" font-size="28.0" fill="#000000" transform="matrix(1.00, 0.00, -0.00, -1.00, 662.0, 8.0)">N</text><text xml:space="preserve" font-family="Helvetica" font-size="28.0" fill="#000000" transform="matrix(1.00, 0.00, -0.00, -1.00, 682.2, 8.0)">P</text><text xml:space="preserve" font-family="Helvetica" font-size="28.0" fill="#000000" transform="matrix(1.00, 0.00, -0.00, -1.00, 700.9, 8.0)">s</text><text xml:space="preserve" font-family="Helvetica" font-size="28.0" fill="#000000" transform="matrix(1.00, 0.00, -0.00, -1.00, 714.9, 8.0)">?</text></g></svg>