<?xml version="1.0" encoding="UTF-8" standalone="no"?><svg xmlns="http://www.w3.org/2000/svg" xmlns:xlink="http://www.w3.org/1999/xlink" clip-rule="evenodd" stroke-miterlimit="4.00" viewBox="0 0 846 70"><desc>SVG generated by Keynote</desc><defs></defs><g transform="matrix(1.00, 0.00, -0.00, -1.00, 0.0, 70.0)"><text xml:space="preserve" font-family="Helvetica" font-size="34.0" fill="#000000" transform="matrix(1.00, 0.00, -0.00, -1.00, 0.0, 43.4)">•</text><text xml:space="preserve" font-family="Helvetica" font-size="34.0" fill="#000000" transform="matrix(1.00, 0.00, -0.00, -1.00, 27.0, 43.0)">T</text><text xml:space="preserve" font-family="Helvetica" font-size="34.0" fill="#000000" transform="matrix(1.00, 0.00, -0.00, -1.00, 47.8, 43.0)">h</text><text xml:space="preserve" font-family="Helvetica" font-size="34.0" fill="#000000" transform="matrix(1.00, 0.00, -0.00, -1.00, 66.7, 43.0)">e</text><text xml:space="preserve" font-family="Helvetica" font-size="34.0" fill="#000000" transform="matrix(1.00, 0.00, -0.00, -1.00, 85.6, 43.0)">r</text><text xml:space="preserve" font-family="Helvetica" font-size="34.0" fill="#000000" transform="matrix(1.00, 0.00, -0.00, -1.00, 96.9, 43.0)">e</text><text xml:space="preserve" font-family="Helvetica" font-size="34.0" fill="#000000" transform="matrix(1.00, 0.00, -0.00, -1.00, 115.8, 43.0)"> </text><text xml:space="preserve" font-family="Helvetica" font-size="34.0" fill="#000000" transform="matrix(1.00, 0.00, -0.00, -1.00, 125.3, 43.0)">a</text><text xml:space="preserve" font-family="Helvetica" font-size="34.0" fill="#000000" transform="matrix(1.00, 0.00, -0.00, -1.00, 144.2, 43.0)">r</text><text xml:space="preserve" font-family="Helvetica" font-size="34.0" fill="#000000" transform="matrix(1.00, 0.00, -0.00, -1.00, 155.5, 43.0)">e</text><text xml:space="preserve" font-family="Helvetica" font-size="34.0" fill="#000000" transform="matrix(1.00, 0.00, -0.00, -1.00, 174.4, 43.0)"> </text><text xml:space="preserve" font-family="Helvetica" font-size="34.0" fill="#000000" transform="matrix(1.00, 0.00, -0.00, -1.00, 183.9, 43.0)">~</text><text xml:space="preserve" font-family="Helvetica" font-size="34.0" fill="#000000" transform="matrix(1.00, 0.00, -0.00, -1.00, 203.7, 43.0)">5</text><text xml:space="preserve" font-family="Helvetica" font-size="34.0" fill="#000000" transform="matrix(1.00, 0.00, -0.00, -1.00, 222.6, 43.0)">0</text><text xml:space="preserve" font-family="Helvetica" font-size="34.0" fill="#000000" transform="matrix(1.00, 0.00, -0.00, -1.00, 241.6, 43.0)">0</text><text xml:space="preserve" font-family="Helvetica" font-size="34.0" fill="#000000" transform="matrix(1.00, 0.00, -0.00, -1.00, 260.5, 43.0)">,</text><text xml:space="preserve" font-family="Helvetica" font-size="34.0" fill="#000000" transform="matrix(1.00, 0.00, -0.00, -1.00, 269.9, 43.0)">0</text><text xml:space="preserve" font-family="Helvetica" font-size="34.0" fill="#000000" transform="matrix(1.00, 0.00, -0.00, -1.00, 288.8, 43.0)">0</text><text xml:space="preserve" font-family="Helvetica" font-size="34.0" fill="#000000" transform="matrix(1.00, 0.00, -0.00, -1.00, 307.7, 43.0)">0</text><text xml:space="preserve" font-family="Helvetica" font-size="34.0" fill="#000000" transform="matrix(1.00, 0.00, -0.00, -1.00, 326.7, 43.0)"> </text><text xml:space="preserve" font-family="Helvetica" font-size="34.0" fill="#000000" transform="matrix(1.00, 0.00, -0.00, -1.00, 336.1, 43.0)">S</text><text xml:space="preserve" font-family="Helvetica" font-size="34.0" fill="#000000" transform="matrix(1.00, 0.00, -0.00, -1.00, 358.8, 43.0)">N</text><text xml:space="preserve" font-family="Helvetica" font-size="34.0" fill="#000000" transform="matrix(1.00, 0.00, -0.00, -1.00, 383.3, 43.0)">P</text><text xml:space="preserve" font-family="Helvetica" font-size="34.0" fill="#000000" transform="matrix(1.00, 0.00, -0.00, -1.00, 406.0, 43.0)">s</text><text xml:space="preserve" font-family="Helvetica" font-size="34.0" fill="#000000" transform="matrix(1.00, 0.00, -0.00, -1.00, 423.0, 43.0)"> </text><text xml:space="preserve" font-family="Helvetica" font-size="34.0" fill="#000000" transform="matrix(1.00, 0.00, -0.00, -1.00, 432.5, 43.0)">s</text><text xml:space="preserve" font-family="Helvetica" font-size="34.0" fill="#000000" transform="matrix(1.00, 0.00, -0.00, -1.00, 449.5, 43.0)">e</text><text xml:space="preserve" font-family="Helvetica" font-size="34.0" fill="#000000" transform="matrix(1.00, 0.00, -0.00, -1.00, 468.4, 43.0)">g</text><text xml:space="preserve" font-family="Helvetica" font-size="34.0" fill="#000000" transform="matrix(1.00, 0.00, -0.00, -1.00, 487.3, 43.0)">r</text><text xml:space="preserve" font-family="Helvetica" font-size="34.0" fill="#000000" transform="matrix(1.00, 0.00, -0.00, -1.00, 498.6, 43.0)">e</text><text xml:space="preserve" font-family="Helvetica" font-size="34.0" fill="#000000" transform="matrix(1.00, 0.00, -0.00, -1.00, 517.5, 43.0)">g</text><text xml:space="preserve" font-family="Helvetica" font-size="34.0" fill="#000000" transform="matrix(1.00, 0.00, -0.00, -1.00, 536.4, 43.0)">a</text><text xml:space="preserve" font-family="Helvetica" font-size="34.0" fill="#000000" transform="matrix(1.00, 0.00, -0.00, -1.00, 555.4, 43.0)">t</text><text xml:space="preserve" font-family="Helvetica" font-size="34.0" fill="#000000" transform="matrix(1.00, 0.00, -0.00, -1.00, 564.8, 43.0)">i</text><text xml:space="preserve" font-family="Helvetica" font-size="34.0" fill="#000000" transform="matrix(1.00, 0.00, -0.00, -1.00, 572.4, 43.0)">n</text><text xml:space="preserve" font-family="Helvetica" font-size="34.0" fill="#000000" transform="matrix(1.00, 0.00, -0.00, -1.00, 591.3, 43.0)">g</text><text xml:space="preserve" font-family="Helvetica" font-size="34.0" fill="#000000" transform="matrix(1.00, 0.00, -0.00, -1.00, 610.2, 43.0)"> </text><text xml:space="preserve" font-family="Helvetica" font-size="34.0" fill="#000000" transform="matrix(1.00, 0.00, -0.00, -1.00, 619.6, 43.0)">a</text><text xml:space="preserve" font-family="Helvetica" font-size="34.0" fill="#000000" transform="matrix(1.00, 0.00, -0.00, -1.00, 638.5, 43.0)">m</text><text xml:space="preserve" font-family="Helvetica" font-size="34.0" fill="#000000" transform="matrix(1.00, 0.00, -0.00, -1.00, 666.9, 43.0)">o</text><text xml:space="preserve" font-family="Helvetica" font-size="34.0" fill="#000000" transform="matrix(1.00, 0.00, -0.00, -1.00, 685.8, 43.0)">n</text><text xml:space="preserve" font-family="Helvetica" font-size="34.0" fill="#000000" transform="matrix(1.00, 0.00, -0.00, -1.00, 704.7, 43.0)">g</text><text xml:space="preserve" font-family="Helvetica" font-size="34.0" fill="#000000" transform="matrix(1.00, 0.00, -0.00, -1.00, 723.6, 43.0)"> </text><text xml:space="preserve" font-family="Helvetica" font-size="34.0" fill="#000000" transform="matrix(1.00, 0.00, -0.00, -1.00, 733.1, 43.0)">t</text><text xml:space="preserve" font-family="Helvetica" font-size="34.0" fill="#000000" transform="matrix(1.00, 0.00, -0.00, -1.00, 742.5, 43.0)">h</text><text xml:space="preserve" font-family="Helvetica" font-size="34.0" fill="#000000" transform="matrix(1.00, 0.00, -0.00, -1.00, 761.4, 43.0)">e</text><text xml:space="preserve" font-family="Helvetica" font-size="34.0" fill="#000000" transform="matrix(1.00, 0.00, -0.00, -1.00, 780.3, 43.0)"> </text><text xml:space="preserve" font-family="Helvetica" font-size="34.0" fill="#000000" transform="matrix(1.00, 0.00, -0.00, -1.00, 789.8, 43.0)">r</text><text xml:space="preserve" font-family="Helvetica" font-size="34.0" fill="#000000" transform="matrix(1.00, 0.00, -0.00, -1.00, 801.1, 43.0)">i</text><text xml:space="preserve" font-family="Helvetica" font-size="34.0" fill="#000000" transform="matrix(1.00, 0.00, -0.00, -1.00, 808.6, 43.0)">c</text><text xml:space="preserve" font-family="Helvetica" font-size="34.0" fill="#000000" transform="matrix(1.00, 0.00, -0.00, -1.00, 825.6, 43.0)">e</text><text xml:space="preserve" font-family="Helvetica" font-size="34.0" fill="#000000" transform="matrix(1.00, 0.00, -0.00, -1.00, 844.6, 43.0)"> </text><text xml:space="preserve" font-family="Helvetica" font-size="34.0" fill="#000000" transform="matrix(1.00, 0.00, -0.00, -1.00, 27.0, 2.0)">v</text><text xml:space="preserve" font-family="Helvetica" font-size="34.0" fill="#000000" transform="matrix(1.00, 0.00, -0.00, -1.00, 44.0, 2.0)">a</text><text xml:space="preserve" font-family="Helvetica" font-size="34.0" fill="#000000" transform="matrix(1.00, 0.00, -0.00, -1.00, 62.9, 2.0)">r</text><text xml:space="preserve" font-family="Helvetica" font-size="34.0" fill="#000000" transform="matrix(1.00, 0.00, -0.00, -1.00, 74.2, 2.0)">i</text><text xml:space="preserve" font-family="Helvetica" font-size="34.0" fill="#000000" transform="matrix(1.00, 0.00, -0.00, -1.00, 81.8, 2.0)">e</text><text xml:space="preserve" font-family="Helvetica" font-size="34.0" fill="#000000" transform="matrix(1.00, 0.00, -0.00, -1.00, 100.7, 2.0)">t</text><text xml:space="preserve" font-family="Helvetica" font-size="34.0" fill="#000000" transform="matrix(1.00, 0.00, -0.00, -1.00, 110.2, 2.0)">i</text><text xml:space="preserve" font-family="Helvetica" font-size="34.0" fill="#000000" transform="matrix(1.00, 0.00, -0.00, -1.00, 117.7, 2.0)">e</text><text xml:space="preserve" font-family="Helvetica" font-size="34.0" fill="#000000" transform="matrix(1.00, 0.00, -0.00, -1.00, 136.6, 2.0)">s</text><text xml:space="preserve" font-family="Helvetica" font-size="34.0" fill="#000000" transform="matrix(1.00, 0.00, -0.00, -1.00, 153.6, 2.0)">.</text></g></svg>