<?xml version="1.0" encoding="UTF-8" standalone="no"?><svg xmlns="http://www.w3.org/2000/svg" xmlns:xlink="http://www.w3.org/1999/xlink" clip-rule="evenodd" stroke-miterlimit="4.00" viewBox="0 0 659 34"><desc>SVG generated by Keynote</desc><defs></defs><g transform="matrix(1.00, 0.00, -0.00, -1.00, 0.0, 34.0)"><text xml:space="preserve" font-family="Helvetica" font-size="34.0" fill="#000000" transform="matrix(1.00, 0.00, -0.00, -1.00, 0.0, 7.8)">•</text><text xml:space="preserve" font-family="Helvetica" font-size="34.0" fill="#000000" transform="matrix(1.00, 0.00, -0.00, -1.00, 27.0, 8.0)">O</text><text xml:space="preserve" font-family="Helvetica" font-size="34.0" fill="#000000" transform="matrix(1.00, 0.00, -0.00, -1.00, 53.4, 8.0)">u</text><text xml:space="preserve" font-family="Helvetica" font-size="34.0" fill="#000000" transform="matrix(1.00, 0.00, -0.00, -1.00, 72.4, 8.0)">r</text><text xml:space="preserve" font-family="Helvetica" font-size="34.0" fill="#000000" transform="matrix(1.00, 0.00, -0.00, -1.00, 83.7, 8.0)"> </text><text xml:space="preserve" font-family="Helvetica" font-size="34.0" fill="#000000" transform="matrix(1.00, 0.00, -0.00, -1.00, 93.1, 8.0)">r</text><text xml:space="preserve" font-family="Helvetica" font-size="34.0" fill="#000000" transform="matrix(1.00, 0.00, -0.00, -1.00, 104.4, 8.0)">i</text><text xml:space="preserve" font-family="Helvetica" font-size="34.0" fill="#000000" transform="matrix(1.00, 0.00, -0.00, -1.00, 112.0, 8.0)">c</text><text xml:space="preserve" font-family="Helvetica" font-size="34.0" fill="#000000" transform="matrix(1.00, 0.00, -0.00, -1.00, 129.0, 8.0)">e</text><text xml:space="preserve" font-family="Helvetica" font-size="34.0" fill="#000000" transform="matrix(1.00, 0.00, -0.00, -1.00, 147.9, 8.0)"> </text><text xml:space="preserve" font-family="Helvetica" font-size="34.0" fill="#000000" transform="matrix(1.00, 0.00, -0.00, -1.00, 157.4, 8.0)">S</text><text xml:space="preserve" font-family="Helvetica" font-size="34.0" fill="#000000" transform="matrix(1.00, 0.00, -0.00, -1.00, 180.0, 8.0)">N</text><text xml:space="preserve" font-family="Helvetica" font-size="34.0" fill="#000000" transform="matrix(1.00, 0.00, -0.00, -1.00, 204.6, 8.0)">P</text><text xml:space="preserve" font-family="Helvetica" font-size="34.0" fill="#000000" transform="matrix(1.00, 0.00, -0.00, -1.00, 226.7, 8.0)"> </text><text xml:space="preserve" font-family="Helvetica" font-size="34.0" fill="#000000" transform="matrix(1.00, 0.00, -0.00, -1.00, 236.1, 8.0)">d</text><text xml:space="preserve" font-family="Helvetica" font-size="34.0" fill="#000000" transform="matrix(1.00, 0.00, -0.00, -1.00, 255.0, 8.0)">a</text><text xml:space="preserve" font-family="Helvetica" font-size="34.0" fill="#000000" transform="matrix(1.00, 0.00, -0.00, -1.00, 274.0, 8.0)">t</text><text xml:space="preserve" font-family="Helvetica" font-size="34.0" fill="#000000" transform="matrix(1.00, 0.00, -0.00, -1.00, 283.4, 8.0)">a</text><text xml:space="preserve" font-family="Helvetica" font-size="34.0" fill="#000000" transform="matrix(1.00, 0.00, -0.00, -1.00, 302.3, 8.0)"> </text><text xml:space="preserve" font-family="Helvetica" font-size="34.0" fill="#000000" transform="matrix(1.00, 0.00, -0.00, -1.00, 311.7, 8.0)">s</text><text xml:space="preserve" font-family="Helvetica" font-size="34.0" fill="#000000" transform="matrix(1.00, 0.00, -0.00, -1.00, 328.7, 8.0)">e</text><text xml:space="preserve" font-family="Helvetica" font-size="34.0" fill="#000000" transform="matrix(1.00, 0.00, -0.00, -1.00, 347.7, 8.0)">t</text><text xml:space="preserve" font-family="Helvetica" font-size="34.0" fill="#000000" transform="matrix(1.00, 0.00, -0.00, -1.00, 357.1, 8.0)"> </text><text xml:space="preserve" font-family="Helvetica" font-size="34.0" fill="#000000" transform="matrix(1.00, 0.00, -0.00, -1.00, 366.5, 8.0)">h</text><text xml:space="preserve" font-family="Helvetica" font-size="34.0" fill="#000000" transform="matrix(1.00, 0.00, -0.00, -1.00, 385.5, 8.0)">a</text><text xml:space="preserve" font-family="Helvetica" font-size="34.0" fill="#000000" transform="matrix(1.00, 0.00, -0.00, -1.00, 404.4, 8.0)">s</text><text xml:space="preserve" font-family="Helvetica" font-size="34.0" fill="#000000" transform="matrix(1.00, 0.00, -0.00, -1.00, 421.4, 8.0)"> </text><text xml:space="preserve" font-family="Helvetica" font-size="34.0" fill="#000000" transform="matrix(1.00, 0.00, -0.00, -1.00, 430.8, 8.0)">~</text><text xml:space="preserve" font-family="Helvetica" font-size="34.0" fill="#000000" transform="matrix(1.00, 0.00, -0.00, -1.00, 450.7, 8.0)">3</text><text xml:space="preserve" font-family="Helvetica" font-size="34.0" fill="#000000" transform="matrix(1.00, 0.00, -0.00, -1.00, 469.6, 8.0)">6</text><text xml:space="preserve" font-family="Helvetica" font-size="34.0" fill="#000000" transform="matrix(1.00, 0.00, -0.00, -1.00, 488.5, 8.0)">,</text><text xml:space="preserve" font-family="Helvetica" font-size="34.0" fill="#000000" transform="matrix(1.00, 0.00, -0.00, -1.00, 497.9, 8.0)">0</text><text xml:space="preserve" font-family="Helvetica" font-size="34.0" fill="#000000" transform="matrix(1.00, 0.00, -0.00, -1.00, 516.9, 8.0)">0</text><text xml:space="preserve" font-family="Helvetica" font-size="34.0" fill="#000000" transform="matrix(1.00, 0.00, -0.00, -1.00, 535.8, 8.0)">0</text><text xml:space="preserve" font-family="Helvetica" font-size="34.0" fill="#000000" transform="matrix(1.00, 0.00, -0.00, -1.00, 554.7, 8.0)"> </text><text xml:space="preserve" font-family="Helvetica" font-size="34.0" fill="#000000" transform="matrix(1.00, 0.00, -0.00, -1.00, 564.1, 8.0)">S</text><text xml:space="preserve" font-family="Helvetica" font-size="34.0" fill="#000000" transform="matrix(1.00, 0.00, -0.00, -1.00, 586.8, 8.0)">N</text><text xml:space="preserve" font-family="Helvetica" font-size="34.0" fill="#000000" transform="matrix(1.00, 0.00, -0.00, -1.00, 611.4, 8.0)">P</text><text xml:space="preserve" font-family="Helvetica" font-size="34.0" fill="#000000" transform="matrix(1.00, 0.00, -0.00, -1.00, 634.0, 8.0)">s</text><text xml:space="preserve" font-family="Helvetica" font-size="34.0" fill="#000000" transform="matrix(1.00, 0.00, -0.00, -1.00, 651.0, 8.0)">.</text></g></svg>