<?xml version="1.0" encoding="UTF-8" standalone="no"?><svg xmlns="http://www.w3.org/2000/svg" xmlns:xlink="http://www.w3.org/1999/xlink" clip-rule="evenodd" stroke-miterlimit="4.00" viewBox="0 0 1024 768"><desc>SVG generated by Keynote</desc><defs></defs><g transform="matrix(1.00, 0.00, -0.00, -1.00, 0.0, 768.0)"><path d="M 0.0 768.0 L 1024.0 768.0 L 1024.0 0.0 L 0.0 0.0 Z M 0.0 768.0 " fill="#FFFFFF"></path><text xml:space="preserve" font-family="GillSans" font-size="24.0" fill="#000000" transform="matrix(1.00, 0.00, -0.00, -1.00, 412.0, 729.0)">A</text><text xml:space="preserve" font-family="GillSans" font-size="24.0" fill="#000000" transform="matrix(1.00, 0.00, -0.00, -1.00, 428.0, 729.0)">s</text><text xml:space="preserve" font-family="GillSans" font-size="24.0" fill="#000000" transform="matrix(1.00, 0.00, -0.00, -1.00, 437.2, 729.0)">s</text><text xml:space="preserve" font-family="GillSans" font-size="24.0" fill="#000000" transform="matrix(1.00, 0.00, -0.00, -1.00, 446.5, 729.0)">o</text><text xml:space="preserve" font-family="GillSans" font-size="24.0" fill="#000000" transform="matrix(1.00, 0.00, -0.00, -1.00, 459.7, 729.0)">c</text><text xml:space="preserve" font-family="GillSans" font-size="24.0" fill="#000000" transform="matrix(1.00, 0.00, -0.00, -1.00, 470.2, 729.0)">i</text><text xml:space="preserve" font-family="GillSans" font-size="24.0" fill="#000000" transform="matrix(1.00, 0.00, -0.00, -1.00, 475.5, 729.0)">a</text><text xml:space="preserve" font-family="GillSans" font-size="24.0" fill="#000000" transform="matrix(1.00, 0.00, -0.00, -1.00, 485.7, 729.0)">t</text><text xml:space="preserve" font-family="GillSans" font-size="24.0" fill="#000000" transform="matrix(1.00, 0.00, -0.00, -1.00, 493.7, 729.0)">i</text><text xml:space="preserve" font-family="GillSans" font-size="24.0" fill="#000000" transform="matrix(1.00, 0.00, -0.00, -1.00, 499.0, 729.0)">o</text><text xml:space="preserve" font-family="GillSans" font-size="24.0" fill="#000000" transform="matrix(1.00, 0.00, -0.00, -1.00, 512.2, 729.0)">n</text><text xml:space="preserve" font-family="GillSans" font-size="24.0" fill="#000000" transform="matrix(1.00, 0.00, -0.00, -1.00, 524.2, 729.0)"> </text><text xml:space="preserve" font-family="GillSans" font-size="24.0" fill="#000000" transform="matrix(1.00, 0.00, -0.00, -1.00, 530.9, 729.0)">M</text><text xml:space="preserve" font-family="GillSans" font-size="24.0" fill="#000000" transform="matrix(1.00, 0.00, -0.00, -1.00, 549.6, 729.0)">a</text><text xml:space="preserve" font-family="GillSans" font-size="24.0" fill="#000000" transform="matrix(1.00, 0.00, -0.00, -1.00, 559.6, 729.0)">p</text><text xml:space="preserve" font-family="GillSans" font-size="24.0" fill="#000000" transform="matrix(1.00, 0.00, -0.00, -1.00, 571.6, 729.0)">p</text><text xml:space="preserve" font-family="GillSans" font-size="24.0" fill="#000000" transform="matrix(1.00, 0.00, -0.00, -1.00, 583.6, 729.0)">i</text><text xml:space="preserve" font-family="GillSans" font-size="24.0" fill="#000000" transform="matrix(1.00, 0.00, -0.00, -1.00, 588.9, 729.0)">n</text><text xml:space="preserve" font-family="GillSans" font-size="24.0" fill="#000000" transform="matrix(1.00, 0.00, -0.00, -1.00, 600.9, 729.0)">g</text><text xml:space="preserve" font-family="GillSans" font-size="41.0" fill="#000000" transform="matrix(1.00, 0.00, -0.00, -1.00, 49.0, 666.0)">•</text><text xml:space="preserve" font-family="GillSans" font-size="24.0" fill="#000000" transform="matrix(1.00, 0.00, -0.00, -1.00, 94.0, 672.0)">T</text><text xml:space="preserve" font-family="GillSans" font-size="24.0" fill="#000000" transform="matrix(1.00, 0.00, -0.00, -1.00, 105.5, 672.0)">r</text><text xml:space="preserve" font-family="GillSans" font-size="24.0" fill="#000000" transform="matrix(1.00, 0.00, -0.00, -1.00, 115.7, 672.0)">y</text><text xml:space="preserve" font-family="GillSans" font-size="24.0" fill="#000000" transform="matrix(1.00, 0.00, -0.00, -1.00, 126.2, 672.0)">i</text><text xml:space="preserve" font-family="GillSans" font-size="24.0" fill="#000000" transform="matrix(1.00, 0.00, -0.00, -1.00, 131.5, 672.0)">n</text><text xml:space="preserve" font-family="GillSans" font-size="24.0" fill="#000000" transform="matrix(1.00, 0.00, -0.00, -1.00, 143.5, 672.0)">g</text><text xml:space="preserve" font-family="GillSans" font-size="24.0" fill="#000000" transform="matrix(1.00, 0.00, -0.00, -1.00, 153.7, 672.0)"> </text><text xml:space="preserve" font-family="GillSans" font-size="24.0" fill="#000000" transform="matrix(1.00, 0.00, -0.00, -1.00, 160.4, 672.0)">t</text><text xml:space="preserve" font-family="GillSans" font-size="24.0" fill="#000000" transform="matrix(1.00, 0.00, -0.00, -1.00, 168.4, 672.0)">o</text><text xml:space="preserve" font-family="GillSans" font-size="24.0" fill="#000000" transform="matrix(1.00, 0.00, -0.00, -1.00, 181.6, 672.0)"> </text><text xml:space="preserve" font-family="GillSans" font-size="24.0" fill="#000000" transform="matrix(1.00, 0.00, -0.00, -1.00, 188.3, 672.0)">ﬁ</text><text xml:space="preserve" font-family="GillSans" font-size="24.0" fill="#000000" transform="matrix(1.00, 0.00, -0.00, -1.00, 200.3, 672.0)">n</text><text xml:space="preserve" font-family="GillSans" font-size="24.0" fill="#000000" transform="matrix(1.00, 0.00, -0.00, -1.00, 212.3, 672.0)">d</text><text xml:space="preserve" font-family="GillSans" font-size="24.0" fill="#000000" transform="matrix(1.00, 0.00, -0.00, -1.00, 224.5, 672.0)"> </text><text xml:space="preserve" font-family="GillSans" font-size="24.0" fill="#000000" transform="matrix(1.00, 0.00, -0.00, -1.00, 231.2, 672.0)">g</text><text xml:space="preserve" font-family="GillSans" font-size="24.0" fill="#000000" transform="matrix(1.00, 0.00, -0.00, -1.00, 241.4, 672.0)">e</text><text xml:space="preserve" font-family="GillSans" font-size="24.0" fill="#000000" transform="matrix(1.00, 0.00, -0.00, -1.00, 252.9, 672.0)">n</text><text xml:space="preserve" font-family="GillSans" font-size="24.0" fill="#000000" transform="matrix(1.00, 0.00, -0.00, -1.00, 264.9, 672.0)">e</text><text xml:space="preserve" font-family="GillSans" font-size="24.0" fill="#000000" transform="matrix(1.00, 0.00, -0.00, -1.00, 276.4, 672.0)">t</text><text xml:space="preserve" font-family="GillSans" font-size="24.0" fill="#000000" transform="matrix(1.00, 0.00, -0.00, -1.00, 284.4, 672.0)">i</text><text xml:space="preserve" font-family="GillSans" font-size="24.0" fill="#000000" transform="matrix(1.00, 0.00, -0.00, -1.00, 289.7, 672.0)">c</text><text xml:space="preserve" font-family="GillSans" font-size="24.0" fill="#000000" transform="matrix(1.00, 0.00, -0.00, -1.00, 300.2, 672.0)"> </text><text xml:space="preserve" font-family="GillSans" font-size="24.0" fill="#000000" transform="matrix(1.00, 0.00, -0.00, -1.00, 306.8, 672.0)">b</text><text xml:space="preserve" font-family="GillSans" font-size="24.0" fill="#000000" transform="matrix(1.00, 0.00, -0.00, -1.00, 318.8, 672.0)">a</text><text xml:space="preserve" font-family="GillSans" font-size="24.0" fill="#000000" transform="matrix(1.00, 0.00, -0.00, -1.00, 329.1, 672.0)">s</text><text xml:space="preserve" font-family="GillSans" font-size="24.0" fill="#000000" transform="matrix(1.00, 0.00, -0.00, -1.00, 338.3, 672.0)">i</text><text xml:space="preserve" font-family="GillSans" font-size="24.0" fill="#000000" transform="matrix(1.00, 0.00, -0.00, -1.00, 343.6, 672.0)">s</text><text xml:space="preserve" font-family="GillSans" font-size="24.0" fill="#000000" transform="matrix(1.00, 0.00, -0.00, -1.00, 352.8, 672.0)"> </text><text xml:space="preserve" font-family="GillSans" font-size="24.0" fill="#000000" transform="matrix(1.00, 0.00, -0.00, -1.00, 359.5, 672.0)">f</text><text xml:space="preserve" font-family="GillSans" font-size="24.0" fill="#000000" transform="matrix(1.00, 0.00, -0.00, -1.00, 365.2, 672.0)">o</text><text xml:space="preserve" font-family="GillSans" font-size="24.0" fill="#000000" transform="matrix(1.00, 0.00, -0.00, -1.00, 378.5, 672.0)">r</text><text xml:space="preserve" font-family="GillSans" font-size="24.0" fill="#000000" transform="matrix(1.00, 0.00, -0.00, -1.00, 388.0, 672.0)"> </text><text xml:space="preserve" font-family="GillSans" font-size="24.0" fill="#000000" transform="matrix(1.00, 0.00, -0.00, -1.00, 394.6, 672.0)">a</text><text xml:space="preserve" font-family="GillSans" font-size="24.0" fill="#000000" transform="matrix(1.00, 0.00, -0.00, -1.00, 404.9, 672.0)"> </text><text xml:space="preserve" font-family="GillSans" font-size="24.0" fill="#000000" transform="matrix(1.00, 0.00, -0.00, -1.00, 411.5, 672.0)">t</text><text xml:space="preserve" font-family="GillSans" font-size="24.0" fill="#000000" transform="matrix(1.00, 0.00, -0.00, -1.00, 419.5, 672.0)">r</text><text xml:space="preserve" font-family="GillSans" font-size="24.0" fill="#000000" transform="matrix(1.00, 0.00, -0.00, -1.00, 429.0, 672.0)">a</text><text xml:space="preserve" font-family="GillSans" font-size="24.0" fill="#000000" transform="matrix(1.00, 0.00, -0.00, -1.00, 439.3, 672.0)">i</text><text xml:space="preserve" font-family="GillSans" font-size="24.0" fill="#000000" transform="matrix(1.00, 0.00, -0.00, -1.00, 444.5, 672.0)">t</text><text xml:space="preserve" font-family="GillSans" font-size="24.0" fill="#000000" transform="matrix(1.00, 0.00, -0.00, -1.00, 452.5, 672.0)"> </text><text xml:space="preserve" font-family="GillSans" font-size="24.0" fill="#000000" transform="matrix(1.00, 0.00, -0.00, -1.00, 459.2, 672.0)">o</text><text xml:space="preserve" font-family="GillSans" font-size="24.0" fill="#000000" transform="matrix(1.00, 0.00, -0.00, -1.00, 472.4, 672.0)">r</text><text xml:space="preserve" font-family="GillSans" font-size="24.0" fill="#000000" transform="matrix(1.00, 0.00, -0.00, -1.00, 481.9, 672.0)"> </text><text xml:space="preserve" font-family="GillSans" font-size="24.0" fill="#000000" transform="matrix(1.00, 0.00, -0.00, -1.00, 488.6, 672.0)">d</text><text xml:space="preserve" font-family="GillSans" font-size="24.0" fill="#000000" transform="matrix(1.00, 0.00, -0.00, -1.00, 500.8, 672.0)">i</text><text xml:space="preserve" font-family="GillSans" font-size="24.0" fill="#000000" transform="matrix(1.00, 0.00, -0.00, -1.00, 506.1, 672.0)">s</text><text xml:space="preserve" font-family="GillSans" font-size="24.0" fill="#000000" transform="matrix(1.00, 0.00, -0.00, -1.00, 515.3, 672.0)">e</text><text xml:space="preserve" font-family="GillSans" font-size="24.0" fill="#000000" transform="matrix(1.00, 0.00, -0.00, -1.00, 526.8, 672.0)">a</text><text xml:space="preserve" font-family="GillSans" font-size="24.0" fill="#000000" transform="matrix(1.00, 0.00, -0.00, -1.00, 537.1, 672.0)">s</text><text xml:space="preserve" font-family="GillSans" font-size="24.0" fill="#000000" transform="matrix(1.00, 0.00, -0.00, -1.00, 546.3, 672.0)">e</text><text xml:space="preserve" font-family="GillSans" font-size="41.0" fill="#000000" transform="matrix(1.00, 0.00, -0.00, -1.00, 49.0, 614.0)">•</text><text xml:space="preserve" font-family="GillSans" font-size="24.0" fill="#000000" transform="matrix(1.00, 0.00, -0.00, -1.00, 94.0, 620.0)">L</text><text xml:space="preserve" font-family="GillSans" font-size="24.0" fill="#000000" transform="matrix(1.00, 0.00, -0.00, -1.00, 105.8, 620.0)">o</text><text xml:space="preserve" font-family="GillSans" font-size="24.0" fill="#000000" transform="matrix(1.00, 0.00, -0.00, -1.00, 119.0, 620.0)">o</text><text xml:space="preserve" font-family="GillSans" font-size="24.0" fill="#000000" transform="matrix(1.00, 0.00, -0.00, -1.00, 132.2, 620.0)">k</text><text xml:space="preserve" font-family="GillSans" font-size="24.0" fill="#000000" transform="matrix(1.00, 0.00, -0.00, -1.00, 143.7, 620.0)"> </text><text xml:space="preserve" font-family="GillSans" font-size="24.0" fill="#000000" transform="matrix(1.00, 0.00, -0.00, -1.00, 150.4, 620.0)">f</text><text xml:space="preserve" font-family="GillSans" font-size="24.0" fill="#000000" transform="matrix(1.00, 0.00, -0.00, -1.00, 156.2, 620.0)">o</text><text xml:space="preserve" font-family="GillSans" font-size="24.0" fill="#000000" transform="matrix(1.00, 0.00, -0.00, -1.00, 169.4, 620.0)">r</text><text xml:space="preserve" font-family="GillSans" font-size="24.0" fill="#000000" transform="matrix(1.00, 0.00, -0.00, -1.00, 178.9, 620.0)"> </text><text xml:space="preserve" font-family="GillSans" font-size="24.0" fill="#000000" transform="matrix(1.00, 0.00, -0.00, -1.00, 185.6, 620.0)">s</text><text xml:space="preserve" font-family="GillSans" font-size="24.0" fill="#000000" transform="matrix(1.00, 0.00, -0.00, -1.00, 194.8, 620.0)">t</text><text xml:space="preserve" font-family="GillSans" font-size="24.0" fill="#000000" transform="matrix(1.00, 0.00, -0.00, -1.00, 202.8, 620.0)">a</text><text xml:space="preserve" font-family="GillSans" font-size="24.0" fill="#000000" transform="matrix(1.00, 0.00, -0.00, -1.00, 213.0, 620.0)">t</text><text xml:space="preserve" font-family="GillSans" font-size="24.0" fill="#000000" transform="matrix(1.00, 0.00, -0.00, -1.00, 221.0, 620.0)">i</text><text xml:space="preserve" font-family="GillSans" font-size="24.0" fill="#000000" transform="matrix(1.00, 0.00, -0.00, -1.00, 226.3, 620.0)">s</text><text xml:space="preserve" font-family="GillSans" font-size="24.0" fill="#000000" transform="matrix(1.00, 0.00, -0.00, -1.00, 235.5, 620.0)">t</text><text xml:space="preserve" font-family="GillSans" font-size="24.0" fill="#000000" transform="matrix(1.00, 0.00, -0.00, -1.00, 243.5, 620.0)">i</text><text xml:space="preserve" font-family="GillSans" font-size="24.0" fill="#000000" transform="matrix(1.00, 0.00, -0.00, -1.00, 248.8, 620.0)">c</text><text xml:space="preserve" font-family="GillSans" font-size="24.0" fill="#000000" transform="matrix(1.00, 0.00, -0.00, -1.00, 259.3, 620.0)">a</text><text xml:space="preserve" font-family="GillSans" font-size="24.0" fill="#000000" transform="matrix(1.00, 0.00, -0.00, -1.00, 269.5, 620.0)">l</text><text xml:space="preserve" font-family="GillSans" font-size="24.0" fill="#000000" transform="matrix(1.00, 0.00, -0.00, -1.00, 274.8, 620.0)"> </text><text xml:space="preserve" font-family="GillSans" font-size="24.0" fill="#000000" transform="matrix(1.00, 0.00, -0.00, -1.00, 281.5, 620.0)">a</text><text xml:space="preserve" font-family="GillSans" font-size="24.0" fill="#000000" transform="matrix(1.00, 0.00, -0.00, -1.00, 291.7, 620.0)">s</text><text xml:space="preserve" font-family="GillSans" font-size="24.0" fill="#000000" transform="matrix(1.00, 0.00, -0.00, -1.00, 300.9, 620.0)">s</text><text xml:space="preserve" font-family="GillSans" font-size="24.0" fill="#000000" transform="matrix(1.00, 0.00, -0.00, -1.00, 310.2, 620.0)">o</text><text xml:space="preserve" font-family="GillSans" font-size="24.0" fill="#000000" transform="matrix(1.00, 0.00, -0.00, -1.00, 323.4, 620.0)">c</text><text xml:space="preserve" font-family="GillSans" font-size="24.0" fill="#000000" transform="matrix(1.00, 0.00, -0.00, -1.00, 333.9, 620.0)">i</text><text xml:space="preserve" font-family="GillSans" font-size="24.0" fill="#000000" transform="matrix(1.00, 0.00, -0.00, -1.00, 339.2, 620.0)">a</text><text xml:space="preserve" font-family="GillSans" font-size="24.0" fill="#000000" transform="matrix(1.00, 0.00, -0.00, -1.00, 349.4, 620.0)">t</text><text xml:space="preserve" font-family="GillSans" font-size="24.0" fill="#000000" transform="matrix(1.00, 0.00, -0.00, -1.00, 357.4, 620.0)">i</text><text xml:space="preserve" font-family="GillSans" font-size="24.0" fill="#000000" transform="matrix(1.00, 0.00, -0.00, -1.00, 362.7, 620.0)">o</text><text xml:space="preserve" font-family="GillSans" font-size="24.0" fill="#000000" transform="matrix(1.00, 0.00, -0.00, -1.00, 375.9, 620.0)">n</text><text xml:space="preserve" font-family="GillSans" font-size="24.0" fill="#000000" transform="matrix(1.00, 0.00, -0.00, -1.00, 387.9, 620.0)"> </text><text xml:space="preserve" font-family="GillSans" font-size="24.0" fill="#000000" transform="matrix(1.00, 0.00, -0.00, -1.00, 394.6, 620.0)">b</text><text xml:space="preserve" font-family="GillSans" font-size="24.0" fill="#000000" transform="matrix(1.00, 0.00, -0.00, -1.00, 406.6, 620.0)">e</text><text xml:space="preserve" font-family="GillSans" font-size="24.0" fill="#000000" transform="matrix(1.00, 0.00, -0.00, -1.00, 418.1, 620.0)">t</text><text xml:space="preserve" font-family="GillSans" font-size="24.0" fill="#000000" transform="matrix(1.00, 0.00, -0.00, -1.00, 426.1, 620.0)">w</text><text xml:space="preserve" font-family="GillSans" font-size="24.0" fill="#000000" transform="matrix(1.00, 0.00, -0.00, -1.00, 442.8, 620.0)">e</text><text xml:space="preserve" font-family="GillSans" font-size="24.0" fill="#000000" transform="matrix(1.00, 0.00, -0.00, -1.00, 454.3, 620.0)">e</text><text xml:space="preserve" font-family="GillSans" font-size="24.0" fill="#000000" transform="matrix(1.00, 0.00, -0.00, -1.00, 465.8, 620.0)">n</text><text xml:space="preserve" font-family="GillSans" font-size="24.0" fill="#000000" transform="matrix(1.00, 0.00, -0.00, -1.00, 477.8, 620.0)"> </text><text xml:space="preserve" font-family="GillSans" font-size="24.0" fill="#000000" transform="matrix(1.00, 0.00, -0.00, -1.00, 484.5, 620.0)">a</text><text xml:space="preserve" font-family="GillSans" font-size="24.0" fill="#000000" transform="matrix(1.00, 0.00, -0.00, -1.00, 494.7, 620.0)"> </text><text xml:space="preserve" font-family="GillSans" font-size="24.0" fill="#000000" transform="matrix(1.00, 0.00, -0.00, -1.00, 501.4, 620.0)">S</text><text xml:space="preserve" font-family="GillSans" font-size="24.0" fill="#000000" transform="matrix(1.00, 0.00, -0.00, -1.00, 512.4, 620.0)">N</text><text xml:space="preserve" font-family="GillSans" font-size="24.0" fill="#000000" transform="matrix(1.00, 0.00, -0.00, -1.00, 531.1, 620.0)">P</text><text xml:space="preserve" font-family="GillSans" font-size="24.0" fill="#000000" transform="matrix(1.00, 0.00, -0.00, -1.00, 543.4, 620.0)"> </text><text xml:space="preserve" font-family="GillSans" font-size="24.0" fill="#000000" transform="matrix(1.00, 0.00, -0.00, -1.00, 550.0, 620.0)">a</text><text xml:space="preserve" font-family="GillSans" font-size="24.0" fill="#000000" transform="matrix(1.00, 0.00, -0.00, -1.00, 560.3, 620.0)">l</text><text xml:space="preserve" font-family="GillSans" font-size="24.0" fill="#000000" transform="matrix(1.00, 0.00, -0.00, -1.00, 565.5, 620.0)">l</text><text xml:space="preserve" font-family="GillSans" font-size="24.0" fill="#000000" transform="matrix(1.00, 0.00, -0.00, -1.00, 570.8, 620.0)">e</text><text xml:space="preserve" font-family="GillSans" font-size="24.0" fill="#000000" transform="matrix(1.00, 0.00, -0.00, -1.00, 582.3, 620.0)">l</text><text xml:space="preserve" font-family="GillSans" font-size="24.0" fill="#000000" transform="matrix(1.00, 0.00, -0.00, -1.00, 587.5, 620.0)">e</text><text xml:space="preserve" font-family="GillSans" font-size="24.0" fill="#000000" transform="matrix(1.00, 0.00, -0.00, -1.00, 599.0, 620.0)"> </text><text xml:space="preserve" font-family="GillSans" font-size="24.0" fill="#000000" transform="matrix(1.00, 0.00, -0.00, -1.00, 605.7, 620.0)">s</text><text xml:space="preserve" font-family="GillSans" font-size="24.0" fill="#000000" transform="matrix(1.00, 0.00, -0.00, -1.00, 614.9, 620.0)">t</text><text xml:space="preserve" font-family="GillSans" font-size="24.0" fill="#000000" transform="matrix(1.00, 0.00, -0.00, -1.00, 622.9, 620.0)">a</text><text xml:space="preserve" font-family="GillSans" font-size="24.0" fill="#000000" transform="matrix(1.00, 0.00, -0.00, -1.00, 633.2, 620.0)">t</text><text xml:space="preserve" font-family="GillSans" font-size="24.0" fill="#000000" transform="matrix(1.00, 0.00, -0.00, -1.00, 641.2, 620.0)">e</text><text xml:space="preserve" font-family="GillSans" font-size="24.0" fill="#000000" transform="matrix(1.00, 0.00, -0.00, -1.00, 652.7, 620.0)"> </text><text xml:space="preserve" font-family="GillSans" font-size="24.0" fill="#000000" transform="matrix(1.00, 0.00, -0.00, -1.00, 659.3, 620.0)">a</text><text xml:space="preserve" font-family="GillSans" font-size="24.0" fill="#000000" transform="matrix(1.00, 0.00, -0.00, -1.00, 669.6, 620.0)">n</text><text xml:space="preserve" font-family="GillSans" font-size="24.0" fill="#000000" transform="matrix(1.00, 0.00, -0.00, -1.00, 681.6, 620.0)">d</text><text xml:space="preserve" font-family="GillSans" font-size="24.0" fill="#000000" transform="matrix(1.00, 0.00, -0.00, -1.00, 693.8, 620.0)"> </text><text xml:space="preserve" font-family="GillSans" font-size="24.0" fill="#000000" transform="matrix(1.00, 0.00, -0.00, -1.00, 700.4, 620.0)">a</text><text xml:space="preserve" font-family="GillSans" font-size="24.0" fill="#000000" transform="matrix(1.00, 0.00, -0.00, -1.00, 710.7, 620.0)"> </text><text xml:space="preserve" font-family="GillSans" font-size="24.0" fill="#000000" transform="matrix(1.00, 0.00, -0.00, -1.00, 717.4, 620.0)">p</text><text xml:space="preserve" font-family="GillSans" font-size="24.0" fill="#000000" transform="matrix(1.00, 0.00, -0.00, -1.00, 729.4, 620.0)">h</text><text xml:space="preserve" font-family="GillSans" font-size="24.0" fill="#000000" transform="matrix(1.00, 0.00, -0.00, -1.00, 741.4, 620.0)">e</text><text xml:space="preserve" font-family="GillSans" font-size="24.0" fill="#000000" transform="matrix(1.00, 0.00, -0.00, -1.00, 752.8, 620.0)">n</text><text xml:space="preserve" font-family="GillSans" font-size="24.0" fill="#000000" transform="matrix(1.00, 0.00, -0.00, -1.00, 764.8, 620.0)">o</text><text xml:space="preserve" font-family="GillSans" font-size="24.0" fill="#000000" transform="matrix(1.00, 0.00, -0.00, -1.00, 778.1, 620.0)">t</text><text xml:space="preserve" font-family="GillSans" font-size="24.0" fill="#000000" transform="matrix(1.00, 0.00, -0.00, -1.00, 786.1, 620.0)">y</text><text xml:space="preserve" font-family="GillSans" font-size="24.0" fill="#000000" transform="matrix(1.00, 0.00, -0.00, -1.00, 796.6, 620.0)">p</text><text xml:space="preserve" font-family="GillSans" font-size="24.0" fill="#000000" transform="matrix(1.00, 0.00, -0.00, -1.00, 808.6, 620.0)">e</text></g></svg>