<?xml version="1.0" encoding="UTF-8" standalone="no"?><svg xmlns="http://www.w3.org/2000/svg" xmlns:xlink="http://www.w3.org/1999/xlink" clip-rule="evenodd" stroke-miterlimit="4.00" viewBox="0 0 836 77"><desc>SVG generated by Keynote</desc><defs></defs><g transform="matrix(1.00, 0.00, -0.00, -1.00, 0.0, 77.0)"><text xml:space="preserve" font-family="Helvetica" font-size="34.0" fill="#000000" transform="matrix(1.00, 0.00, -0.00, -1.00, 0.0, 50.1)">•</text><text xml:space="preserve" font-family="Helvetica" font-size="34.0" fill="#000000" transform="matrix(1.00, 0.00, -0.00, -1.00, 27.0, 50.0)">A</text><text xml:space="preserve" font-family="Helvetica" font-size="34.0" fill="#000000" transform="matrix(1.00, 0.00, -0.00, -1.00, 49.7, 50.0)">s</text><text xml:space="preserve" font-family="Helvetica" font-size="34.0" fill="#000000" transform="matrix(1.00, 0.00, -0.00, -1.00, 66.7, 50.0)">s</text><text xml:space="preserve" font-family="Helvetica" font-size="34.0" fill="#000000" transform="matrix(1.00, 0.00, -0.00, -1.00, 83.7, 50.0)">o</text><text xml:space="preserve" font-family="Helvetica" font-size="34.0" fill="#000000" transform="matrix(1.00, 0.00, -0.00, -1.00, 102.6, 50.0)">c</text><text xml:space="preserve" font-family="Helvetica" font-size="34.0" fill="#000000" transform="matrix(1.00, 0.00, -0.00, -1.00, 119.6, 50.0)">i</text><text xml:space="preserve" font-family="Helvetica" font-size="34.0" fill="#000000" transform="matrix(1.00, 0.00, -0.00, -1.00, 127.2, 50.0)">a</text><text xml:space="preserve" font-family="Helvetica" font-size="34.0" fill="#000000" transform="matrix(1.00, 0.00, -0.00, -1.00, 146.1, 50.0)">t</text><text xml:space="preserve" font-family="Helvetica" font-size="34.0" fill="#000000" transform="matrix(1.00, 0.00, -0.00, -1.00, 155.5, 50.0)">i</text><text xml:space="preserve" font-family="Helvetica" font-size="34.0" fill="#000000" transform="matrix(1.00, 0.00, -0.00, -1.00, 163.1, 50.0)">o</text><text xml:space="preserve" font-family="Helvetica" font-size="34.0" fill="#000000" transform="matrix(1.00, 0.00, -0.00, -1.00, 182.0, 50.0)">n</text><text xml:space="preserve" font-family="Helvetica" font-size="34.0" fill="#000000" transform="matrix(1.00, 0.00, -0.00, -1.00, 200.9, 50.0)"> </text><text xml:space="preserve" font-family="Helvetica" font-size="34.0" fill="#000000" transform="matrix(1.00, 0.00, -0.00, -1.00, 210.3, 50.0)">m</text><text xml:space="preserve" font-family="Helvetica" font-size="34.0" fill="#000000" transform="matrix(1.00, 0.00, -0.00, -1.00, 238.7, 50.0)">a</text><text xml:space="preserve" font-family="Helvetica" font-size="34.0" fill="#000000" transform="matrix(1.00, 0.00, -0.00, -1.00, 257.6, 50.0)">p</text><text xml:space="preserve" font-family="Helvetica" font-size="34.0" fill="#000000" transform="matrix(1.00, 0.00, -0.00, -1.00, 276.5, 50.0)">p</text><text xml:space="preserve" font-family="Helvetica" font-size="34.0" fill="#000000" transform="matrix(1.00, 0.00, -0.00, -1.00, 295.4, 50.0)">i</text><text xml:space="preserve" font-family="Helvetica" font-size="34.0" fill="#000000" transform="matrix(1.00, 0.00, -0.00, -1.00, 303.0, 50.0)">n</text><text xml:space="preserve" font-family="Helvetica" font-size="34.0" fill="#000000" transform="matrix(1.00, 0.00, -0.00, -1.00, 321.9, 50.0)">g</text><text xml:space="preserve" font-family="Helvetica" font-size="28.0" fill="#000000" transform="matrix(1.00, 0.00, -0.00, -1.00, 36.0, 7.9)">–</text><text xml:space="preserve" font-family="Helvetica" font-size="28.0" fill="#000000" transform="matrix(1.00, 0.00, -0.00, -1.00, 58.0, 8.0)">l</text><text xml:space="preserve" font-family="Helvetica" font-size="28.0" fill="#000000" transform="matrix(1.00, 0.00, -0.00, -1.00, 64.2, 8.0)">o</text><text xml:space="preserve" font-family="Helvetica" font-size="28.0" fill="#000000" transform="matrix(1.00, 0.00, -0.00, -1.00, 79.8, 8.0)">o</text><text xml:space="preserve" font-family="Helvetica" font-size="28.0" fill="#000000" transform="matrix(1.00, 0.00, -0.00, -1.00, 95.4, 8.0)">k</text><text xml:space="preserve" font-family="Helvetica" font-size="28.0" fill="#000000" transform="matrix(1.00, 0.00, -0.00, -1.00, 109.4, 8.0)"> </text><text xml:space="preserve" font-family="Helvetica" font-size="28.0" fill="#000000" transform="matrix(1.00, 0.00, -0.00, -1.00, 117.2, 8.0)">a</text><text xml:space="preserve" font-family="Helvetica" font-size="28.0" fill="#000000" transform="matrix(1.00, 0.00, -0.00, -1.00, 132.7, 8.0)">t</text><text xml:space="preserve" font-family="Helvetica" font-size="28.0" fill="#000000" transform="matrix(1.00, 0.00, -0.00, -1.00, 140.5, 8.0)"> </text><text xml:space="preserve" font-family="Helvetica" font-size="28.0" fill="#000000" transform="matrix(1.00, 0.00, -0.00, -1.00, 148.3, 8.0)">a</text><text xml:space="preserve" font-family="Helvetica" font-size="28.0" fill="#000000" transform="matrix(1.00, 0.00, -0.00, -1.00, 163.9, 8.0)">s</text><text xml:space="preserve" font-family="Helvetica" font-size="28.0" fill="#000000" transform="matrix(1.00, 0.00, -0.00, -1.00, 177.9, 8.0)">s</text><text xml:space="preserve" font-family="Helvetica" font-size="28.0" fill="#000000" transform="matrix(1.00, 0.00, -0.00, -1.00, 191.9, 8.0)">o</text><text xml:space="preserve" font-family="Helvetica" font-size="28.0" fill="#000000" transform="matrix(1.00, 0.00, -0.00, -1.00, 207.4, 8.0)">c</text><text xml:space="preserve" font-family="Helvetica" font-size="28.0" fill="#000000" transform="matrix(1.00, 0.00, -0.00, -1.00, 221.4, 8.0)">i</text><text xml:space="preserve" font-family="Helvetica" font-size="28.0" fill="#000000" transform="matrix(1.00, 0.00, -0.00, -1.00, 227.7, 8.0)">a</text><text xml:space="preserve" font-family="Helvetica" font-size="28.0" fill="#000000" transform="matrix(1.00, 0.00, -0.00, -1.00, 243.2, 8.0)">t</text><text xml:space="preserve" font-family="Helvetica" font-size="28.0" fill="#000000" transform="matrix(1.00, 0.00, -0.00, -1.00, 251.0, 8.0)">i</text><text xml:space="preserve" font-family="Helvetica" font-size="28.0" fill="#000000" transform="matrix(1.00, 0.00, -0.00, -1.00, 257.2, 8.0)">o</text><text xml:space="preserve" font-family="Helvetica" font-size="28.0" fill="#000000" transform="matrix(1.00, 0.00, -0.00, -1.00, 272.8, 8.0)">n</text><text xml:space="preserve" font-family="Helvetica" font-size="28.0" fill="#000000" transform="matrix(1.00, 0.00, -0.00, -1.00, 288.4, 8.0)">s</text><text xml:space="preserve" font-family="Helvetica" font-size="28.0" fill="#000000" transform="matrix(1.00, 0.00, -0.00, -1.00, 302.4, 8.0)"> </text><text xml:space="preserve" font-family="Helvetica" font-size="28.0" fill="#000000" transform="matrix(1.00, 0.00, -0.00, -1.00, 310.2, 8.0)">a</text><text xml:space="preserve" font-family="Helvetica" font-size="28.0" fill="#000000" transform="matrix(1.00, 0.00, -0.00, -1.00, 325.7, 8.0)">t</text><text xml:space="preserve" font-family="Helvetica" font-size="28.0" fill="#000000" transform="matrix(1.00, 0.00, -0.00, -1.00, 333.5, 8.0)"> </text><text xml:space="preserve" font-family="Helvetica" font-size="28.0" fill="#000000" transform="matrix(1.00, 0.00, -0.00, -1.00, 341.3, 8.0)">a</text><text xml:space="preserve" font-family="Helvetica" font-size="28.0" fill="#000000" transform="matrix(1.00, 0.00, -0.00, -1.00, 356.9, 8.0)"> </text><text xml:space="preserve" font-family="Helvetica" font-size="28.0" fill="#000000" transform="matrix(1.00, 0.00, -0.00, -1.00, 364.6, 8.0)">f</text><text xml:space="preserve" font-family="Helvetica" font-size="28.0" fill="#000000" transform="matrix(1.00, 0.00, -0.00, -1.00, 372.4, 8.0)">e</text><text xml:space="preserve" font-family="Helvetica" font-size="28.0" fill="#000000" transform="matrix(1.00, 0.00, -0.00, -1.00, 388.0, 8.0)">w</text><text xml:space="preserve" font-family="Helvetica" font-size="28.0" fill="#000000" transform="matrix(1.00, 0.00, -0.00, -1.00, 408.2, 8.0)"> </text><text xml:space="preserve" font-family="Helvetica" font-size="28.0" fill="#000000" transform="matrix(1.00, 0.00, -0.00, -1.00, 416.0, 8.0)">l</text><text xml:space="preserve" font-family="Helvetica" font-size="28.0" fill="#000000" transform="matrix(1.00, 0.00, -0.00, -1.00, 422.2, 8.0)">o</text><text xml:space="preserve" font-family="Helvetica" font-size="28.0" fill="#000000" transform="matrix(1.00, 0.00, -0.00, -1.00, 437.8, 8.0)">c</text><text xml:space="preserve" font-family="Helvetica" font-size="28.0" fill="#000000" transform="matrix(1.00, 0.00, -0.00, -1.00, 451.8, 8.0)">i</text><text xml:space="preserve" font-family="Helvetica" font-size="28.0" fill="#000000" transform="matrix(1.00, 0.00, -0.00, -1.00, 458.0, 8.0)"> </text><text xml:space="preserve" font-family="Helvetica" font-size="28.0" fill="#000000" transform="matrix(1.00, 0.00, -0.00, -1.00, 465.8, 8.0)">(</text><text xml:space="preserve" font-family="Helvetica" font-size="28.0" fill="#000000" transform="matrix(1.00, 0.00, -0.00, -1.00, 475.1, 8.0)">y</text><text xml:space="preserve" font-family="Helvetica" font-size="28.0" fill="#000000" transform="matrix(1.00, 0.00, -0.00, -1.00, 489.1, 8.0)">o</text><text xml:space="preserve" font-family="Helvetica" font-size="28.0" fill="#000000" transform="matrix(1.00, 0.00, -0.00, -1.00, 504.7, 8.0)">u</text><text xml:space="preserve" font-family="Helvetica" font-size="28.0" fill="#000000" transform="matrix(1.00, 0.00, -0.00, -1.00, 520.3, 8.0)"> </text><text xml:space="preserve" font-family="Helvetica" font-size="28.0" fill="#000000" transform="matrix(1.00, 0.00, -0.00, -1.00, 528.1, 8.0)">h</text><text xml:space="preserve" font-family="Helvetica" font-size="28.0" fill="#000000" transform="matrix(1.00, 0.00, -0.00, -1.00, 543.6, 8.0)">a</text><text xml:space="preserve" font-family="Helvetica" font-size="28.0" fill="#000000" transform="matrix(1.00, 0.00, -0.00, -1.00, 559.2, 8.0)">v</text><text xml:space="preserve" font-family="Helvetica" font-size="28.0" fill="#000000" transform="matrix(1.00, 0.00, -0.00, -1.00, 573.2, 8.0)">e</text><text xml:space="preserve" font-family="Helvetica" font-size="28.0" fill="#000000" transform="matrix(1.00, 0.00, -0.00, -1.00, 588.8, 8.0)"> </text><text xml:space="preserve" font-family="Helvetica-Oblique" font-style="italic" font-size="28.0" fill="#000000" transform="matrix(1.00, 0.00, -0.00, -1.00, 596.5, 8.0)">a</text><text xml:space="preserve" font-family="Helvetica-Oblique" font-style="italic" font-size="28.0" fill="#000000" transform="matrix(1.00, 0.00, -0.00, -1.00, 612.1, 8.0)"> </text><text xml:space="preserve" font-family="Helvetica-Oblique" font-style="italic" font-size="28.0" fill="#000000" transform="matrix(1.00, 0.00, -0.00, -1.00, 619.9, 8.0)">p</text><text xml:space="preserve" font-family="Helvetica-Oblique" font-style="italic" font-size="28.0" fill="#000000" transform="matrix(1.00, 0.00, -0.00, -1.00, 635.4, 8.0)">r</text><text xml:space="preserve" font-family="Helvetica-Oblique" font-style="italic" font-size="28.0" fill="#000000" transform="matrix(1.00, 0.00, -0.00, -1.00, 644.8, 8.0)">i</text><text xml:space="preserve" font-family="Helvetica-Oblique" font-style="italic" font-size="28.0" fill="#000000" transform="matrix(1.00, 0.00, -0.00, -1.00, 651.0, 8.0)">o</text><text xml:space="preserve" font-family="Helvetica-Oblique" font-style="italic" font-size="28.0" fill="#000000" transform="matrix(1.00, 0.00, -0.00, -1.00, 666.6, 8.0)">r</text><text xml:space="preserve" font-family="Helvetica-Oblique" font-style="italic" font-size="28.0" fill="#000000" transform="matrix(1.00, 0.00, -0.00, -1.00, 675.9, 8.0)">i</text><text xml:space="preserve" font-family="Helvetica" font-size="28.0" fill="#000000" transform="matrix(1.00, 0.00, -0.00, -1.00, 682.1, 8.0)"> </text><text xml:space="preserve" font-family="Helvetica" font-size="28.0" fill="#000000" transform="matrix(1.00, 0.00, -0.00, -1.00, 689.9, 8.0)">c</text><text xml:space="preserve" font-family="Helvetica" font-size="28.0" fill="#000000" transform="matrix(1.00, 0.00, -0.00, -1.00, 703.9, 8.0)">a</text><text xml:space="preserve" font-family="Helvetica" font-size="28.0" fill="#000000" transform="matrix(1.00, 0.00, -0.00, -1.00, 719.4, 8.0)">n</text><text xml:space="preserve" font-family="Helvetica" font-size="28.0" fill="#000000" transform="matrix(1.00, 0.00, -0.00, -1.00, 735.0, 8.0)">d</text><text xml:space="preserve" font-family="Helvetica" font-size="28.0" fill="#000000" transform="matrix(1.00, 0.00, -0.00, -1.00, 750.6, 8.0)">i</text><text xml:space="preserve" font-family="Helvetica" font-size="28.0" fill="#000000" transform="matrix(1.00, 0.00, -0.00, -1.00, 756.8, 8.0)">d</text><text xml:space="preserve" font-family="Helvetica" font-size="28.0" fill="#000000" transform="matrix(1.00, 0.00, -0.00, -1.00, 772.4, 8.0)">a</text><text xml:space="preserve" font-family="Helvetica" font-size="28.0" fill="#000000" transform="matrix(1.00, 0.00, -0.00, -1.00, 788.0, 8.0)">t</text><text xml:space="preserve" font-family="Helvetica" font-size="28.0" fill="#000000" transform="matrix(1.00, 0.00, -0.00, -1.00, 795.8, 8.0)">e</text><text xml:space="preserve" font-family="Helvetica" font-size="28.0" fill="#000000" transform="matrix(1.00, 0.00, -0.00, -1.00, 811.3, 8.0)">s</text><text xml:space="preserve" font-family="Helvetica" font-size="28.0" fill="#000000" transform="matrix(1.00, 0.00, -0.00, -1.00, 825.3, 8.0)">)</text></g></svg>