<?xml version="1.0" encoding="UTF-8" standalone="no"?><svg xmlns="http://www.w3.org/2000/svg" xmlns:xlink="http://www.w3.org/1999/xlink" clip-rule="evenodd" stroke-miterlimit="4.00" viewBox="0 0 847 117"><desc>SVG generated by Keynote</desc><defs></defs><g transform="matrix(1.00, 0.00, -0.00, -1.00, 0.0, 117.0)"><text xml:space="preserve" font-family="Helvetica" font-size="34.0" fill="#000000" transform="matrix(1.00, 0.00, -0.00, -1.00, 0.0, 90.8)">•</text><text xml:space="preserve" font-family="Helvetica" font-size="34.0" fill="#000000" transform="matrix(1.00, 0.00, -0.00, -1.00, 27.0, 91.0)">G</text><text xml:space="preserve" font-family="Helvetica" font-size="34.0" fill="#000000" transform="matrix(1.00, 0.00, -0.00, -1.00, 53.4, 91.0)">o</text><text xml:space="preserve" font-family="Helvetica" font-size="34.0" fill="#000000" transform="matrix(1.00, 0.00, -0.00, -1.00, 72.3, 91.0)">a</text><text xml:space="preserve" font-family="Helvetica" font-size="34.0" fill="#000000" transform="matrix(1.00, 0.00, -0.00, -1.00, 91.2, 91.0)">l</text><text xml:space="preserve" font-family="Helvetica" font-size="34.0" fill="#000000" transform="matrix(1.00, 0.00, -0.00, -1.00, 98.8, 91.0)">s</text><text xml:space="preserve" font-family="Helvetica" font-size="28.0" fill="#000000" transform="matrix(1.00, 0.00, -0.00, -1.00, 36.0, 48.6)">–</text><text xml:space="preserve" font-family="Helvetica" font-size="28.0" fill="#000000" transform="matrix(1.00, 0.00, -0.00, -1.00, 58.0, 49.0)">ﬁ</text><text xml:space="preserve" font-family="Helvetica" font-size="28.0" fill="#000000" transform="matrix(1.00, 0.00, -0.00, -1.00, 72.0, 49.0)">n</text><text xml:space="preserve" font-family="Helvetica" font-size="28.0" fill="#000000" transform="matrix(1.00, 0.00, -0.00, -1.00, 87.6, 49.0)">d</text><text xml:space="preserve" font-family="Helvetica" font-size="28.0" fill="#000000" transform="matrix(1.00, 0.00, -0.00, -1.00, 103.2, 49.0)"> </text><text xml:space="preserve" font-family="Helvetica" font-size="28.0" fill="#000000" transform="matrix(1.00, 0.00, -0.00, -1.00, 110.9, 49.0)">g</text><text xml:space="preserve" font-family="Helvetica" font-size="28.0" fill="#000000" transform="matrix(1.00, 0.00, -0.00, -1.00, 126.5, 49.0)">e</text><text xml:space="preserve" font-family="Helvetica" font-size="28.0" fill="#000000" transform="matrix(1.00, 0.00, -0.00, -1.00, 142.1, 49.0)">n</text><text xml:space="preserve" font-family="Helvetica" font-size="28.0" fill="#000000" transform="matrix(1.00, 0.00, -0.00, -1.00, 157.7, 49.0)">e</text><text xml:space="preserve" font-family="Helvetica" font-size="28.0" fill="#000000" transform="matrix(1.00, 0.00, -0.00, -1.00, 173.2, 49.0)">s</text><text xml:space="preserve" font-family="Helvetica" font-size="28.0" fill="#000000" transform="matrix(1.00, 0.00, -0.00, -1.00, 187.2, 49.0)"> </text><text xml:space="preserve" font-family="Helvetica" font-size="28.0" fill="#000000" transform="matrix(1.00, 0.00, -0.00, -1.00, 195.0, 49.0)">a</text><text xml:space="preserve" font-family="Helvetica" font-size="28.0" fill="#000000" transform="matrix(1.00, 0.00, -0.00, -1.00, 210.6, 49.0)">s</text><text xml:space="preserve" font-family="Helvetica" font-size="28.0" fill="#000000" transform="matrix(1.00, 0.00, -0.00, -1.00, 224.6, 49.0)">s</text><text xml:space="preserve" font-family="Helvetica" font-size="28.0" fill="#000000" transform="matrix(1.00, 0.00, -0.00, -1.00, 238.6, 49.0)">o</text><text xml:space="preserve" font-family="Helvetica" font-size="28.0" fill="#000000" transform="matrix(1.00, 0.00, -0.00, -1.00, 254.2, 49.0)">c</text><text xml:space="preserve" font-family="Helvetica" font-size="28.0" fill="#000000" transform="matrix(1.00, 0.00, -0.00, -1.00, 268.2, 49.0)">i</text><text xml:space="preserve" font-family="Helvetica" font-size="28.0" fill="#000000" transform="matrix(1.00, 0.00, -0.00, -1.00, 274.4, 49.0)">a</text><text xml:space="preserve" font-family="Helvetica" font-size="28.0" fill="#000000" transform="matrix(1.00, 0.00, -0.00, -1.00, 290.0, 49.0)">t</text><text xml:space="preserve" font-family="Helvetica" font-size="28.0" fill="#000000" transform="matrix(1.00, 0.00, -0.00, -1.00, 297.7, 49.0)">e</text><text xml:space="preserve" font-family="Helvetica" font-size="28.0" fill="#000000" transform="matrix(1.00, 0.00, -0.00, -1.00, 313.3, 49.0)">d</text><text xml:space="preserve" font-family="Helvetica" font-size="28.0" fill="#000000" transform="matrix(1.00, 0.00, -0.00, -1.00, 328.9, 49.0)"> </text><text xml:space="preserve" font-family="Helvetica" font-size="28.0" fill="#000000" transform="matrix(1.00, 0.00, -0.00, -1.00, 336.7, 49.0)">w</text><text xml:space="preserve" font-family="Helvetica" font-size="28.0" fill="#000000" transform="matrix(1.00, 0.00, -0.00, -1.00, 356.9, 49.0)">i</text><text xml:space="preserve" font-family="Helvetica" font-size="28.0" fill="#000000" transform="matrix(1.00, 0.00, -0.00, -1.00, 363.1, 49.0)">t</text><text xml:space="preserve" font-family="Helvetica" font-size="28.0" fill="#000000" transform="matrix(1.00, 0.00, -0.00, -1.00, 370.9, 49.0)">h</text><text xml:space="preserve" font-family="Helvetica" font-size="28.0" fill="#000000" transform="matrix(1.00, 0.00, -0.00, -1.00, 386.5, 49.0)"> </text><text xml:space="preserve" font-family="Helvetica" font-size="28.0" fill="#000000" transform="matrix(1.00, 0.00, -0.00, -1.00, 394.3, 49.0)">d</text><text xml:space="preserve" font-family="Helvetica" font-size="28.0" fill="#000000" transform="matrix(1.00, 0.00, -0.00, -1.00, 409.8, 49.0)">i</text><text xml:space="preserve" font-family="Helvetica" font-size="28.0" fill="#000000" transform="matrix(1.00, 0.00, -0.00, -1.00, 416.1, 49.0)">s</text><text xml:space="preserve" font-family="Helvetica" font-size="28.0" fill="#000000" transform="matrix(1.00, 0.00, -0.00, -1.00, 430.1, 49.0)">e</text><text xml:space="preserve" font-family="Helvetica" font-size="28.0" fill="#000000" transform="matrix(1.00, 0.00, -0.00, -1.00, 445.6, 49.0)">a</text><text xml:space="preserve" font-family="Helvetica" font-size="28.0" fill="#000000" transform="matrix(1.00, 0.00, -0.00, -1.00, 461.2, 49.0)">s</text><text xml:space="preserve" font-family="Helvetica" font-size="28.0" fill="#000000" transform="matrix(1.00, 0.00, -0.00, -1.00, 475.2, 49.0)">e</text><text xml:space="preserve" font-family="Helvetica" font-size="28.0" fill="#000000" transform="matrix(1.00, 0.00, -0.00, -1.00, 490.8, 49.0)">s</text><text xml:space="preserve" font-family="Helvetica" font-size="28.0" fill="#000000" transform="matrix(1.00, 0.00, -0.00, -1.00, 504.8, 49.0)"> </text><text xml:space="preserve" font-family="Helvetica" font-size="28.0" fill="#000000" transform="matrix(1.00, 0.00, -0.00, -1.00, 512.6, 49.0)">o</text><text xml:space="preserve" font-family="Helvetica" font-size="28.0" fill="#000000" transform="matrix(1.00, 0.00, -0.00, -1.00, 528.1, 49.0)">r</text><text xml:space="preserve" font-family="Helvetica" font-size="28.0" fill="#000000" transform="matrix(1.00, 0.00, -0.00, -1.00, 537.5, 49.0)"> </text><text xml:space="preserve" font-family="Helvetica" font-size="28.0" fill="#000000" transform="matrix(1.00, 0.00, -0.00, -1.00, 545.2, 49.0)">o</text><text xml:space="preserve" font-family="Helvetica" font-size="28.0" fill="#000000" transform="matrix(1.00, 0.00, -0.00, -1.00, 560.8, 49.0)">t</text><text xml:space="preserve" font-family="Helvetica" font-size="28.0" fill="#000000" transform="matrix(1.00, 0.00, -0.00, -1.00, 568.6, 49.0)">h</text><text xml:space="preserve" font-family="Helvetica" font-size="28.0" fill="#000000" transform="matrix(1.00, 0.00, -0.00, -1.00, 584.2, 49.0)">e</text><text xml:space="preserve" font-family="Helvetica" font-size="28.0" fill="#000000" transform="matrix(1.00, 0.00, -0.00, -1.00, 599.8, 49.0)">r</text><text xml:space="preserve" font-family="Helvetica" font-size="28.0" fill="#000000" transform="matrix(1.00, 0.00, -0.00, -1.00, 609.1, 49.0)"> </text><text xml:space="preserve" font-family="Helvetica" font-size="28.0" fill="#000000" transform="matrix(1.00, 0.00, -0.00, -1.00, 616.8, 49.0)">t</text><text xml:space="preserve" font-family="Helvetica" font-size="28.0" fill="#000000" transform="matrix(1.00, 0.00, -0.00, -1.00, 624.6, 49.0)">r</text><text xml:space="preserve" font-family="Helvetica" font-size="28.0" fill="#000000" transform="matrix(1.00, 0.00, -0.00, -1.00, 633.9, 49.0)">a</text><text xml:space="preserve" font-family="Helvetica" font-size="28.0" fill="#000000" transform="matrix(1.00, 0.00, -0.00, -1.00, 649.5, 49.0)">i</text><text xml:space="preserve" font-family="Helvetica" font-size="28.0" fill="#000000" transform="matrix(1.00, 0.00, -0.00, -1.00, 655.8, 49.0)">t</text><text xml:space="preserve" font-family="Helvetica" font-size="28.0" fill="#000000" transform="matrix(1.00, 0.00, -0.00, -1.00, 663.5, 49.0)">s</text><text xml:space="preserve" font-family="Helvetica" font-size="28.0" fill="#000000" transform="matrix(1.00, 0.00, -0.00, -1.00, 36.0, 7.8)">–</text><text xml:space="preserve" font-family="Helvetica" font-size="28.0" fill="#000000" transform="matrix(1.00, 0.00, -0.00, -1.00, 58.0, 8.0)">a</text><text xml:space="preserve" font-family="Helvetica" font-size="28.0" fill="#000000" transform="matrix(1.00, 0.00, -0.00, -1.00, 73.6, 8.0)">s</text><text xml:space="preserve" font-family="Helvetica" font-size="28.0" fill="#000000" transform="matrix(1.00, 0.00, -0.00, -1.00, 87.6, 8.0)">s</text><text xml:space="preserve" font-family="Helvetica" font-size="28.0" fill="#000000" transform="matrix(1.00, 0.00, -0.00, -1.00, 101.6, 8.0)">e</text><text xml:space="preserve" font-family="Helvetica" font-size="28.0" fill="#000000" transform="matrix(1.00, 0.00, -0.00, -1.00, 117.2, 8.0)">s</text><text xml:space="preserve" font-family="Helvetica" font-size="28.0" fill="#000000" transform="matrix(1.00, 0.00, -0.00, -1.00, 131.2, 8.0)">s</text><text xml:space="preserve" font-family="Helvetica" font-size="28.0" fill="#000000" transform="matrix(1.00, 0.00, -0.00, -1.00, 145.2, 8.0)"> </text><text xml:space="preserve" font-family="Helvetica" font-size="28.0" fill="#000000" transform="matrix(1.00, 0.00, -0.00, -1.00, 152.9, 8.0)">r</text><text xml:space="preserve" font-family="Helvetica" font-size="28.0" fill="#000000" transform="matrix(1.00, 0.00, -0.00, -1.00, 162.3, 8.0)">e</text><text xml:space="preserve" font-family="Helvetica" font-size="28.0" fill="#000000" transform="matrix(1.00, 0.00, -0.00, -1.00, 177.8, 8.0)">l</text><text xml:space="preserve" font-family="Helvetica" font-size="28.0" fill="#000000" transform="matrix(1.00, 0.00, -0.00, -1.00, 184.1, 8.0)">a</text><text xml:space="preserve" font-family="Helvetica" font-size="28.0" fill="#000000" transform="matrix(1.00, 0.00, -0.00, -1.00, 199.6, 8.0)">t</text><text xml:space="preserve" font-family="Helvetica" font-size="28.0" fill="#000000" transform="matrix(1.00, 0.00, -0.00, -1.00, 207.4, 8.0)">i</text><text xml:space="preserve" font-family="Helvetica" font-size="28.0" fill="#000000" transform="matrix(1.00, 0.00, -0.00, -1.00, 213.6, 8.0)">v</text><text xml:space="preserve" font-family="Helvetica" font-size="28.0" fill="#000000" transform="matrix(1.00, 0.00, -0.00, -1.00, 227.6, 8.0)">e</text><text xml:space="preserve" font-family="Helvetica" font-size="28.0" fill="#000000" transform="matrix(1.00, 0.00, -0.00, -1.00, 243.2, 8.0)"> </text><text xml:space="preserve" font-family="Helvetica" font-size="28.0" fill="#000000" transform="matrix(1.00, 0.00, -0.00, -1.00, 251.0, 8.0)">r</text><text xml:space="preserve" font-family="Helvetica" font-size="28.0" fill="#000000" transform="matrix(1.00, 0.00, -0.00, -1.00, 260.3, 8.0)">i</text><text xml:space="preserve" font-family="Helvetica" font-size="28.0" fill="#000000" transform="matrix(1.00, 0.00, -0.00, -1.00, 266.5, 8.0)">s</text><text xml:space="preserve" font-family="Helvetica" font-size="28.0" fill="#000000" transform="matrix(1.00, 0.00, -0.00, -1.00, 280.5, 8.0)">k</text><text xml:space="preserve" font-family="Helvetica" font-size="28.0" fill="#000000" transform="matrix(1.00, 0.00, -0.00, -1.00, 294.5, 8.0)"> </text><text xml:space="preserve" font-family="Helvetica" font-size="28.0" fill="#000000" transform="matrix(1.00, 0.00, -0.00, -1.00, 302.3, 8.0)">b</text><text xml:space="preserve" font-family="Helvetica" font-size="28.0" fill="#000000" transform="matrix(1.00, 0.00, -0.00, -1.00, 317.9, 8.0)">a</text><text xml:space="preserve" font-family="Helvetica" font-size="28.0" fill="#000000" transform="matrix(1.00, 0.00, -0.00, -1.00, 333.5, 8.0)">s</text><text xml:space="preserve" font-family="Helvetica" font-size="28.0" fill="#000000" transform="matrix(1.00, 0.00, -0.00, -1.00, 347.5, 8.0)">e</text><text xml:space="preserve" font-family="Helvetica" font-size="28.0" fill="#000000" transform="matrix(1.00, 0.00, -0.00, -1.00, 363.0, 8.0)">d</text><text xml:space="preserve" font-family="Helvetica" font-size="28.0" fill="#000000" transform="matrix(1.00, 0.00, -0.00, -1.00, 378.6, 8.0)"> </text><text xml:space="preserve" font-family="Helvetica" font-size="28.0" fill="#000000" transform="matrix(1.00, 0.00, -0.00, -1.00, 386.4, 8.0)">o</text><text xml:space="preserve" font-family="Helvetica" font-size="28.0" fill="#000000" transform="matrix(1.00, 0.00, -0.00, -1.00, 402.0, 8.0)">n</text><text xml:space="preserve" font-family="Helvetica" font-size="28.0" fill="#000000" transform="matrix(1.00, 0.00, -0.00, -1.00, 417.6, 8.0)"> </text><text xml:space="preserve" font-family="Helvetica" font-size="28.0" fill="#000000" transform="matrix(1.00, 0.00, -0.00, -1.00, 425.3, 8.0)">g</text><text xml:space="preserve" font-family="Helvetica" font-size="28.0" fill="#000000" transform="matrix(1.00, 0.00, -0.00, -1.00, 440.9, 8.0)">e</text><text xml:space="preserve" font-family="Helvetica" font-size="28.0" fill="#000000" transform="matrix(1.00, 0.00, -0.00, -1.00, 456.5, 8.0)">n</text><text xml:space="preserve" font-family="Helvetica" font-size="28.0" fill="#000000" transform="matrix(1.00, 0.00, -0.00, -1.00, 472.1, 8.0)">o</text><text xml:space="preserve" font-family="Helvetica" font-size="28.0" fill="#000000" transform="matrix(1.00, 0.00, -0.00, -1.00, 487.6, 8.0)">t</text><text xml:space="preserve" font-family="Helvetica" font-size="28.0" fill="#000000" transform="matrix(1.00, 0.00, -0.00, -1.00, 495.4, 8.0)">y</text><text xml:space="preserve" font-family="Helvetica" font-size="28.0" fill="#000000" transform="matrix(1.00, 0.00, -0.00, -1.00, 509.4, 8.0)">p</text><text xml:space="preserve" font-family="Helvetica" font-size="28.0" fill="#000000" transform="matrix(1.00, 0.00, -0.00, -1.00, 525.0, 8.0)">e</text><text xml:space="preserve" font-family="Helvetica" font-size="28.0" fill="#000000" transform="matrix(1.00, 0.00, -0.00, -1.00, 540.6, 8.0)"> </text><text xml:space="preserve" font-family="Helvetica" font-size="28.0" fill="#000000" transform="matrix(1.00, 0.00, -0.00, -1.00, 548.3, 8.0)">(</text><text xml:space="preserve" font-family="Helvetica" font-size="28.0" fill="#000000" transform="matrix(1.00, 0.00, -0.00, -1.00, 557.7, 8.0)">p</text><text xml:space="preserve" font-family="Helvetica" font-size="28.0" fill="#000000" transform="matrix(1.00, 0.00, -0.00, -1.00, 573.2, 8.0)">e</text><text xml:space="preserve" font-family="Helvetica" font-size="28.0" fill="#000000" transform="matrix(1.00, 0.00, -0.00, -1.00, 588.8, 8.0)">r</text><text xml:space="preserve" font-family="Helvetica" font-size="28.0" fill="#000000" transform="matrix(1.00, 0.00, -0.00, -1.00, 598.1, 8.0)">s</text><text xml:space="preserve" font-family="Helvetica" font-size="28.0" fill="#000000" transform="matrix(1.00, 0.00, -0.00, -1.00, 612.1, 8.0)">o</text><text xml:space="preserve" font-family="Helvetica" font-size="28.0" fill="#000000" transform="matrix(1.00, 0.00, -0.00, -1.00, 627.7, 8.0)">n</text><text xml:space="preserve" font-family="Helvetica" font-size="28.0" fill="#000000" transform="matrix(1.00, 0.00, -0.00, -1.00, 643.3, 8.0)">a</text><text xml:space="preserve" font-family="Helvetica" font-size="28.0" fill="#000000" transform="matrix(1.00, 0.00, -0.00, -1.00, 658.9, 8.0)">l</text><text xml:space="preserve" font-family="Helvetica" font-size="28.0" fill="#000000" transform="matrix(1.00, 0.00, -0.00, -1.00, 665.1, 8.0)">i</text><text xml:space="preserve" font-family="Helvetica" font-size="28.0" fill="#000000" transform="matrix(1.00, 0.00, -0.00, -1.00, 671.3, 8.0)">z</text><text xml:space="preserve" font-family="Helvetica" font-size="28.0" fill="#000000" transform="matrix(1.00, 0.00, -0.00, -1.00, 685.3, 8.0)">e</text><text xml:space="preserve" font-family="Helvetica" font-size="28.0" fill="#000000" transform="matrix(1.00, 0.00, -0.00, -1.00, 700.9, 8.0)">d</text><text xml:space="preserve" font-family="Helvetica" font-size="28.0" fill="#000000" transform="matrix(1.00, 0.00, -0.00, -1.00, 716.5, 8.0)"> </text><text xml:space="preserve" font-family="Helvetica" font-size="28.0" fill="#000000" transform="matrix(1.00, 0.00, -0.00, -1.00, 724.3, 8.0)">m</text><text xml:space="preserve" font-family="Helvetica" font-size="28.0" fill="#000000" transform="matrix(1.00, 0.00, -0.00, -1.00, 747.6, 8.0)">e</text><text xml:space="preserve" font-family="Helvetica" font-size="28.0" fill="#000000" transform="matrix(1.00, 0.00, -0.00, -1.00, 763.2, 8.0)">d</text><text xml:space="preserve" font-family="Helvetica" font-size="28.0" fill="#000000" transform="matrix(1.00, 0.00, -0.00, -1.00, 778.7, 8.0)">i</text><text xml:space="preserve" font-family="Helvetica" font-size="28.0" fill="#000000" transform="matrix(1.00, 0.00, -0.00, -1.00, 785.0, 8.0)">c</text><text xml:space="preserve" font-family="Helvetica" font-size="28.0" fill="#000000" transform="matrix(1.00, 0.00, -0.00, -1.00, 799.0, 8.0)">i</text><text xml:space="preserve" font-family="Helvetica" font-size="28.0" fill="#000000" transform="matrix(1.00, 0.00, -0.00, -1.00, 805.2, 8.0)">n</text><text xml:space="preserve" font-family="Helvetica" font-size="28.0" fill="#000000" transform="matrix(1.00, 0.00, -0.00, -1.00, 820.8, 8.0)">e</text><text xml:space="preserve" font-family="Helvetica" font-size="28.0" fill="#000000" transform="matrix(1.00, 0.00, -0.00, -1.00, 836.3, 8.0)">)</text></g></svg>