<?xml version="1.0" encoding="UTF-8" standalone="no"?><svg xmlns="http://www.w3.org/2000/svg" xmlns:xlink="http://www.w3.org/1999/xlink" clip-rule="evenodd" stroke-miterlimit="4.00" viewBox="0 0 688 36"><desc>SVG generated by Keynote</desc><defs></defs><g transform="matrix(1.00, 0.00, -0.00, -1.00, 0.0, 36.0)"><text xml:space="preserve" font-family="Helvetica" font-size="34.0" fill="#000000" transform="matrix(1.00, 0.00, -0.00, -1.00, 0.0, 9.5)">•</text><text xml:space="preserve" font-family="Helvetica" font-size="34.0" fill="#000000" transform="matrix(1.00, 0.00, -0.00, -1.00, 27.0, 9.0)">T</text><text xml:space="preserve" font-family="Helvetica" font-size="34.0" fill="#000000" transform="matrix(1.00, 0.00, -0.00, -1.00, 44.0, 9.0)">a</text><text xml:space="preserve" font-family="Helvetica" font-size="34.0" fill="#000000" transform="matrix(1.00, 0.00, -0.00, -1.00, 62.9, 9.0)">k</text><text xml:space="preserve" font-family="Helvetica" font-size="34.0" fill="#000000" transform="matrix(1.00, 0.00, -0.00, -1.00, 79.9, 9.0)">e</text><text xml:space="preserve" font-family="Helvetica" font-size="34.0" fill="#000000" transform="matrix(1.00, 0.00, -0.00, -1.00, 98.8, 9.0)">s</text><text xml:space="preserve" font-family="Helvetica" font-size="34.0" fill="#000000" transform="matrix(1.00, 0.00, -0.00, -1.00, 115.8, 9.0)"> </text><text xml:space="preserve" font-family="Helvetica" font-size="34.0" fill="#000000" transform="matrix(1.00, 0.00, -0.00, -1.00, 125.3, 9.0)">a</text><text xml:space="preserve" font-family="Helvetica" font-size="34.0" fill="#000000" transform="matrix(1.00, 0.00, -0.00, -1.00, 144.2, 9.0)">d</text><text xml:space="preserve" font-family="Helvetica" font-size="34.0" fill="#000000" transform="matrix(1.00, 0.00, -0.00, -1.00, 163.1, 9.0)">v</text><text xml:space="preserve" font-family="Helvetica" font-size="34.0" fill="#000000" transform="matrix(1.00, 0.00, -0.00, -1.00, 180.1, 9.0)">a</text><text xml:space="preserve" font-family="Helvetica" font-size="34.0" fill="#000000" transform="matrix(1.00, 0.00, -0.00, -1.00, 199.0, 9.0)">n</text><text xml:space="preserve" font-family="Helvetica" font-size="34.0" fill="#000000" transform="matrix(1.00, 0.00, -0.00, -1.00, 217.9, 9.0)">t</text><text xml:space="preserve" font-family="Helvetica" font-size="34.0" fill="#000000" transform="matrix(1.00, 0.00, -0.00, -1.00, 227.4, 9.0)">a</text><text xml:space="preserve" font-family="Helvetica" font-size="34.0" fill="#000000" transform="matrix(1.00, 0.00, -0.00, -1.00, 246.3, 9.0)">g</text><text xml:space="preserve" font-family="Helvetica" font-size="34.0" fill="#000000" transform="matrix(1.00, 0.00, -0.00, -1.00, 265.2, 9.0)">e</text><text xml:space="preserve" font-family="Helvetica" font-size="34.0" fill="#000000" transform="matrix(1.00, 0.00, -0.00, -1.00, 284.1, 9.0)"> </text><text xml:space="preserve" font-family="Helvetica" font-size="34.0" fill="#000000" transform="matrix(1.00, 0.00, -0.00, -1.00, 293.6, 9.0)">o</text><text xml:space="preserve" font-family="Helvetica" font-size="34.0" fill="#000000" transform="matrix(1.00, 0.00, -0.00, -1.00, 312.5, 9.0)">f</text><text xml:space="preserve" font-family="Helvetica" font-size="34.0" fill="#000000" transform="matrix(1.00, 0.00, -0.00, -1.00, 321.9, 9.0)"> </text><text xml:space="preserve" font-family="Helvetica" font-size="34.0" fill="#000000" transform="matrix(1.00, 0.00, -0.00, -1.00, 331.4, 9.0)">h</text><text xml:space="preserve" font-family="Helvetica" font-size="34.0" fill="#000000" transform="matrix(1.00, 0.00, -0.00, -1.00, 350.3, 9.0)">i</text><text xml:space="preserve" font-family="Helvetica" font-size="34.0" fill="#000000" transform="matrix(1.00, 0.00, -0.00, -1.00, 357.8, 9.0)">s</text><text xml:space="preserve" font-family="Helvetica" font-size="34.0" fill="#000000" transform="matrix(1.00, 0.00, -0.00, -1.00, 374.8, 9.0)">t</text><text xml:space="preserve" font-family="Helvetica" font-size="34.0" fill="#000000" transform="matrix(1.00, 0.00, -0.00, -1.00, 384.3, 9.0)">o</text><text xml:space="preserve" font-family="Helvetica" font-size="34.0" fill="#000000" transform="matrix(1.00, 0.00, -0.00, -1.00, 403.2, 9.0)">r</text><text xml:space="preserve" font-family="Helvetica" font-size="34.0" fill="#000000" transform="matrix(1.00, 0.00, -0.00, -1.00, 414.5, 9.0)">i</text><text xml:space="preserve" font-family="Helvetica" font-size="34.0" fill="#000000" transform="matrix(1.00, 0.00, -0.00, -1.00, 422.1, 9.0)">c</text><text xml:space="preserve" font-family="Helvetica" font-size="34.0" fill="#000000" transform="matrix(1.00, 0.00, -0.00, -1.00, 439.1, 9.0)">a</text><text xml:space="preserve" font-family="Helvetica" font-size="34.0" fill="#000000" transform="matrix(1.00, 0.00, -0.00, -1.00, 458.0, 9.0)">l</text><text xml:space="preserve" font-family="Helvetica" font-size="34.0" fill="#000000" transform="matrix(1.00, 0.00, -0.00, -1.00, 465.5, 9.0)"> </text><text xml:space="preserve" font-family="Helvetica" font-size="34.0" fill="#000000" transform="matrix(1.00, 0.00, -0.00, -1.00, 475.0, 9.0)">r</text><text xml:space="preserve" font-family="Helvetica" font-size="34.0" fill="#000000" transform="matrix(1.00, 0.00, -0.00, -1.00, 486.3, 9.0)">e</text><text xml:space="preserve" font-family="Helvetica" font-size="34.0" fill="#000000" transform="matrix(1.00, 0.00, -0.00, -1.00, 505.2, 9.0)">c</text><text xml:space="preserve" font-family="Helvetica" font-size="34.0" fill="#000000" transform="matrix(1.00, 0.00, -0.00, -1.00, 522.2, 9.0)">o</text><text xml:space="preserve" font-family="Helvetica" font-size="34.0" fill="#000000" transform="matrix(1.00, 0.00, -0.00, -1.00, 541.1, 9.0)">m</text><text xml:space="preserve" font-family="Helvetica" font-size="34.0" fill="#000000" transform="matrix(1.00, 0.00, -0.00, -1.00, 569.5, 9.0)">b</text><text xml:space="preserve" font-family="Helvetica" font-size="34.0" fill="#000000" transform="matrix(1.00, 0.00, -0.00, -1.00, 588.4, 9.0)">i</text><text xml:space="preserve" font-family="Helvetica" font-size="34.0" fill="#000000" transform="matrix(1.00, 0.00, -0.00, -1.00, 595.9, 9.0)">n</text><text xml:space="preserve" font-family="Helvetica" font-size="34.0" fill="#000000" transform="matrix(1.00, 0.00, -0.00, -1.00, 614.9, 9.0)">a</text><text xml:space="preserve" font-family="Helvetica" font-size="34.0" fill="#000000" transform="matrix(1.00, 0.00, -0.00, -1.00, 633.8, 9.0)">t</text><text xml:space="preserve" font-family="Helvetica" font-size="34.0" fill="#000000" transform="matrix(1.00, 0.00, -0.00, -1.00, 643.2, 9.0)">i</text><text xml:space="preserve" font-family="Helvetica" font-size="34.0" fill="#000000" transform="matrix(1.00, 0.00, -0.00, -1.00, 650.8, 9.0)">o</text><text xml:space="preserve" font-family="Helvetica" font-size="34.0" fill="#000000" transform="matrix(1.00, 0.00, -0.00, -1.00, 669.7, 9.0)">n</text></g></svg>