<?xml version="1.0" encoding="UTF-8" standalone="no"?><svg xmlns="http://www.w3.org/2000/svg" xmlns:xlink="http://www.w3.org/1999/xlink" clip-rule="evenodd" stroke-miterlimit="4.00" viewBox="0 0 1024 768"><desc>SVG generated by Keynote</desc><defs></defs><g transform="matrix(1.00, 0.00, -0.00, -1.00, 0.0, 768.0)"><path d="M 0.0 768.0 L 1024.0 768.0 L 1024.0 0.0 L 0.0 0.0 Z M 0.0 768.0 " fill="#FEFFFF"></path><text xml:space="preserve" font-family="Helvetica" font-size="38.0" fill="#000000" transform="matrix(1.00, 0.00, -0.00, -1.00, 332.0, 711.0)">A</text><text xml:space="preserve" font-family="Helvetica" font-size="38.0" fill="#000000" transform="matrix(1.00, 0.00, -0.00, -1.00, 357.3, 711.0)">s</text><text xml:space="preserve" font-family="Helvetica" font-size="38.0" fill="#000000" transform="matrix(1.00, 0.00, -0.00, -1.00, 376.3, 711.0)">s</text><text xml:space="preserve" font-family="Helvetica" font-size="38.0" fill="#000000" transform="matrix(1.00, 0.00, -0.00, -1.00, 395.3, 711.0)">o</text><text xml:space="preserve" font-family="Helvetica" font-size="38.0" fill="#000000" transform="matrix(1.00, 0.00, -0.00, -1.00, 416.5, 711.0)">c</text><text xml:space="preserve" font-family="Helvetica" font-size="38.0" fill="#000000" transform="matrix(1.00, 0.00, -0.00, -1.00, 435.5, 711.0)">i</text><text xml:space="preserve" font-family="Helvetica" font-size="38.0" fill="#000000" transform="matrix(1.00, 0.00, -0.00, -1.00, 443.9, 711.0)">a</text><text xml:space="preserve" font-family="Helvetica" font-size="38.0" fill="#000000" transform="matrix(1.00, 0.00, -0.00, -1.00, 465.1, 711.0)">t</text><text xml:space="preserve" font-family="Helvetica" font-size="38.0" fill="#000000" transform="matrix(1.00, 0.00, -0.00, -1.00, 475.6, 711.0)">i</text><text xml:space="preserve" font-family="Helvetica" font-size="38.0" fill="#000000" transform="matrix(1.00, 0.00, -0.00, -1.00, 484.1, 711.0)">o</text><text xml:space="preserve" font-family="Helvetica" font-size="38.0" fill="#000000" transform="matrix(1.00, 0.00, -0.00, -1.00, 505.2, 711.0)">n</text><text xml:space="preserve" font-family="Helvetica" font-size="38.0" fill="#000000" transform="matrix(1.00, 0.00, -0.00, -1.00, 526.4, 711.0)"> </text><text xml:space="preserve" font-family="Helvetica" font-size="38.0" fill="#000000" transform="matrix(1.00, 0.00, -0.00, -1.00, 536.9, 711.0)">M</text><text xml:space="preserve" font-family="Helvetica" font-size="38.0" fill="#000000" transform="matrix(1.00, 0.00, -0.00, -1.00, 568.6, 711.0)">a</text><text xml:space="preserve" font-family="Helvetica" font-size="38.0" fill="#000000" transform="matrix(1.00, 0.00, -0.00, -1.00, 589.7, 711.0)">p</text><text xml:space="preserve" font-family="Helvetica" font-size="38.0" fill="#000000" transform="matrix(1.00, 0.00, -0.00, -1.00, 610.8, 711.0)">p</text><text xml:space="preserve" font-family="Helvetica" font-size="38.0" fill="#000000" transform="matrix(1.00, 0.00, -0.00, -1.00, 632.0, 711.0)">i</text><text xml:space="preserve" font-family="Helvetica" font-size="38.0" fill="#000000" transform="matrix(1.00, 0.00, -0.00, -1.00, 640.4, 711.0)">n</text><text xml:space="preserve" font-family="Helvetica" font-size="38.0" fill="#000000" transform="matrix(1.00, 0.00, -0.00, -1.00, 661.6, 711.0)">g</text></g></svg>