<?xml version="1.0" encoding="UTF-8" standalone="no"?><svg xmlns="http://www.w3.org/2000/svg" xmlns:xlink="http://www.w3.org/1999/xlink" clip-rule="evenodd" stroke-miterlimit="4.00" viewBox="0 0 711 82"><desc>SVG generated by Keynote</desc><defs></defs><g transform="matrix(1.00, 0.00, -0.00, -1.00, 0.0, 82.0)"><text xml:space="preserve" font-family="GillSans" font-size="41.0" fill="#000000" transform="matrix(1.00, 0.00, -0.00, -1.00, 0.0, 44.0)">•</text><text xml:space="preserve" font-family="GillSans" font-size="24.0" fill="#000000" transform="matrix(1.00, 0.00, -0.00, -1.00, 22.0, 50.0)">C</text><text xml:space="preserve" font-family="GillSans" font-size="24.0" fill="#000000" transform="matrix(1.00, 0.00, -0.00, -1.00, 39.0, 50.0)">a</text><text xml:space="preserve" font-family="GillSans" font-size="24.0" fill="#000000" transform="matrix(1.00, 0.00, -0.00, -1.00, 49.2, 50.0)">n</text><text xml:space="preserve" font-family="GillSans" font-size="24.0" fill="#000000" transform="matrix(1.00, 0.00, -0.00, -1.00, 61.2, 50.0)"> </text><text xml:space="preserve" font-family="GillSans" font-size="24.0" fill="#000000" transform="matrix(1.00, 0.00, -0.00, -1.00, 67.9, 50.0)">w</text><text xml:space="preserve" font-family="GillSans" font-size="24.0" fill="#000000" transform="matrix(1.00, 0.00, -0.00, -1.00, 84.7, 50.0)">e</text><text xml:space="preserve" font-family="GillSans" font-size="24.0" fill="#000000" transform="matrix(1.00, 0.00, -0.00, -1.00, 96.2, 50.0)"> </text><text xml:space="preserve" font-family="GillSans" font-size="24.0" fill="#000000" transform="matrix(1.00, 0.00, -0.00, -1.00, 102.8, 50.0)">ﬁ</text><text xml:space="preserve" font-family="GillSans" font-size="24.0" fill="#000000" transform="matrix(1.00, 0.00, -0.00, -1.00, 114.8, 50.0)">n</text><text xml:space="preserve" font-family="GillSans" font-size="24.0" fill="#000000" transform="matrix(1.00, 0.00, -0.00, -1.00, 126.8, 50.0)">d</text><text xml:space="preserve" font-family="GillSans" font-size="24.0" fill="#000000" transform="matrix(1.00, 0.00, -0.00, -1.00, 139.1, 50.0)"> </text><text xml:space="preserve" font-family="GillSans" font-size="24.0" fill="#000000" transform="matrix(1.00, 0.00, -0.00, -1.00, 145.7, 50.0)">S</text><text xml:space="preserve" font-family="GillSans" font-size="24.0" fill="#000000" transform="matrix(1.00, 0.00, -0.00, -1.00, 156.7, 50.0)">N</text><text xml:space="preserve" font-family="GillSans" font-size="24.0" fill="#000000" transform="matrix(1.00, 0.00, -0.00, -1.00, 175.5, 50.0)">P</text><text xml:space="preserve" font-family="GillSans" font-size="24.0" fill="#000000" transform="matrix(1.00, 0.00, -0.00, -1.00, 187.7, 50.0)">s</text><text xml:space="preserve" font-family="GillSans" font-size="24.0" fill="#000000" transform="matrix(1.00, 0.00, -0.00, -1.00, 196.9, 50.0)"> </text><text xml:space="preserve" font-family="GillSans" font-size="24.0" fill="#000000" transform="matrix(1.00, 0.00, -0.00, -1.00, 203.6, 50.0)">a</text><text xml:space="preserve" font-family="GillSans" font-size="24.0" fill="#000000" transform="matrix(1.00, 0.00, -0.00, -1.00, 213.8, 50.0)">s</text><text xml:space="preserve" font-family="GillSans" font-size="24.0" fill="#000000" transform="matrix(1.00, 0.00, -0.00, -1.00, 223.0, 50.0)">s</text><text xml:space="preserve" font-family="GillSans" font-size="24.0" fill="#000000" transform="matrix(1.00, 0.00, -0.00, -1.00, 232.3, 50.0)">o</text><text xml:space="preserve" font-family="GillSans" font-size="24.0" fill="#000000" transform="matrix(1.00, 0.00, -0.00, -1.00, 245.5, 50.0)">c</text><text xml:space="preserve" font-family="GillSans" font-size="24.0" fill="#000000" transform="matrix(1.00, 0.00, -0.00, -1.00, 256.0, 50.0)">i</text><text xml:space="preserve" font-family="GillSans" font-size="24.0" fill="#000000" transform="matrix(1.00, 0.00, -0.00, -1.00, 261.3, 50.0)">a</text><text xml:space="preserve" font-family="GillSans" font-size="24.0" fill="#000000" transform="matrix(1.00, 0.00, -0.00, -1.00, 271.5, 50.0)">t</text><text xml:space="preserve" font-family="GillSans" font-size="24.0" fill="#000000" transform="matrix(1.00, 0.00, -0.00, -1.00, 279.5, 50.0)">e</text><text xml:space="preserve" font-family="GillSans" font-size="24.0" fill="#000000" transform="matrix(1.00, 0.00, -0.00, -1.00, 291.0, 50.0)">d</text><text xml:space="preserve" font-family="GillSans" font-size="24.0" fill="#000000" transform="matrix(1.00, 0.00, -0.00, -1.00, 303.2, 50.0)"> </text><text xml:space="preserve" font-family="GillSans" font-size="24.0" fill="#000000" transform="matrix(1.00, 0.00, -0.00, -1.00, 309.9, 50.0)">w</text><text xml:space="preserve" font-family="GillSans" font-size="24.0" fill="#000000" transform="matrix(1.00, 0.00, -0.00, -1.00, 327.2, 50.0)">i</text><text xml:space="preserve" font-family="GillSans" font-size="24.0" fill="#000000" transform="matrix(1.00, 0.00, -0.00, -1.00, 332.4, 50.0)">t</text><text xml:space="preserve" font-family="GillSans" font-size="24.0" fill="#000000" transform="matrix(1.00, 0.00, -0.00, -1.00, 340.4, 50.0)">h</text><text xml:space="preserve" font-family="GillSans" font-size="24.0" fill="#000000" transform="matrix(1.00, 0.00, -0.00, -1.00, 352.4, 50.0)"> </text><text xml:space="preserve" font-family="GillSans" font-size="24.0" fill="#000000" transform="matrix(1.00, 0.00, -0.00, -1.00, 356.7, 50.0)">A</text><text xml:space="preserve" font-family="GillSans" font-size="24.0" fill="#000000" transform="matrix(1.00, 0.00, -0.00, -1.00, 372.7, 50.0)">l</text><text xml:space="preserve" font-family="GillSans" font-size="24.0" fill="#000000" transform="matrix(1.00, 0.00, -0.00, -1.00, 378.0, 50.0)">u</text><text xml:space="preserve" font-family="GillSans" font-size="24.0" fill="#000000" transform="matrix(1.00, 0.00, -0.00, -1.00, 390.0, 50.0)">m</text><text xml:space="preserve" font-family="GillSans" font-size="24.0" fill="#000000" transform="matrix(1.00, 0.00, -0.00, -1.00, 408.5, 50.0)">i</text><text xml:space="preserve" font-family="GillSans" font-size="24.0" fill="#000000" transform="matrix(1.00, 0.00, -0.00, -1.00, 413.7, 50.0)">n</text><text xml:space="preserve" font-family="GillSans" font-size="24.0" fill="#000000" transform="matrix(1.00, 0.00, -0.00, -1.00, 425.5, 50.0)">u</text><text xml:space="preserve" font-family="GillSans" font-size="24.0" fill="#000000" transform="matrix(1.00, 0.00, -0.00, -1.00, 437.5, 50.0)">m</text><text xml:space="preserve" font-family="GillSans" font-size="24.0" fill="#000000" transform="matrix(1.00, 0.00, -0.00, -1.00, 456.0, 50.0)"> </text><text xml:space="preserve" font-family="GillSans" font-size="24.0" fill="#000000" transform="matrix(1.00, 0.00, -0.00, -1.00, 462.7, 50.0)">t</text><text xml:space="preserve" font-family="GillSans" font-size="24.0" fill="#000000" transform="matrix(1.00, 0.00, -0.00, -1.00, 470.7, 50.0)">o</text><text xml:space="preserve" font-family="GillSans" font-size="24.0" fill="#000000" transform="matrix(1.00, 0.00, -0.00, -1.00, 483.9, 50.0)">l</text><text xml:space="preserve" font-family="GillSans" font-size="24.0" fill="#000000" transform="matrix(1.00, 0.00, -0.00, -1.00, 489.2, 50.0)">e</text><text xml:space="preserve" font-family="GillSans" font-size="24.0" fill="#000000" transform="matrix(1.00, 0.00, -0.00, -1.00, 500.7, 50.0)">r</text><text xml:space="preserve" font-family="GillSans" font-size="24.0" fill="#000000" transform="matrix(1.00, 0.00, -0.00, -1.00, 510.2, 50.0)">a</text><text xml:space="preserve" font-family="GillSans" font-size="24.0" fill="#000000" transform="matrix(1.00, 0.00, -0.00, -1.00, 520.4, 50.0)">n</text><text xml:space="preserve" font-family="GillSans" font-size="24.0" fill="#000000" transform="matrix(1.00, 0.00, -0.00, -1.00, 532.4, 50.0)">c</text><text xml:space="preserve" font-family="GillSans" font-size="24.0" fill="#000000" transform="matrix(1.00, 0.00, -0.00, -1.00, 542.9, 50.0)">e</text><text xml:space="preserve" font-family="GillSans" font-size="24.0" fill="#000000" transform="matrix(1.00, 0.00, -0.00, -1.00, 554.4, 50.0)"> </text><text xml:space="preserve" font-family="GillSans" font-size="24.0" fill="#000000" transform="matrix(1.00, 0.00, -0.00, -1.00, 561.1, 50.0)">o</text><text xml:space="preserve" font-family="GillSans" font-size="24.0" fill="#000000" transform="matrix(1.00, 0.00, -0.00, -1.00, 574.3, 50.0)">r</text><text xml:space="preserve" font-family="GillSans" font-size="24.0" fill="#000000" transform="matrix(1.00, 0.00, -0.00, -1.00, 583.8, 50.0)"> </text><text xml:space="preserve" font-family="GillSans" font-size="24.0" fill="#000000" transform="matrix(1.00, 0.00, -0.00, -1.00, 590.5, 50.0)">o</text><text xml:space="preserve" font-family="GillSans" font-size="24.0" fill="#000000" transform="matrix(1.00, 0.00, -0.00, -1.00, 603.7, 50.0)">t</text><text xml:space="preserve" font-family="GillSans" font-size="24.0" fill="#000000" transform="matrix(1.00, 0.00, -0.00, -1.00, 611.7, 50.0)">h</text><text xml:space="preserve" font-family="GillSans" font-size="24.0" fill="#000000" transform="matrix(1.00, 0.00, -0.00, -1.00, 623.7, 50.0)">e</text><text xml:space="preserve" font-family="GillSans" font-size="24.0" fill="#000000" transform="matrix(1.00, 0.00, -0.00, -1.00, 635.2, 50.0)">r</text><text xml:space="preserve" font-family="GillSans" font-size="24.0" fill="#000000" transform="matrix(1.00, 0.00, -0.00, -1.00, 644.7, 50.0)"> </text><text xml:space="preserve" font-family="GillSans" font-size="24.0" fill="#000000" transform="matrix(1.00, 0.00, -0.00, -1.00, 651.4, 50.0)">t</text><text xml:space="preserve" font-family="GillSans" font-size="24.0" fill="#000000" transform="matrix(1.00, 0.00, -0.00, -1.00, 659.4, 50.0)">r</text><text xml:space="preserve" font-family="GillSans" font-size="24.0" fill="#000000" transform="matrix(1.00, 0.00, -0.00, -1.00, 668.9, 50.0)">a</text><text xml:space="preserve" font-family="GillSans" font-size="24.0" fill="#000000" transform="matrix(1.00, 0.00, -0.00, -1.00, 679.1, 50.0)">i</text><text xml:space="preserve" font-family="GillSans" font-size="24.0" fill="#000000" transform="matrix(1.00, 0.00, -0.00, -1.00, 684.4, 50.0)">t</text><text xml:space="preserve" font-family="GillSans" font-size="24.0" fill="#000000" transform="matrix(1.00, 0.00, -0.00, -1.00, 692.4, 50.0)">s</text><text xml:space="preserve" font-family="GillSans" font-size="24.0" fill="#000000" transform="matrix(1.00, 0.00, -0.00, -1.00, 701.6, 50.0)">?</text><text xml:space="preserve" font-family="GillSans" font-size="34.2" fill="#000000" transform="matrix(1.00, 0.00, -0.00, -1.00, 35.0, 8.9)">•</text><text xml:space="preserve" font-family="GillSans" font-size="20.0" fill="#000000" transform="matrix(1.00, 0.00, -0.00, -1.00, 57.0, 14.0)">W</text><text xml:space="preserve" font-family="GillSans" font-size="20.0" fill="#000000" transform="matrix(1.00, 0.00, -0.00, -1.00, 77.8, 14.0)">h</text><text xml:space="preserve" font-family="GillSans" font-size="20.0" fill="#000000" transform="matrix(1.00, 0.00, -0.00, -1.00, 87.8, 14.0)">a</text><text xml:space="preserve" font-family="GillSans" font-size="20.0" fill="#000000" transform="matrix(1.00, 0.00, -0.00, -1.00, 96.4, 14.0)">t</text><text xml:space="preserve" font-family="GillSans" font-size="20.0" fill="#000000" transform="matrix(1.00, 0.00, -0.00, -1.00, 103.0, 14.0)"> </text><text xml:space="preserve" font-family="GillSans" font-size="20.0" fill="#000000" transform="matrix(1.00, 0.00, -0.00, -1.00, 108.6, 14.0)">a</text><text xml:space="preserve" font-family="GillSans" font-size="20.0" fill="#000000" transform="matrix(1.00, 0.00, -0.00, -1.00, 117.1, 14.0)">r</text><text xml:space="preserve" font-family="GillSans" font-size="20.0" fill="#000000" transform="matrix(1.00, 0.00, -0.00, -1.00, 124.6, 14.0)">e</text><text xml:space="preserve" font-family="GillSans" font-size="20.0" fill="#000000" transform="matrix(1.00, 0.00, -0.00, -1.00, 134.2, 14.0)"> </text><text xml:space="preserve" font-family="GillSans" font-size="20.0" fill="#000000" transform="matrix(1.00, 0.00, -0.00, -1.00, 139.8, 14.0)">t</text><text xml:space="preserve" font-family="GillSans" font-size="20.0" fill="#000000" transform="matrix(1.00, 0.00, -0.00, -1.00, 146.4, 14.0)">h</text><text xml:space="preserve" font-family="GillSans" font-size="20.0" fill="#000000" transform="matrix(1.00, 0.00, -0.00, -1.00, 156.4, 14.0)">e</text><text xml:space="preserve" font-family="GillSans" font-size="20.0" fill="#000000" transform="matrix(1.00, 0.00, -0.00, -1.00, 166.0, 14.0)"> </text><text xml:space="preserve" font-family="GillSans" font-size="20.0" fill="#000000" transform="matrix(1.00, 0.00, -0.00, -1.00, 171.6, 14.0)">g</text><text xml:space="preserve" font-family="GillSans" font-size="20.0" fill="#000000" transform="matrix(1.00, 0.00, -0.00, -1.00, 180.1, 14.0)">e</text><text xml:space="preserve" font-family="GillSans" font-size="20.0" fill="#000000" transform="matrix(1.00, 0.00, -0.00, -1.00, 189.7, 14.0)">n</text><text xml:space="preserve" font-family="GillSans" font-size="20.0" fill="#000000" transform="matrix(1.00, 0.00, -0.00, -1.00, 199.7, 14.0)">e</text><text xml:space="preserve" font-family="GillSans" font-size="20.0" fill="#000000" transform="matrix(1.00, 0.00, -0.00, -1.00, 209.3, 14.0)">s</text><text xml:space="preserve" font-family="GillSans" font-size="20.0" fill="#000000" transform="matrix(1.00, 0.00, -0.00, -1.00, 216.9, 14.0)"> </text><text xml:space="preserve" font-family="GillSans" font-size="20.0" fill="#000000" transform="matrix(1.00, 0.00, -0.00, -1.00, 222.5, 14.0)">u</text><text xml:space="preserve" font-family="GillSans" font-size="20.0" fill="#000000" transform="matrix(1.00, 0.00, -0.00, -1.00, 232.5, 14.0)">n</text><text xml:space="preserve" font-family="GillSans" font-size="20.0" fill="#000000" transform="matrix(1.00, 0.00, -0.00, -1.00, 242.5, 14.0)">d</text><text xml:space="preserve" font-family="GillSans" font-size="20.0" fill="#000000" transform="matrix(1.00, 0.00, -0.00, -1.00, 252.7, 14.0)">e</text><text xml:space="preserve" font-family="GillSans" font-size="20.0" fill="#000000" transform="matrix(1.00, 0.00, -0.00, -1.00, 262.3, 14.0)">r</text><text xml:space="preserve" font-family="GillSans" font-size="20.0" fill="#000000" transform="matrix(1.00, 0.00, -0.00, -1.00, 270.2, 14.0)">l</text><text xml:space="preserve" font-family="GillSans" font-size="20.0" fill="#000000" transform="matrix(1.00, 0.00, -0.00, -1.00, 274.4, 14.0)">y</text><text xml:space="preserve" font-family="GillSans" font-size="20.0" fill="#000000" transform="matrix(1.00, 0.00, -0.00, -1.00, 283.1, 14.0)">i</text><text xml:space="preserve" font-family="GillSans" font-size="20.0" fill="#000000" transform="matrix(1.00, 0.00, -0.00, -1.00, 287.5, 14.0)">n</text><text xml:space="preserve" font-family="GillSans" font-size="20.0" fill="#000000" transform="matrix(1.00, 0.00, -0.00, -1.00, 297.5, 14.0)">g</text><text xml:space="preserve" font-family="GillSans" font-size="20.0" fill="#000000" transform="matrix(1.00, 0.00, -0.00, -1.00, 306.1, 14.0)"> </text><text xml:space="preserve" font-family="GillSans" font-size="20.0" fill="#000000" transform="matrix(1.00, 0.00, -0.00, -1.00, 311.6, 14.0)">t</text><text xml:space="preserve" font-family="GillSans" font-size="20.0" fill="#000000" transform="matrix(1.00, 0.00, -0.00, -1.00, 318.3, 14.0)">h</text><text xml:space="preserve" font-family="GillSans" font-size="20.0" fill="#000000" transform="matrix(1.00, 0.00, -0.00, -1.00, 328.3, 14.0)">e</text><text xml:space="preserve" font-family="GillSans" font-size="20.0" fill="#000000" transform="matrix(1.00, 0.00, -0.00, -1.00, 337.9, 14.0)">s</text><text xml:space="preserve" font-family="GillSans" font-size="20.0" fill="#000000" transform="matrix(1.00, 0.00, -0.00, -1.00, 345.5, 14.0)">e</text><text xml:space="preserve" font-family="GillSans" font-size="20.0" fill="#000000" transform="matrix(1.00, 0.00, -0.00, -1.00, 355.1, 14.0)"> </text><text xml:space="preserve" font-family="GillSans" font-size="20.0" fill="#000000" transform="matrix(1.00, 0.00, -0.00, -1.00, 360.7, 14.0)">S</text><text xml:space="preserve" font-family="GillSans" font-size="20.0" fill="#000000" transform="matrix(1.00, 0.00, -0.00, -1.00, 369.8, 14.0)">N</text><text xml:space="preserve" font-family="GillSans" font-size="20.0" fill="#000000" transform="matrix(1.00, 0.00, -0.00, -1.00, 385.4, 14.0)">P</text><text xml:space="preserve" font-family="GillSans" font-size="20.0" fill="#000000" transform="matrix(1.00, 0.00, -0.00, -1.00, 395.6, 14.0)">s</text><text xml:space="preserve" font-family="GillSans" font-size="20.0" fill="#000000" transform="matrix(1.00, 0.00, -0.00, -1.00, 403.3, 14.0)">?</text></g></svg>