<?xml version="1.0" encoding="UTF-8" standalone="no"?><svg xmlns="http://www.w3.org/2000/svg" xmlns:xlink="http://www.w3.org/1999/xlink" clip-rule="evenodd" stroke-miterlimit="4.00" viewBox="0 0 1024 768"><desc>SVG generated by Keynote</desc><defs></defs><g transform="matrix(1.00, 0.00, -0.00, -1.00, 0.0, 768.0)"><path d="M 0.0 768.0 L 1024.0 768.0 L 1024.0 0.0 L 0.0 0.0 Z M 0.0 768.0 " fill="#FFFFFF"></path><text xml:space="preserve" font-family="GillSans" font-size="24.0" fill="#000000" transform="matrix(1.00, 0.00, -0.00, -1.00, 475.0, 729.0)">O</text><text xml:space="preserve" font-family="GillSans" font-size="24.0" fill="#000000" transform="matrix(1.00, 0.00, -0.00, -1.00, 494.8, 729.0)">u</text><text xml:space="preserve" font-family="GillSans" font-size="24.0" fill="#000000" transform="matrix(1.00, 0.00, -0.00, -1.00, 506.8, 729.0)">t</text><text xml:space="preserve" font-family="GillSans" font-size="24.0" fill="#000000" transform="matrix(1.00, 0.00, -0.00, -1.00, 514.8, 729.0)">l</text><text xml:space="preserve" font-family="GillSans" font-size="24.0" fill="#000000" transform="matrix(1.00, 0.00, -0.00, -1.00, 520.0, 729.0)">i</text><text xml:space="preserve" font-family="GillSans" font-size="24.0" fill="#000000" transform="matrix(1.00, 0.00, -0.00, -1.00, 525.3, 729.0)">n</text><text xml:space="preserve" font-family="GillSans" font-size="24.0" fill="#000000" transform="matrix(1.00, 0.00, -0.00, -1.00, 537.3, 729.0)">e</text><text xml:space="preserve" font-family="GillSans" font-size="41.0" fill="#000000" transform="matrix(1.00, 0.00, -0.00, -1.00, 52.0, 667.0)">•</text><text xml:space="preserve" font-family="GillSans" font-size="24.0" fill="#000000" transform="matrix(1.00, 0.00, -0.00, -1.00, 74.0, 673.0)">T</text><text xml:space="preserve" font-family="GillSans" font-size="24.0" fill="#000000" transform="matrix(1.00, 0.00, -0.00, -1.00, 84.9, 673.0)">o</text><text xml:space="preserve" font-family="GillSans" font-size="24.0" fill="#000000" transform="matrix(1.00, 0.00, -0.00, -1.00, 98.1, 673.0)">d</text><text xml:space="preserve" font-family="GillSans" font-size="24.0" fill="#000000" transform="matrix(1.00, 0.00, -0.00, -1.00, 110.4, 673.0)">a</text><text xml:space="preserve" font-family="GillSans" font-size="24.0" fill="#000000" transform="matrix(1.00, 0.00, -0.00, -1.00, 119.6, 673.0)">y</text><text xml:space="preserve" font-family="GillSans" font-size="24.0" fill="#000000" transform="matrix(1.00, 0.00, -0.00, -1.00, 130.2, 673.0)">:</text><text xml:space="preserve" font-family="GillSans" font-size="24.0" fill="#000000" transform="matrix(1.00, 0.00, -0.00, -1.00, 133.0, 673.0)"> </text><text xml:space="preserve" font-family="GillSans" font-size="34.2" fill="#000000" transform="matrix(1.00, 0.00, -0.00, -1.00, 87.0, 631.9)">•</text><text xml:space="preserve" font-family="GillSans" font-size="20.0" fill="#000000" transform="matrix(1.00, 0.00, -0.00, -1.00, 110.0, 637.0)">I</text><text xml:space="preserve" font-family="GillSans" font-size="20.0" fill="#000000" transform="matrix(1.00, 0.00, -0.00, -1.00, 115.0, 637.0)">n</text><text xml:space="preserve" font-family="GillSans" font-size="20.0" fill="#000000" transform="matrix(1.00, 0.00, -0.00, -1.00, 125.0, 637.0)">t</text><text xml:space="preserve" font-family="GillSans" font-size="20.0" fill="#000000" transform="matrix(1.00, 0.00, -0.00, -1.00, 131.7, 637.0)">r</text><text xml:space="preserve" font-family="GillSans" font-size="20.0" fill="#000000" transform="matrix(1.00, 0.00, -0.00, -1.00, 139.1, 637.0)">o</text><text xml:space="preserve" font-family="GillSans" font-size="20.0" fill="#000000" transform="matrix(1.00, 0.00, -0.00, -1.00, 150.1, 637.0)"> </text><text xml:space="preserve" font-family="GillSans" font-size="20.0" fill="#000000" transform="matrix(1.00, 0.00, -0.00, -1.00, 155.7, 637.0)">t</text><text xml:space="preserve" font-family="GillSans" font-size="20.0" fill="#000000" transform="matrix(1.00, 0.00, -0.00, -1.00, 162.3, 637.0)">o</text><text xml:space="preserve" font-family="GillSans" font-size="20.0" fill="#000000" transform="matrix(1.00, 0.00, -0.00, -1.00, 173.4, 637.0)"> </text><text xml:space="preserve" font-family="GillSans" font-size="20.0" fill="#000000" transform="matrix(1.00, 0.00, -0.00, -1.00, 178.9, 637.0)">r</text><text xml:space="preserve" font-family="GillSans" font-size="20.0" fill="#000000" transform="matrix(1.00, 0.00, -0.00, -1.00, 186.8, 637.0)">i</text><text xml:space="preserve" font-family="GillSans" font-size="20.0" fill="#000000" transform="matrix(1.00, 0.00, -0.00, -1.00, 191.2, 637.0)">c</text><text xml:space="preserve" font-family="GillSans" font-size="20.0" fill="#000000" transform="matrix(1.00, 0.00, -0.00, -1.00, 200.0, 637.0)">e</text><text xml:space="preserve" font-family="GillSans" font-size="34.2" fill="#000000" transform="matrix(1.00, 0.00, -0.00, -1.00, 87.0, 596.9)">•</text><text xml:space="preserve" font-family="GillSans" font-size="20.0" fill="#000000" transform="matrix(1.00, 0.00, -0.00, -1.00, 109.0, 602.0)">R</text><text xml:space="preserve" font-family="GillSans" font-size="20.0" fill="#000000" transform="matrix(1.00, 0.00, -0.00, -1.00, 121.1, 602.0)">e</text><text xml:space="preserve" font-family="GillSans" font-size="20.0" fill="#000000" transform="matrix(1.00, 0.00, -0.00, -1.00, 130.4, 602.0)">v</text><text xml:space="preserve" font-family="GillSans" font-size="20.0" fill="#000000" transform="matrix(1.00, 0.00, -0.00, -1.00, 139.1, 602.0)">i</text><text xml:space="preserve" font-family="GillSans" font-size="20.0" fill="#000000" transform="matrix(1.00, 0.00, -0.00, -1.00, 143.5, 602.0)">e</text><text xml:space="preserve" font-family="GillSans" font-size="20.0" fill="#000000" transform="matrix(1.00, 0.00, -0.00, -1.00, 152.8, 602.0)">w</text><text xml:space="preserve" font-family="GillSans" font-size="20.0" fill="#000000" transform="matrix(1.00, 0.00, -0.00, -1.00, 167.2, 602.0)"> </text><text xml:space="preserve" font-family="GillSans" font-size="20.0" fill="#000000" transform="matrix(1.00, 0.00, -0.00, -1.00, 172.7, 602.0)">o</text><text xml:space="preserve" font-family="GillSans" font-size="20.0" fill="#000000" transform="matrix(1.00, 0.00, -0.00, -1.00, 183.8, 602.0)">n</text><text xml:space="preserve" font-family="GillSans" font-size="20.0" fill="#000000" transform="matrix(1.00, 0.00, -0.00, -1.00, 193.8, 602.0)"> </text><text xml:space="preserve" font-family="GillSans" font-size="20.0" fill="#000000" transform="matrix(1.00, 0.00, -0.00, -1.00, 199.3, 602.0)">G</text><text xml:space="preserve" font-family="GillSans" font-size="20.0" fill="#000000" transform="matrix(1.00, 0.00, -0.00, -1.00, 214.1, 602.0)">W</text><text xml:space="preserve" font-family="GillSans" font-size="20.0" fill="#000000" transform="matrix(1.00, 0.00, -0.00, -1.00, 233.4, 602.0)">A</text><text xml:space="preserve" font-family="GillSans" font-size="20.0" fill="#000000" transform="matrix(1.00, 0.00, -0.00, -1.00, 246.7, 602.0)">S</text><text xml:space="preserve" font-family="GillSans" font-size="30.8" fill="#000000" transform="matrix(1.00, 0.00, -0.00, -1.00, 122.0, 564.1)">•</text><text xml:space="preserve" font-family="GillSans" font-size="18.0" fill="#000000" transform="matrix(1.00, 0.00, -0.00, -1.00, 144.0, 568.0)">P</text><text xml:space="preserve" font-family="GillSans" font-size="18.0" fill="#000000" transform="matrix(1.00, 0.00, -0.00, -1.00, 152.7, 568.0)">o</text><text xml:space="preserve" font-family="GillSans" font-size="18.0" fill="#000000" transform="matrix(1.00, 0.00, -0.00, -1.00, 162.7, 568.0)">p</text><text xml:space="preserve" font-family="GillSans" font-size="18.0" fill="#000000" transform="matrix(1.00, 0.00, -0.00, -1.00, 171.7, 568.0)">u</text><text xml:space="preserve" font-family="GillSans" font-size="18.0" fill="#000000" transform="matrix(1.00, 0.00, -0.00, -1.00, 180.7, 568.0)">l</text><text xml:space="preserve" font-family="GillSans" font-size="18.0" fill="#000000" transform="matrix(1.00, 0.00, -0.00, -1.00, 184.6, 568.0)">a</text><text xml:space="preserve" font-family="GillSans" font-size="18.0" fill="#000000" transform="matrix(1.00, 0.00, -0.00, -1.00, 192.3, 568.0)">t</text><text xml:space="preserve" font-family="GillSans" font-size="18.0" fill="#000000" transform="matrix(1.00, 0.00, -0.00, -1.00, 198.3, 568.0)">i</text><text xml:space="preserve" font-family="GillSans" font-size="18.0" fill="#000000" transform="matrix(1.00, 0.00, -0.00, -1.00, 202.2, 568.0)">o</text><text xml:space="preserve" font-family="GillSans" font-size="18.0" fill="#000000" transform="matrix(1.00, 0.00, -0.00, -1.00, 212.2, 568.0)">n</text><text xml:space="preserve" font-family="GillSans" font-size="18.0" fill="#000000" transform="matrix(1.00, 0.00, -0.00, -1.00, 221.2, 568.0)"> </text><text xml:space="preserve" font-family="GillSans" font-size="18.0" fill="#000000" transform="matrix(1.00, 0.00, -0.00, -1.00, 226.1, 568.0)">S</text><text xml:space="preserve" font-family="GillSans" font-size="18.0" fill="#000000" transform="matrix(1.00, 0.00, -0.00, -1.00, 234.4, 568.0)">t</text><text xml:space="preserve" font-family="GillSans" font-size="18.0" fill="#000000" transform="matrix(1.00, 0.00, -0.00, -1.00, 240.4, 568.0)">r</text><text xml:space="preserve" font-family="GillSans" font-size="18.0" fill="#000000" transform="matrix(1.00, 0.00, -0.00, -1.00, 247.5, 568.0)">u</text><text xml:space="preserve" font-family="GillSans" font-size="18.0" fill="#000000" transform="matrix(1.00, 0.00, -0.00, -1.00, 256.5, 568.0)">c</text><text xml:space="preserve" font-family="GillSans" font-size="18.0" fill="#000000" transform="matrix(1.00, 0.00, -0.00, -1.00, 264.4, 568.0)">t</text><text xml:space="preserve" font-family="GillSans" font-size="18.0" fill="#000000" transform="matrix(1.00, 0.00, -0.00, -1.00, 270.4, 568.0)">u</text><text xml:space="preserve" font-family="GillSans" font-size="18.0" fill="#000000" transform="matrix(1.00, 0.00, -0.00, -1.00, 279.4, 568.0)">r</text><text xml:space="preserve" font-family="GillSans" font-size="18.0" fill="#000000" transform="matrix(1.00, 0.00, -0.00, -1.00, 286.2, 568.0)">e</text><text xml:space="preserve" font-family="GillSans" font-size="18.0" fill="#000000" transform="matrix(1.00, 0.00, -0.00, -1.00, 294.8, 568.0)">/</text><text xml:space="preserve" font-family="GillSans" font-size="18.0" fill="#000000" transform="matrix(1.00, 0.00, -0.00, -1.00, 299.8, 568.0)">P</text><text xml:space="preserve" font-family="GillSans" font-size="18.0" fill="#000000" transform="matrix(1.00, 0.00, -0.00, -1.00, 309.0, 568.0)">C</text><text xml:space="preserve" font-family="GillSans" font-size="18.0" fill="#000000" transform="matrix(1.00, 0.00, -0.00, -1.00, 322.2, 568.0)">A</text><text xml:space="preserve" font-family="GillSans" font-size="41.0" fill="#000000" transform="matrix(1.00, 0.00, -0.00, -1.00, 52.0, 524.0)">•</text><text xml:space="preserve" font-family="GillSans" font-size="24.0" fill="#000000" transform="matrix(1.00, 0.00, -0.00, -1.00, 74.0, 530.0)">F</text><text xml:space="preserve" font-family="GillSans" font-size="24.0" fill="#000000" transform="matrix(1.00, 0.00, -0.00, -1.00, 85.3, 530.0)">r</text><text xml:space="preserve" font-family="GillSans" font-size="24.0" fill="#000000" transform="matrix(1.00, 0.00, -0.00, -1.00, 94.8, 530.0)">i</text><text xml:space="preserve" font-family="GillSans" font-size="24.0" fill="#000000" transform="matrix(1.00, 0.00, -0.00, -1.00, 100.0, 530.0)">d</text><text xml:space="preserve" font-family="GillSans" font-size="24.0" fill="#000000" transform="matrix(1.00, 0.00, -0.00, -1.00, 112.3, 530.0)">a</text><text xml:space="preserve" font-family="GillSans" font-size="24.0" fill="#000000" transform="matrix(1.00, 0.00, -0.00, -1.00, 121.5, 530.0)">y</text><text xml:space="preserve" font-family="GillSans" font-size="24.0" fill="#000000" transform="matrix(1.00, 0.00, -0.00, -1.00, 132.1, 530.0)">/</text><text xml:space="preserve" font-family="GillSans" font-size="24.0" fill="#000000" transform="matrix(1.00, 0.00, -0.00, -1.00, 138.8, 530.0)">T</text><text xml:space="preserve" font-family="GillSans" font-size="24.0" fill="#000000" transform="matrix(1.00, 0.00, -0.00, -1.00, 149.9, 530.0)">u</text><text xml:space="preserve" font-family="GillSans" font-size="24.0" fill="#000000" transform="matrix(1.00, 0.00, -0.00, -1.00, 161.9, 530.0)">e</text><text xml:space="preserve" font-family="GillSans" font-size="24.0" fill="#000000" transform="matrix(1.00, 0.00, -0.00, -1.00, 173.4, 530.0)">s</text><text xml:space="preserve" font-family="GillSans" font-size="24.0" fill="#000000" transform="matrix(1.00, 0.00, -0.00, -1.00, 182.6, 530.0)">d</text><text xml:space="preserve" font-family="GillSans" font-size="24.0" fill="#000000" transform="matrix(1.00, 0.00, -0.00, -1.00, 194.9, 530.0)">a</text><text xml:space="preserve" font-family="GillSans" font-size="24.0" fill="#000000" transform="matrix(1.00, 0.00, -0.00, -1.00, 204.2, 530.0)">y</text><text xml:space="preserve" font-family="GillSans" font-size="24.0" fill="#000000" transform="matrix(1.00, 0.00, -0.00, -1.00, 214.7, 530.0)">:</text><text xml:space="preserve" font-family="GillSans" font-size="34.2" fill="#000000" transform="matrix(1.00, 0.00, -0.00, -1.00, 87.0, 488.9)">•</text><text xml:space="preserve" font-family="GillSans" font-size="20.0" fill="#000000" transform="matrix(1.00, 0.00, -0.00, -1.00, 109.0, 494.0)">G</text><text xml:space="preserve" font-family="GillSans" font-size="20.0" fill="#000000" transform="matrix(1.00, 0.00, -0.00, -1.00, 123.8, 494.0)">e</text><text xml:space="preserve" font-family="GillSans" font-size="20.0" fill="#000000" transform="matrix(1.00, 0.00, -0.00, -1.00, 133.4, 494.0)">n</text><text xml:space="preserve" font-family="GillSans" font-size="20.0" fill="#000000" transform="matrix(1.00, 0.00, -0.00, -1.00, 143.4, 494.0)">o</text><text xml:space="preserve" font-family="GillSans" font-size="20.0" fill="#000000" transform="matrix(1.00, 0.00, -0.00, -1.00, 154.4, 494.0)">m</text><text xml:space="preserve" font-family="GillSans" font-size="20.0" fill="#000000" transform="matrix(1.00, 0.00, -0.00, -1.00, 169.8, 494.0)">e</text><text xml:space="preserve" font-family="GillSans" font-size="20.0" fill="#000000" transform="matrix(1.00, 0.00, -0.00, -1.00, 179.4, 494.0)"> </text><text xml:space="preserve" font-family="GillSans" font-size="20.0" fill="#000000" transform="matrix(1.00, 0.00, -0.00, -1.00, 182.5, 494.0)">W</text><text xml:space="preserve" font-family="GillSans" font-size="20.0" fill="#000000" transform="matrix(1.00, 0.00, -0.00, -1.00, 203.3, 494.0)">i</text><text xml:space="preserve" font-family="GillSans" font-size="20.0" fill="#000000" transform="matrix(1.00, 0.00, -0.00, -1.00, 207.7, 494.0)">d</text><text xml:space="preserve" font-family="GillSans" font-size="20.0" fill="#000000" transform="matrix(1.00, 0.00, -0.00, -1.00, 217.9, 494.0)">e</text><text xml:space="preserve" font-family="GillSans" font-size="20.0" fill="#000000" transform="matrix(1.00, 0.00, -0.00, -1.00, 227.5, 494.0)"> </text><text xml:space="preserve" font-family="GillSans" font-size="20.0" fill="#000000" transform="matrix(1.00, 0.00, -0.00, -1.00, 231.0, 494.0)">A</text><text xml:space="preserve" font-family="GillSans" font-size="20.0" fill="#000000" transform="matrix(1.00, 0.00, -0.00, -1.00, 244.4, 494.0)">s</text><text xml:space="preserve" font-family="GillSans" font-size="20.0" fill="#000000" transform="matrix(1.00, 0.00, -0.00, -1.00, 252.1, 494.0)">s</text><text xml:space="preserve" font-family="GillSans" font-size="20.0" fill="#000000" transform="matrix(1.00, 0.00, -0.00, -1.00, 259.7, 494.0)">o</text><text xml:space="preserve" font-family="GillSans" font-size="20.0" fill="#000000" transform="matrix(1.00, 0.00, -0.00, -1.00, 270.8, 494.0)">c</text><text xml:space="preserve" font-family="GillSans" font-size="20.0" fill="#000000" transform="matrix(1.00, 0.00, -0.00, -1.00, 279.5, 494.0)">i</text><text xml:space="preserve" font-family="GillSans" font-size="20.0" fill="#000000" transform="matrix(1.00, 0.00, -0.00, -1.00, 283.9, 494.0)">a</text><text xml:space="preserve" font-family="GillSans" font-size="20.0" fill="#000000" transform="matrix(1.00, 0.00, -0.00, -1.00, 292.5, 494.0)">t</text><text xml:space="preserve" font-family="GillSans" font-size="20.0" fill="#000000" transform="matrix(1.00, 0.00, -0.00, -1.00, 299.1, 494.0)">i</text><text xml:space="preserve" font-family="GillSans" font-size="20.0" fill="#000000" transform="matrix(1.00, 0.00, -0.00, -1.00, 303.5, 494.0)">o</text><text xml:space="preserve" font-family="GillSans" font-size="20.0" fill="#000000" transform="matrix(1.00, 0.00, -0.00, -1.00, 314.5, 494.0)">n</text><text xml:space="preserve" font-family="GillSans" font-size="20.0" fill="#000000" transform="matrix(1.00, 0.00, -0.00, -1.00, 324.5, 494.0)"> </text><text xml:space="preserve" font-family="GillSans" font-size="20.0" fill="#000000" transform="matrix(1.00, 0.00, -0.00, -1.00, 330.1, 494.0)">M</text><text xml:space="preserve" font-family="GillSans" font-size="20.0" fill="#000000" transform="matrix(1.00, 0.00, -0.00, -1.00, 345.7, 494.0)">a</text><text xml:space="preserve" font-family="GillSans" font-size="20.0" fill="#000000" transform="matrix(1.00, 0.00, -0.00, -1.00, 354.0, 494.0)">p</text><text xml:space="preserve" font-family="GillSans" font-size="20.0" fill="#000000" transform="matrix(1.00, 0.00, -0.00, -1.00, 364.0, 494.0)">p</text><text xml:space="preserve" font-family="GillSans" font-size="20.0" fill="#000000" transform="matrix(1.00, 0.00, -0.00, -1.00, 374.0, 494.0)">i</text><text xml:space="preserve" font-family="GillSans" font-size="20.0" fill="#000000" transform="matrix(1.00, 0.00, -0.00, -1.00, 378.4, 494.0)">n</text><text xml:space="preserve" font-family="GillSans" font-size="20.0" fill="#000000" transform="matrix(1.00, 0.00, -0.00, -1.00, 388.4, 494.0)">g</text><text xml:space="preserve" font-family="GillSans" font-size="20.0" fill="#000000" transform="matrix(1.00, 0.00, -0.00, -1.00, 397.0, 494.0)"> </text><text xml:space="preserve" font-family="GillSans" font-size="20.0" fill="#000000" transform="matrix(1.00, 0.00, -0.00, -1.00, 402.5, 494.0)">(</text><text xml:space="preserve" font-family="GillSans" font-size="20.0" fill="#000000" transform="matrix(1.00, 0.00, -0.00, -1.00, 409.0, 494.0)">L</text><text xml:space="preserve" font-family="GillSans" font-size="20.0" fill="#000000" transform="matrix(1.00, 0.00, -0.00, -1.00, 418.8, 494.0)">D</text><text xml:space="preserve" font-family="GillSans" font-size="20.0" fill="#000000" transform="matrix(1.00, 0.00, -0.00, -1.00, 433.8, 494.0)">)</text></g></svg>